{"glyphs":{"0":{"ha":646,"x_min":0,"x_max":0,"o":"m 602 747 b 604 704 603 733 604 719 b 602 663 604 692 604 679 b 591 584 600 637 596 611 b 546 436 580 534 565 484 b 517 365 537 412 528 388 b 482 295 506 340 494 317 b 391 168 456 250 426 207 b 271 64 355 128 315 93 b 200 26 248 49 225 36 b 121 4 175 15 148 8 b 39 10 94 1 66 3 b 27 14 35 11 31 12 b 16 19 24 15 20 17 b -4 33 9 23 2 27 b -31 70 -15 44 -24 56 b -45 110 -37 83 -42 97 b -53 150 -49 124 -51 137 b -57 190 -55 162 -56 175 b -58 229 -57 203 -58 215 b -40 385 -57 282 -51 334 b 10 534 -30 436 -13 487 b 19 552 13 540 16 546 b 25 563 21 556 23 560 b 28 569 26 565 27 567 b 48 603 34 579 40 589 b 69 635 54 612 61 623 b 92 667 77 647 85 658 b 141 728 107 688 124 709 b 198 783 159 747 178 766 b 336 865 242 821 289 848 b 414 883 361 875 387 881 b 434 885 421 884 428 884 b 454 884 441 885 448 884 b 489 877 466 883 478 881 l 515 870 b 546 857 526 868 537 863 b 568 837 555 851 562 845 b 592 791 579 823 587 807 b 602 747 597 777 600 762 m 441 851 b 453 859 445 854 449 856 b 290 772 409 850 351 828 b 67 441 156 653 96 509 b 8 177 36 366 10 204 l 8 177 b 7 154 7 169 7 161 b 8 121 6 143 7 132 b 16 91 10 111 12 101 b 30 68 19 82 24 74 b 39 60 33 65 36 62 b 45 57 41 59 43 58 b 51 55 47 57 49 56 b 114 52 72 50 93 49 b 133 57 121 54 127 55 l 143 60 l 143 60 b 229 113 158 65 189 79 b 437 417 281 158 360 247 b 525 804 503 563 571 749 b 524 806 525 805 524 805 b 446 808 517 815 477 826 b 369 734 414 790 386 758 l 326 674 l 356 741 b 396 808 367 765 380 787 b 424 838 404 819 413 829 b 441 851 429 843 435 847 "},"1":{"ha":351,"x_min":0,"x_max":0,"o":"m 414 894 l 405 877 b 386 839 403 874 386 841 b 137 328 385 838 241 542 b 19 84 67 184 24 95 b -3 37 8 62 2 47 b -30 12 -11 16 -13 12 b -57 11 -39 13 -48 12 b -100 -11 -88 6 -99 -10 l -116 -35 l -114 -6 b -75 121 -113 -5 -110 37 b 224 697 -32 224 55 407 l 63 537 l 62 537 b 45 538 57 532 49 533 b 44 555 40 542 39 550 l 44 556 l 356 880 b 373 883 362 887 369 885 b 378 883 374 883 376 882 b 396 888 384 884 390 886 "},"2":{"ha":614,"x_min":0,"x_max":0,"o":"m 524 819 b 559 702 554 778 559 716 l 559 702 b 558 696 559 700 558 698 b 527 577 556 655 546 614 b 481 499 514 550 498 523 b 316 353 447 452 378 385 b -19 86 178 282 41 149 b 150 136 25 108 95 137 b 179 134 152 136 167 135 b 226 120 195 133 211 128 l 226 120 l 233 116 b 239 113 235 115 237 114 b 252 106 244 110 248 108 b 278 96 261 102 269 99 b 304 88 286 93 295 90 b 330 84 313 86 321 85 b 382 91 348 83 365 85 b 428 118 399 96 415 105 b 446 140 435 124 441 132 b 452 153 448 144 450 149 b 456 167 454 158 455 162 l 456 167 b 467 178 457 173 461 178 l 468 179 b 481 167 475 179 481 174 b 478 125 483 153 482 138 b 461 87 474 112 468 99 b 405 32 447 65 428 46 b 333 8 383 19 358 11 b 260 10 309 5 284 5 b 224 19 248 12 236 15 b 207 25 219 21 213 23 b 199 28 205 26 202 27 l 195 30 l 192 31 b 141 43 175 37 158 41 b -2 37 93 48 45 46 b -115 5 -44 29 -115 5 l -134 -1 l -125 16 b -58 119 -123 18 -88 81 b -50 129 -55 122 -53 126 b -35 148 -45 136 -40 142 b 12 201 -21 164 -6 181 b 24 214 16 205 20 209 l 36 226 b 54 244 42 232 48 239 b 61 251 56 247 59 249 b 163 345 99 289 131 318 b 190 367 172 352 181 360 b 217 388 198 373 207 380 b 245 408 227 395 237 402 l 273 426 b 322 462 286 435 305 448 b 368 500 341 477 356 489 b 445 589 401 530 426 559 b 469 641 455 605 463 623 b 481 694 476 658 480 676 b 481 707 481 698 481 702 b 480 720 481 711 481 715 b 474 745 479 728 477 737 b 450 791 469 762 461 778 b 408 821 439 804 424 814 l 408 821 b 403 823 407 822 405 822 l 402 823 b 396 825 400 824 398 824 l 396 825 b 390 827 394 826 392 826 l 388 827 b 383 828 386 827 385 828 b 380 828 382 828 381 828 b 376 829 379 828 378 829 l 369 829 b 357 829 365 830 361 829 b 307 812 339 827 322 821 b 284 795 299 807 291 801 b 264 773 277 788 270 781 b 234 720 251 757 241 739 b 226 691 230 711 228 701 b 224 660 224 681 223 671 b 239 604 224 641 230 621 b 277 560 249 587 262 572 l 277 560 b 286 541 283 555 286 548 b 278 522 286 533 283 527 b 251 522 270 515 259 515 b 202 580 231 538 215 557 b 187 617 195 592 190 604 b 180 658 183 631 181 644 b 182 699 179 672 180 685 b 192 738 184 712 187 725 b 207 774 196 750 201 762 b 228 806 213 785 220 796 b 282 858 243 826 261 844 b 351 886 302 872 326 882 b 370 888 357 887 363 888 l 378 888 b 384 888 380 888 382 888 b 395 888 388 888 391 888 l 398 887 b 401 887 399 887 400 887 l 406 887 b 415 885 408 886 412 886 l 416 885 b 424 883 419 885 422 884 b 495 849 450 877 474 866 b 524 819 506 840 516 830 "},"3":{"ha":521,"x_min":0,"x_max":0,"o":"m 573 832 b 573 821 573 828 573 825 b 572 817 572 820 572 818 l 571 814 l 530 774 l 529 773 b 514 759 524 769 519 764 l 491 735 l 421 661 b 325 563 390 629 358 595 b 279 519 316 553 293 532 b 382 444 305 513 356 496 b 390 258 412 383 415 324 b 278 84 365 193 323 128 b 188 26 254 61 224 41 b 24 10 136 4 79 -1 b 13 13 20 11 16 12 l 12 13 b -26 31 -1 17 -14 24 b -58 61 -38 39 -49 49 b -79 98 -67 72 -74 84 b -89 175 -87 121 -90 146 b -77 246 -87 199 -83 223 b -66 280 -74 258 -70 269 b -53 313 -61 292 -57 303 b -38 320 -50 318 -44 321 b -29 314 -34 319 -31 317 b -28 303 -28 311 -27 307 l -28 303 b -42 239 -35 282 -39 261 b -45 175 -45 218 -46 197 b -30 120 -43 153 -38 135 b 6 86 -22 105 -10 93 b 58 75 20 79 37 75 b 88 77 68 75 78 76 l 88 77 b 94 77 90 77 92 77 l 95 78 b 98 78 96 78 97 78 b 102 79 99 78 101 78 b 116 81 108 79 112 80 b 167 103 134 86 151 93 b 213 138 184 113 199 125 b 252 182 227 152 240 167 b 283 231 263 198 274 214 b 295 257 287 239 291 248 b 304 283 298 265 301 273 b 318 335 310 300 315 318 b 318 386 321 352 321 369 b 311 410 317 394 315 402 b 310 416 311 412 310 414 b 309 419 309 417 309 418 b 304 426 307 421 306 424 b 288 443 299 433 294 439 b 265 458 281 449 273 454 b 228 471 253 464 241 468 b 193 448 222 467 208 458 b 144 444 169 432 151 441 l 144 445 b 129 465 139 447 132 455 b 137 509 126 475 125 490 b 198 535 154 536 182 539 l 215 553 l 217 555 b 227 565 220 558 224 561 b 275 612 243 580 258 595 b 369 710 306 644 338 677 l 434 779 b 430 780 433 779 431 779 b 415 784 425 781 420 782 b 341 790 390 789 365 791 b 324 788 335 789 329 789 b 320 788 322 788 321 788 b 318 788 319 788 318 788 b 316 787 317 787 317 787 l 316 787 b 297 784 310 786 304 785 b 291 783 295 784 293 783 b 279 781 287 783 283 782 b 238 778 265 780 251 779 b 213 779 230 778 221 778 b 188 784 204 781 195 783 b 138 804 167 789 150 795 b 120 821 132 809 125 815 b 106 839 115 827 110 833 b 107 855 102 844 102 851 b 123 858 111 860 118 861 b 140 850 128 855 134 852 b 156 846 145 848 150 847 b 169 846 160 846 165 846 l 170 847 l 171 847 b 228 861 191 846 207 852 b 257 872 237 864 246 868 b 351 877 279 879 311 881 l 352 877 b 440 855 386 872 415 863 b 518 838 469 845 495 837 b 559 848 532 839 546 842 l 565 850 l 569 844 b 573 832 571 840 572 836 "},"4":{"ha":585,"x_min":0,"x_max":0,"o":"m 656 886 l 646 869 b 627 832 645 867 628 834 b 385 334 627 831 491 551 l 355 271 b 363 271 357 271 360 271 b 406 277 377 271 392 273 b 425 285 413 279 419 282 b 439 299 431 289 436 294 l 445 308 b 448 312 446 309 447 311 b 453 313 450 313 452 314 b 420 258 466 304 442 269 b 414 255 418 257 416 256 b 364 242 397 247 380 244 b 339 239 357 241 349 240 b 270 96 301 161 274 104 b 249 50 259 74 253 60 b 222 26 240 30 238 25 b 196 24 213 26 204 25 b 154 3 165 19 154 3 l 138 -22 l 140 8 b 178 131 140 9 144 49 b 228 243 193 166 209 203 b 221 244 226 244 224 244 b 175 249 205 245 190 247 l 164 251 l 130 257 b 109 260 123 258 116 259 b 87 263 102 261 94 262 b 65 263 80 263 72 263 b 43 262 58 263 50 263 b 4 256 30 261 17 259 b -16 238 -3 250 -9 244 b -34 222 -23 232 -28 227 l -34 222 b -44 214 -37 220 -40 217 l -46 213 b -47 212 -46 213 -46 212 b -49 211 -47 212 -48 211 l -49 211 l -49 210 l -52 210 b -54 209 -53 210 -53 210 l -55 209 b -56 209 -55 209 -55 209 l -56 209 b -57 209 -56 209 -56 209 l -57 209 l -57 209 l -61 209 b -66 209 -63 209 -64 209 b -71 210 -68 210 -69 210 b -81 214 -75 211 -78 212 b -87 222 -84 216 -86 219 b -89 230 -88 224 -89 227 b -88 238 -89 233 -89 235 b -84 246 -87 241 -85 244 b -82 249 -83 247 -83 248 l -80 253 b -67 265 -76 257 -72 261 b -55 271 -63 267 -59 269 b -24 282 -45 276 -35 279 l -9 297 l 57 362 b 317 624 143 448 230 536 l 550 860 b 615 876 567 877 592 883 l 615 876 b 620 875 617 875 618 875 b 637 880 626 876 631 878 m 246 280 b 478 707 306 403 384 546 l 353 588 b 86 332 265 502 175 416 b 44 293 72 319 58 306 b 87 295 58 294 72 295 b 180 288 118 294 149 292 l 246 280 "},"5":{"ha":590,"x_min":0,"x_max":0,"o":"m 627 857 b 629 839 632 852 632 845 b 614 820 624 833 619 826 b 594 803 608 814 601 808 b 542 782 581 794 564 787 b 515 777 531 779 523 778 b 490 775 507 776 498 775 b 446 779 475 776 461 777 b 433 781 442 779 437 780 b 427 782 431 781 429 781 b 407 785 420 782 413 783 l 406 785 b 405 785 406 785 405 785 b 402 786 404 785 403 785 b 398 786 401 786 400 786 b 381 788 393 787 387 787 b 315 787 361 788 339 788 l 311 778 b 301 759 308 772 304 766 l 276 715 l 268 699 b 228 627 255 675 241 651 l 200 579 l 197 574 b 353 532 230 580 299 583 b 416 289 411 476 438 372 b 247 50 380 154 287 81 l 244 48 b 162 8 225 32 197 19 l 161 8 b 116 2 144 6 129 4 b 94 0 109 1 101 0 b 23 11 72 0 49 4 l 22 11 b 16 13 20 12 18 12 b -11 25 7 16 -2 20 b -60 62 -29 34 -46 47 b -91 115 -74 78 -84 96 b -100 172 -97 134 -100 153 b -95 227 -100 191 -99 209 b -82 278 -92 244 -87 261 b -72 302 -79 286 -76 294 b -62 326 -69 312 -65 319 b -48 334 -59 331 -53 335 l -38 332 l -42 323 b -43 138 -69 255 -70 188 l -42 137 b -42 135 -42 136 -42 136 b -19 106 -36 124 -28 114 l -19 106 b 70 64 4 84 33 69 b 264 193 160 50 225 126 l 264 193 b 286 231 272 205 279 218 b 303 269 293 243 298 256 b 316 308 308 281 312 295 b 320 323 318 313 319 317 l 320 323 b 307 480 338 385 333 442 b 209 531 286 510 252 528 b 78 474 181 534 136 514 l 77 473 b 68 469 75 472 72 470 l 59 464 l 57 474 b 57 480 57 476 57 478 l 58 481 l 100 558 b 134 618 101 559 115 584 b 245 817 175 691 242 812 l 251 829 b 258 839 253 832 255 836 l 259 843 l 259 846 l 268 851 l 270 850 b 412 879 285 857 353 885 b 498 861 446 877 473 868 b 574 844 523 853 546 846 b 618 858 581 843 594 845 l 623 861 l 627 857 "},"6":{"ha":596,"x_min":0,"x_max":0,"o":"m 558 719 b 558 717 558 718 558 718 l 558 716 b 532 684 556 701 546 689 b 491 694 517 680 502 683 b 482 734 481 705 477 720 l 486 747 b 489 757 487 750 488 754 l 489 757 b 488 785 490 766 490 776 b 480 809 487 794 484 802 b 415 841 479 809 453 846 l 413 841 b 215 692 384 837 338 831 b 110 527 163 634 128 566 b 161 565 125 540 144 555 b 234 597 185 578 208 590 b 277 604 248 601 262 604 b 300 604 284 605 292 605 b 345 596 315 603 330 600 l 350 594 b 356 591 352 593 354 592 b 369 585 361 590 365 588 b 411 549 385 577 400 564 b 435 503 422 535 430 519 b 444 456 440 488 443 472 b 440 372 447 428 445 400 b 420 295 435 346 429 320 b 389 225 412 271 402 248 b 348 161 377 203 363 181 b 237 53 317 119 280 83 b 168 15 216 37 193 25 b 89 -1 143 5 117 -1 b 28 11 69 -1 48 3 b 19 15 26 12 22 13 b 8 21 15 17 11 19 b -24 55 -5 30 -16 42 b -42 94 -32 67 -38 80 b -58 171 -50 119 -55 145 b -60 247 -60 196 -61 222 b -38 397 -58 298 -51 348 b -33 415 -37 403 -35 409 b -28 433 -31 422 -30 428 l -27 435 b -22 451 -25 441 -24 446 b -15 469 -19 458 -17 464 l -15 470 b -8 487 -12 476 -10 481 l -4 496 l 0 504 b 16 537 5 515 10 526 b 93 663 38 581 64 623 b 193 776 122 704 155 742 b 254 823 212 793 232 809 b 288 843 265 830 276 837 b 302 849 292 845 297 847 b 306 851 303 850 304 850 b 312 854 308 852 310 853 b 315 855 313 854 314 855 l 316 856 b 324 859 319 857 321 858 l 333 862 b 339 864 335 863 337 863 b 343 865 340 864 341 865 b 352 868 346 866 349 867 l 353 868 b 361 870 356 869 359 870 b 399 878 374 874 387 876 b 441 880 413 880 427 881 b 484 869 456 879 470 875 b 521 839 498 862 511 852 b 542 800 530 827 537 814 b 553 760 547 787 550 773 b 556 740 554 753 555 746 b 557 729 557 736 557 733 l 558 719 m 95 481 b 38 334 91 478 68 457 b 53 53 -22 93 34 58 l 53 53 b 81 48 62 50 72 49 l 82 48 b 90 48 85 48 87 48 b 102 48 94 48 98 48 l 102 48 b 130 52 111 49 121 50 b 332 325 177 62 270 142 b 301 528 378 459 332 510 l 300 528 b 238 544 286 538 265 543 b 234 545 236 544 235 545 b 106 489 178 545 122 502 b 95 481 102 486 98 484 "},"7":{"ha":488,"x_min":0,"x_max":0,"o":"m 575 835 b 575 824 576 831 575 828 b 573 819 574 823 574 821 b 571 816 573 818 572 817 b 570 814 571 815 571 814 l 570 813 l 565 805 b 560 799 563 803 562 801 b 557 795 559 798 558 796 l 557 795 b 527 767 555 791 547 784 b 227 459 475 722 351 615 b -26 62 129 337 5 126 l -28 60 l -30 59 b -52 52 -38 56 -45 54 b -78 42 -62 49 -71 46 b -107 12 -95 33 -105 22 b -111 6 -108 10 -109 8 l -114 5 l -118 6 l -120 7 b -131 35 -129 13 -133 24 b -95 130 -122 79 -97 126 b -73 175 -88 145 -81 159 b -51 219 -66 190 -58 205 b 54 388 -19 277 16 334 b 115 468 72 413 92 439 b 131 487 120 475 126 482 b 145 504 135 493 140 498 l 147 507 b 183 544 160 521 172 533 b 255 613 206 568 231 590 l 263 620 b 329 678 284 639 307 659 b 371 711 343 690 357 701 b 405 738 382 720 394 729 b 423 752 411 742 416 747 l 423 752 l 476 793 b 305 782 439 784 379 775 b 277 784 295 783 285 783 l 275 784 b 237 788 263 786 250 787 b 198 785 224 788 211 787 b 178 781 192 784 186 782 b 169 778 175 780 172 779 l 168 778 b 159 774 166 777 162 776 b 81 730 131 764 105 749 b 65 729 77 727 70 726 l 65 730 b 62 734 64 731 62 732 l 60 737 l 62 741 b 164 858 80 775 118 835 b 370 870 221 888 317 878 l 370 870 l 383 867 b 426 859 399 863 413 861 b 470 854 441 856 455 855 b 515 858 485 854 500 855 b 525 859 518 858 521 859 l 534 861 b 539 862 535 861 537 861 b 543 862 540 862 541 862 l 544 862 b 546 862 545 862 546 862 b 549 861 547 862 548 862 b 553 860 551 861 552 861 b 560 858 556 860 558 859 b 575 835 568 853 574 844 "},"8":{"ha":524,"x_min":0,"x_max":0,"o":"m 497 752 b 417 555 507 674 480 606 b 295 491 368 514 311 495 l 294 490 l 292 490 l 289 490 b 328 401 301 465 316 433 b 342 363 334 387 338 375 b 348 343 344 357 346 350 b 353 323 350 336 351 330 b 360 280 356 308 358 294 b 360 233 362 264 362 248 b 356 208 359 224 358 216 b 349 185 354 200 352 192 b 330 144 344 171 338 157 b 305 108 323 132 315 119 b 275 77 296 97 286 86 b 241 51 264 67 253 59 b 222 41 235 48 229 44 b 204 32 216 38 210 34 b 124 9 178 20 152 13 b 41 12 97 5 69 6 b 0 26 27 15 13 20 b -38 49 -13 32 -26 40 b -93 120 -61 68 -80 92 b -117 205 -106 147 -114 176 b -112 290 -119 234 -118 262 b -108 311 -111 298 -109 304 b -105 320 -107 314 -106 317 l -105 321 b -102 330 -104 324 -103 327 l -102 331 b -84 373 -97 346 -91 360 b -30 443 -70 399 -52 423 b 39 492 -10 462 14 479 b 114 521 63 504 88 514 b 143 527 124 523 133 525 b 156 530 145 527 149 528 b 128 684 146 555 118 630 b 256 864 149 804 211 844 l 259 865 b 299 876 272 869 285 873 b 341 881 313 879 327 881 b 363 881 348 882 356 882 b 374 880 366 881 370 881 b 384 879 378 880 381 879 l 385 879 b 390 878 387 878 388 878 l 392 877 l 392 877 b 497 752 454 850 489 808 m 119 46 b 253 151 174 51 231 113 b 255 322 286 206 263 293 l 255 322 b 176 496 249 343 203 441 b 135 475 160 489 140 479 b 134 475 135 475 135 475 l 133 474 b 47 397 101 453 72 427 b 36 383 43 392 39 387 b 5 330 24 366 13 349 b 4 327 5 329 5 328 l 4 326 b -22 230 -10 296 -18 263 b 11 76 -29 158 -18 106 b 119 46 35 52 71 42 m 227 701 b 265 540 220 681 207 638 b 272 526 268 535 270 530 b 273 524 273 525 273 524 b 347 556 301 527 326 538 b 421 699 380 587 415 643 b 380 824 424 728 425 798 b 350 832 371 829 361 832 b 316 823 335 832 322 826 l 316 823 b 290 805 307 818 298 812 b 252 757 276 793 264 778 b 238 732 247 749 242 741 b 228 706 234 723 231 715 b 227 701 228 705 227 703 "},"9":{"ha":599,"x_min":0,"x_max":0,"o":"m 525 704 b 524 627 526 678 526 653 b 498 477 521 576 512 526 b 493 459 496 471 495 465 b 486 441 491 453 489 447 l 486 438 b 480 423 484 433 482 428 b 473 405 478 417 475 411 l 472 402 b 465 387 470 397 468 392 l 457 370 b 441 338 452 359 447 348 b 362 213 418 294 391 253 b 262 103 333 173 299 136 b 201 57 243 86 222 71 b 167 39 190 51 179 45 b 154 33 163 37 158 35 b 150 31 153 32 151 32 b 144 28 148 30 146 29 b 141 27 143 28 142 28 l 140 27 b 132 24 138 26 135 25 l 123 21 b 117 19 121 20 119 20 b 114 18 116 19 115 18 b 105 15 111 17 108 16 l 103 15 b 96 13 101 15 98 14 b 59 7 83 10 71 8 b 19 7 45 5 32 5 b -23 20 4 8 -10 13 b -57 51 -36 27 -48 38 b -76 91 -66 63 -72 77 b -85 132 -80 104 -83 118 b -87 152 -86 139 -87 146 b -88 163 -88 156 -88 159 l -89 173 b -89 175 -89 174 -89 174 l -89 176 b -73 201 -87 186 -81 195 b -43 208 -64 207 -54 210 l -43 208 b -19 190 -33 205 -24 199 b -15 156 -12 180 -11 167 l -21 137 b -22 133 -22 136 -22 135 b -22 132 -22 133 -22 133 b -23 103 -24 123 -24 113 b -16 79 -22 95 -20 87 b 45 45 -16 79 8 41 l 46 45 b 243 188 75 48 119 52 b 350 350 295 244 331 311 b 300 315 335 338 316 324 b 228 284 276 302 254 291 b 187 279 215 281 201 279 b 165 280 179 278 172 279 b 143 283 157 280 150 282 b 121 290 136 285 128 287 l 116 292 b 110 295 114 293 112 294 b 99 301 106 297 102 299 b 59 339 83 311 69 324 b 38 387 50 354 42 370 b 31 434 34 402 32 418 b 38 519 30 462 32 491 b 60 595 43 545 51 570 b 92 665 69 619 80 643 b 134 728 105 687 119 708 b 245 834 166 769 203 804 b 313 869 266 848 289 860 b 390 883 337 879 363 883 b 429 876 403 882 416 880 b 448 868 436 874 442 871 b 457 864 451 867 454 866 b 467 857 461 862 464 860 b 497 822 480 848 490 836 b 513 782 504 809 509 796 b 525 704 520 757 524 731 m 167 356 b 227 338 180 346 200 340 b 355 388 281 334 339 375 b 366 396 359 391 362 393 b 426 542 370 399 393 420 l 427 544 b 423 827 492 784 440 821 l 422 827 b 396 833 414 830 405 832 l 395 833 b 387 834 392 833 390 834 b 383 834 386 834 384 834 b 376 834 381 834 378 834 l 376 833 b 349 831 367 833 358 832 b 144 563 303 823 211 745 b 167 356 95 429 137 376 l 167 356 "},"\u0000":{"ha":0,"x_min":0,"x_max":0,"o":""},"\n":{"ha":0,"x_min":0,"x_max":0,"o":""},"\r":{"ha":0,"x_min":0,"x_max":0,"o":""}," ":{"ha":340,"x_min":0,"x_max":0,"o":""},"!":{"ha":553,"x_min":0,"x_max":0,"o":"m 165 87 b 166 72 166 82 166 77 b 161 49 165 64 164 57 b 158 39 160 46 159 42 b 156 36 157 38 157 37 l 156 34 b 152 26 155 31 154 28 b 122 5 146 14 135 6 l 122 5 b 119 4 121 5 120 4 b 93 17 109 4 99 9 b 91 20 92 18 91 19 l 90 21 b 90 22 90 22 90 22 b 88 24 89 23 89 24 b 87 26 88 25 87 25 b 86 26 86 26 86 26 b 83 26 85 26 84 26 b 79 28 82 27 80 27 b 69 33 75 29 72 31 b 58 47 64 37 60 41 l 57 48 b 56 50 57 48 57 49 b 49 67 53 55 51 61 b 47 89 47 74 46 82 b 55 113 48 98 50 106 b 90 142 63 126 75 136 b 116 145 98 145 107 147 b 145 131 127 144 137 139 b 162 103 153 123 159 114 b 165 88 164 98 165 93 m 623 1024 b 635 990 634 1016 638 1003 l 635 990 b 599 882 625 953 613 917 b 553 779 585 847 570 812 b 499 679 537 745 519 711 l 477 642 l 469 631 b 439 584 459 615 449 599 b 346 446 409 537 377 491 b 316 401 336 431 326 416 b 258 310 294 368 275 339 b 210 224 241 282 226 254 l 205 215 b 183 202 201 207 192 202 b 174 203 180 202 177 202 b 158 232 163 207 156 219 b 189 343 165 269 176 307 l 191 349 l 194 356 b 199 370 196 361 198 365 b 207 388 202 376 205 382 b 211 396 208 391 210 394 l 211 397 l 223 422 b 233 444 226 430 230 437 l 235 448 b 345 643 272 520 312 587 b 374 690 355 659 365 675 l 389 714 l 403 737 b 434 788 413 754 424 771 b 459 830 442 802 450 816 b 516 924 477 860 496 892 b 577 1017 535 954 556 986 l 578 1017 b 623 1024 588 1031 608 1035 "},"\"":{"ha":460,"x_min":0,"x_max":0,"o":"m 310 1012 b 322 988 317 1006 321 997 b 324 970 323 982 324 976 b 318 929 323 956 321 943 b 315 919 317 926 316 923 l 315 915 b 314 914 314 915 314 914 l 314 912 l 305 877 b 224 725 275 774 232 732 l 211 714 l 211 734 l 212 736 b 248 889 240 779 247 872 b 235 917 242 898 237 907 b 234 956 232 930 232 943 l 234 958 b 247 998 237 972 241 985 l 247 998 b 258 1011 250 1003 254 1008 b 267 1017 261 1013 264 1015 b 310 1012 281 1024 297 1022 m 457 988 b 458 970 458 982 459 976 l 458 969 b 453 929 458 956 456 943 b 450 919 452 926 451 923 l 449 915 b 449 914 449 915 449 914 l 448 912 l 440 877 b 359 725 410 774 367 732 l 346 714 l 346 734 l 347 736 b 383 889 375 779 382 872 b 370 917 377 898 372 907 b 369 956 367 930 366 943 l 369 958 b 382 998 371 972 376 985 l 382 998 b 393 1011 385 1003 388 1008 b 401 1017 396 1013 398 1015 b 444 1012 415 1024 432 1022 b 457 988 451 1006 456 997 "},"“":{"ha":460,"x_min":0,"x_max":0,"o":"m 310 1012 b 267 1017 297 1022 281 1024 b 258 1011 264 1015 261 1013 b 247 998 254 1008 250 1003 l 247 998 b 234 958 241 985 237 972 l 234 956 b 235 917 232 943 232 930 b 248 889 237 907 242 898 b 212 736 247 872 240 779 l 211 734 l 211 714 l 224 725 b 305 877 232 732 275 774 l 314 912 l 314 914 b 315 915 314 914 314 915 l 315 919 b 318 929 316 923 317 926 b 324 970 321 943 323 956 b 322 988 324 976 323 982 b 310 1012 321 997 317 1006 m 457 988 b 444 1012 456 997 451 1006 b 401 1017 432 1022 415 1024 b 393 1011 398 1015 396 1013 b 382 998 388 1008 385 1003 l 382 998 b 369 958 376 985 371 972 l 369 956 b 370 917 366 943 367 930 b 383 889 372 907 377 898 b 347 736 382 872 375 779 l 346 734 l 346 714 l 359 725 b 440 877 367 732 410 774 l 448 912 l 449 914 b 449 915 449 914 449 915 l 450 919 b 453 929 451 923 452 926 b 458 969 456 943 458 956 l 458 970 b 457 988 459 976 458 982 "},"”":{"ha":460,"x_min":0,"x_max":0,"o":"m 310 1012 b 322 988 317 1006 321 997 b 324 970 323 982 324 976 b 318 929 323 956 321 943 b 315 919 317 926 316 923 l 315 915 b 314 914 314 915 314 914 l 314 912 l 305 877 b 224 725 275 774 232 732 l 211 714 l 211 734 l 212 736 b 248 889 240 779 247 872 b 235 917 242 898 237 907 b 234 956 232 930 232 943 l 234 958 b 247 998 237 972 241 985 l 247 998 b 258 1011 250 1003 254 1008 b 267 1017 261 1013 264 1015 b 310 1012 281 1024 297 1022 m 457 988 b 458 970 458 982 459 976 l 458 969 b 453 929 458 956 456 943 b 450 919 452 926 451 923 l 449 915 b 449 914 449 915 449 914 l 448 912 l 440 877 b 359 725 410 774 367 732 l 346 714 l 346 734 l 347 736 b 383 889 375 779 382 872 b 370 917 377 898 372 907 b 369 956 367 930 366 943 l 369 958 b 382 998 371 972 376 985 l 382 998 b 393 1011 385 1003 388 1008 b 401 1017 396 1013 398 1015 b 444 1012 415 1024 432 1022 b 457 988 451 1006 456 997 "},"#":{"ha":754,"x_min":0,"x_max":0,"o":"m 563 652 l 686 652 l 684 643 b 580 555 676 592 631 555 l 511 555 l 430 401 l 553 401 l 551 392 b 446 304 542 341 498 304 l 378 304 l 279 108 b 149 17 254 58 205 23 l 135 15 l 285 304 l 139 304 l 26 91 b -94 15 2 46 -43 18 b -100 15 -96 15 -98 15 l -112 15 l 37 304 l -82 304 l -81 313 b 24 401 -72 364 -28 401 l 89 401 l 167 555 l 47 555 l 49 564 b 154 652 58 615 102 652 l 218 652 l 318 845 b 449 936 344 895 393 929 l 463 937 l 457 925 b 317 651 424 859 340 695 l 464 651 l 572 861 b 688 937 594 906 638 935 b 693 937 690 937 692 937 l 708 937 m 267 555 l 186 401 l 334 401 l 413 555 "},"$":{"ha":571,"x_min":0,"x_max":0,"o":"m 539 801 b 540 748 544 786 544 768 b 522 695 536 730 530 712 l 508 700 b 516 749 512 716 515 733 b 508 790 516 766 513 779 b 481 815 502 801 493 810 b 469 819 477 817 473 818 l 335 563 b 442 383 354 543 433 454 b 416 250 447 350 448 316 b 349 170 398 216 370 189 l 344 166 l 324 149 b 295 128 315 141 305 134 l 295 128 b 214 89 270 112 242 99 b 128 68 186 79 158 72 b 74 66 110 66 92 65 l 53 25 l -43 -16 l 6 79 b -31 98 -7 83 -20 90 b -77 145 -49 110 -65 126 b -98 203 -88 163 -95 182 b -97 264 -101 223 -101 244 b -35 378 -89 305 -67 345 b 87 443 -1 411 41 434 l 91 428 b 34 402 71 422 52 413 b -10 362 17 391 2 377 b -49 266 -33 335 -47 301 b -23 180 -51 234 -42 203 b 14 150 -13 168 0 158 b 38 140 22 146 30 142 l 231 506 b 181 567 213 525 195 545 b 161 614 172 581 165 597 b 162 668 157 632 158 650 b 181 721 166 686 172 704 b 217 770 191 739 203 755 b 324 843 245 801 282 826 b 388 862 345 852 366 858 b 419 866 398 864 409 865 l 443 912 l 515 926 l 522 920 l 519 915 l 488 856 b 508 845 495 853 502 850 b 539 801 523 835 534 819 m 255 644 b 273 619 260 635 266 626 b 284 608 277 615 280 612 l 392 814 b 345 795 376 810 360 803 b 305 767 330 787 317 778 b 274 735 293 758 283 747 b 250 668 259 714 251 691 b 249 665 249 667 249 666 b 249 664 249 665 249 664 l 250 658 l 251 655 b 255 644 252 651 253 647 m 112 138 b 183 159 137 142 160 149 b 281 230 222 176 256 201 b 311 277 293 244 303 260 b 328 325 319 292 325 308 b 326 372 330 341 330 357 b 308 414 322 387 316 401 b 278 455 299 429 289 442 "},"%":{"ha":818,"x_min":0,"x_max":0,"o":"m 738 882 l 113 171 b 3 122 85 140 45 122 l -14 122 l 488 692 b 450 675 476 686 463 681 b 389 653 428 666 408 659 b 353 643 376 649 364 646 b 309 574 340 619 326 596 b 222 478 284 539 255 506 b 167 439 206 463 187 450 b 111 423 147 429 129 424 b 103 423 108 423 106 423 b 18 465 57 423 31 446 b 16 468 17 466 17 467 l 15 469 b 6 584 -2 498 -5 537 b 84 743 18 631 44 685 b 237 882 127 806 181 855 b 372 890 289 907 338 910 l 372 890 l 373 890 b 378 884 375 888 376 886 b 403 811 395 867 403 842 b 395 752 402 791 400 771 b 376 692 390 731 384 712 b 373 684 375 690 374 687 b 375 685 373 684 374 685 b 434 705 394 690 413 697 b 542 754 471 719 507 736 l 612 833 b 721 882 639 864 679 882 l 721 882 m 207 770 b 176 727 196 756 186 742 b 122 633 156 697 138 666 b 94 560 111 610 102 585 b 85 500 89 541 85 521 b 85 495 85 499 85 497 b 98 484 86 488 92 483 b 99 484 99 484 99 484 b 127 492 109 485 118 487 b 163 517 140 499 152 507 b 231 593 188 539 211 565 b 264 643 243 609 254 626 b 261 644 263 643 262 643 b 238 656 253 647 245 651 b 219 677 231 662 224 669 b 209 699 214 684 211 691 b 204 739 205 712 203 726 b 207 770 204 749 205 760 m 258 683 b 281 674 265 678 273 675 b 289 689 284 679 287 684 b 322 769 302 715 313 742 b 334 832 330 794 334 815 l 334 832 b 317 849 333 842 326 849 l 317 849 b 311 849 315 849 313 849 b 280 837 302 848 291 844 b 275 834 278 836 277 835 b 266 816 272 829 269 823 b 255 789 262 807 258 798 b 243 731 249 770 244 751 b 245 703 242 722 243 712 b 258 683 247 695 252 688 m 713 561 b 737 488 729 543 737 519 l 737 488 b 730 429 737 468 735 448 b 711 370 725 409 719 389 b 644 251 694 328 671 288 b 557 155 619 216 590 184 b 502 117 540 140 522 127 b 446 100 482 106 464 101 b 438 100 443 100 440 100 b 433 100 436 100 435 100 b 339 181 387 102 349 135 b 336 214 337 192 336 203 b 403 401 336 272 359 335 b 558 551 451 474 504 524 b 695 571 603 573 649 580 b 713 562 702 570 708 567 m 519 417 b 511 405 516 413 514 409 b 457 310 490 375 473 343 b 429 238 446 287 436 263 b 420 177 423 218 420 198 b 420 173 420 176 420 174 b 433 161 421 166 426 160 l 434 161 b 462 169 444 162 453 165 b 498 194 475 176 487 184 b 566 270 523 217 546 242 b 624 366 588 300 607 332 b 657 446 637 392 648 419 b 668 509 665 471 668 492 b 666 523 669 514 668 518 b 663 521 665 522 664 521 b 659 519 662 520 661 519 l 649 512 b 610 482 635 503 622 493 b 606 479 609 481 608 480 b 601 474 605 477 603 476 l 588 461 l 575 447 b 565 435 572 443 569 439 b 560 428 564 433 562 431 l 544 408 b 526 406 539 403 532 402 b 519 417 522 408 520 413 "},"&":{"ha":1294,"x_min":0,"x_max":0,"o":"m 1247 242 b 1189 131 1252 210 1231 168 b 958 19 1153 98 1084 53 b 841 3 920 9 880 4 l 841 3 b 646 65 768 3 702 24 b 517 226 575 116 536 184 b 404 143 483 194 445 166 b 234 97 352 113 294 97 l 233 97 b 91 150 175 97 128 115 b 50 290 54 186 40 233 b 168 482 64 373 104 438 b 365 585 229 525 295 559 l 406 599 b 434 608 416 602 425 605 b 434 636 434 618 434 627 b 439 676 435 650 437 663 b 446 705 441 686 443 696 b 455 735 448 715 451 725 b 537 869 473 785 501 831 b 680 933 576 912 624 933 b 770 894 720 933 750 920 b 789 798 790 869 796 837 b 712 673 780 748 754 706 b 584 598 673 643 630 618 b 531 577 566 590 548 583 b 495 564 518 572 506 568 b 502 513 496 546 498 529 b 522 429 507 486 514 458 l 522 428 b 525 416 523 424 524 420 b 529 400 527 411 528 406 b 544 346 534 381 539 363 l 545 344 l 547 336 b 551 340 548 337 550 339 b 581 372 560 350 570 360 b 594 386 586 376 590 381 b 609 401 599 391 604 396 b 678 477 632 427 655 452 b 736 543 700 502 719 524 b 766 577 745 554 755 565 b 802 615 777 590 789 603 b 899 697 832 645 865 672 b 1008 743 936 723 972 739 b 1019 745 1011 745 1015 745 l 1027 745 b 1078 726 1048 745 1065 739 l 1079 726 b 1094 670 1093 712 1098 693 b 1068 623 1091 650 1082 634 b 1017 605 1054 611 1035 605 b 978 622 997 605 985 614 b 963 645 972 628 967 636 b 960 652 962 647 961 649 l 960 654 b 959 656 959 654 959 655 b 928 640 954 654 945 650 b 865 591 905 625 884 609 l 864 591 b 833 562 854 581 843 572 b 804 531 823 552 813 542 l 804 531 l 793 520 b 783 508 790 516 786 512 b 745 466 770 493 757 479 b 707 424 733 453 720 439 b 631 342 683 397 657 369 b 566 273 608 318 586 295 b 744 62 581 228 642 107 b 923 62 799 39 859 38 b 1182 262 1003 92 1091 159 b 1225 274 1200 282 1216 278 b 1247 242 1231 271 1244 263 m 499 287 b 493 305 497 293 495 299 b 485 333 490 314 487 323 b 471 386 481 350 476 368 b 470 391 471 387 470 389 b 468 397 469 393 468 395 l 467 398 b 458 443 464 413 461 429 l 458 444 b 450 483 456 458 453 470 b 439 543 446 502 442 523 b 271 442 379 517 322 483 b 162 255 212 395 175 332 b 172 179 156 224 160 199 b 229 153 180 167 193 153 b 376 194 279 153 328 167 b 499 287 421 219 462 250 m 493 634 b 492 627 492 632 492 629 b 504 630 496 628 500 629 b 547 646 518 635 532 640 b 667 710 590 662 630 684 b 732 814 703 734 724 769 b 724 861 736 833 733 849 b 687 876 722 864 714 876 b 586 832 650 876 616 861 l 586 832 b 515 731 556 803 532 769 b 505 703 512 722 508 713 b 499 677 503 695 501 686 l 495 656 b 493 637 494 650 493 643 l 493 634 "},"'":{"ha":215,"x_min":0,"x_max":0,"o":"m 173 669 b 174 651 174 663 174 657 l 174 651 b 168 611 173 637 171 624 b 166 600 167 607 167 604 l 165 597 b 165 595 165 596 165 596 l 164 593 l 155 558 b 74 406 125 455 83 413 l 62 395 l 62 415 l 63 417 b 98 570 90 460 97 553 b 86 599 92 579 88 588 b 85 638 82 611 82 625 l 85 640 b 97 679 87 653 91 667 l 98 679 b 109 693 100 685 104 689 b 117 698 111 695 114 696 b 160 693 131 705 148 703 b 173 669 167 687 172 678 "},"‘":{"ha":215,"x_min":0,"x_max":0,"o":"m 173 669 b 160 693 172 678 167 687 b 117 698 148 703 131 705 b 109 693 114 696 111 695 b 98 679 104 689 100 685 l 97 679 b 85 640 91 667 87 653 l 85 638 b 86 599 82 625 82 611 b 98 570 88 588 92 579 b 63 417 97 553 90 460 l 62 415 l 62 395 l 74 406 b 155 558 83 413 125 455 l 164 593 l 165 595 b 165 597 165 596 165 596 l 166 600 b 168 611 167 604 167 607 b 174 651 171 624 173 637 l 174 651 b 173 669 174 657 174 663 "},"’":{"ha":215,"x_min":0,"x_max":0,"o":"m 173 669 b 174 651 174 663 174 657 l 174 651 b 168 611 173 637 171 624 b 166 600 167 607 167 604 l 165 597 b 165 595 165 596 165 596 l 164 593 l 155 558 b 74 406 125 455 83 413 l 62 395 l 62 415 l 63 417 b 98 570 90 460 97 553 b 86 599 92 579 88 588 b 85 638 82 611 82 625 l 85 640 b 97 679 87 653 91 667 l 98 679 b 109 693 100 685 104 689 b 117 698 111 695 114 696 b 160 693 131 705 148 703 b 173 669 167 687 172 678 "},"(":{"ha":590,"x_min":0,"x_max":0,"o":"m 543 1054 b 539 1042 543 1050 542 1045 l 539 1042 b 526 1033 535 1038 531 1035 b 496 1017 520 1030 510 1025 b 448 986 479 1008 463 997 b 400 948 432 974 416 962 b 196 709 326 886 257 805 b 76 411 135 613 94 513 b 67 321 71 381 68 351 b 72 234 66 292 68 263 b 93 152 77 202 84 175 b 122 96 101 133 111 114 l 123 96 b 146 62 130 84 138 73 b 164 35 158 49 163 42 b 161 24 164 31 163 27 l 160 22 l 160 22 b 149 18 157 19 153 18 b 147 18 148 18 148 18 b 115 35 137 18 127 25 b 76 79 105 44 93 58 b 39 134 63 96 50 115 b 11 185 28 151 19 169 l 11 186 b -9 244 3 205 -4 224 b -21 306 -14 263 -18 284 l -21 307 b -26 354 -23 322 -25 338 b -25 403 -27 370 -27 387 b 114 756 -19 523 28 642 b 446 1050 199 869 311 967 l 447 1050 l 449 1051 b 452 1052 450 1051 451 1052 b 453 1054 452 1053 453 1053 l 455 1056 l 457 1057 b 488 1073 468 1063 478 1068 b 512 1081 502 1080 507 1081 l 512 1081 b 533 1073 520 1081 527 1078 l 533 1073 b 542 1056 538 1068 541 1063 l 543 1054 "},")":{"ha":643,"x_min":0,"x_max":0,"o":"m 616 744 b 615 695 617 728 616 711 b 476 343 609 575 562 456 b 143 50 390 231 278 132 l 143 49 l 141 49 b 138 47 140 48 139 48 b 136 46 137 47 137 46 l 135 44 l 133 43 b 102 26 122 36 111 31 b 78 18 87 19 82 18 l 77 18 b 47 42 63 19 51 29 l 47 43 l 47 45 b 51 57 46 50 47 54 l 51 57 b 64 66 55 61 59 64 b 94 83 69 69 78 74 b 141 113 110 92 126 102 b 190 151 157 125 173 138 b 394 390 264 214 332 294 b 514 687 455 485 495 586 b 522 777 519 717 522 747 b 517 865 523 807 522 836 b 496 947 513 897 505 925 b 468 1003 488 966 479 985 b 443 1037 461 1015 452 1027 b 426 1064 432 1051 427 1058 b 433 1079 425 1070 427 1076 b 442 1081 436 1081 439 1081 b 474 1064 452 1081 462 1075 b 513 1021 484 1056 497 1042 b 551 965 527 1003 539 985 l 551 965 b 578 914 561 948 570 931 l 578 914 b 598 855 587 895 593 875 b 610 794 603 835 607 815 l 611 793 b 611 792 611 793 611 792 b 616 744 613 776 615 760 "},"*":{"ha":447,"x_min":0,"x_max":0,"o":"m 400 966 b 400 956 400 962 401 959 b 387 931 399 946 394 937 b 358 917 381 925 371 921 b 313 908 347 915 331 911 b 272 899 301 905 288 902 b 320 863 289 887 306 875 b 355 817 343 846 358 832 b 342 791 353 807 349 798 b 312 779 334 783 323 779 b 272 810 295 779 282 796 b 237 856 266 820 254 835 b 211 759 225 802 217 771 b 177 732 202 741 191 732 b 176 732 177 732 176 732 b 148 747 165 732 154 737 b 143 774 143 755 141 764 b 152 804 145 784 148 794 b 168 841 157 816 163 828 l 169 843 b 171 845 170 844 170 845 b 171 846 171 846 171 846 l 171 848 l 172 850 b 174 855 173 852 174 853 b 163 849 171 853 167 851 l 162 849 b 157 847 161 848 159 848 l 157 847 l 155 846 b 113 826 140 838 125 832 b 80 815 93 817 85 815 l 56 815 l 58 825 b 52 833 56 828 54 830 b 47 854 49 839 47 847 l 47 855 l 47 857 l 47 860 b 56 876 48 866 51 872 b 73 887 60 881 67 885 b 121 903 84 892 100 898 b 172 917 135 907 152 911 b 124 953 150 934 134 946 b 96 987 108 965 99 977 b 94 999 94 991 94 995 l 95 1002 b 107 1025 97 1011 101 1019 b 131 1035 113 1031 122 1035 b 140 1035 134 1035 137 1035 b 150 1031 143 1034 147 1033 b 181 999 160 1026 170 1016 b 210 959 187 990 197 976 l 228 1037 b 241 1065 231 1050 235 1059 b 268 1076 248 1072 258 1077 b 300 1062 286 1076 295 1069 b 308 1035 307 1055 309 1044 b 292 1000 307 1030 304 1022 b 270 956 287 991 280 976 b 274 958 271 957 273 957 l 277 959 b 278 960 277 959 278 959 b 287 964 281 961 284 963 b 330 985 302 971 317 979 b 366 997 351 996 360 997 b 387 988 374 997 381 994 b 398 972 392 984 396 978 l 398 972 b 400 966 399 970 399 968 "},"+":{"ha":586,"x_min":0,"x_max":0,"o":"m 388 316 l 383 305 b 293 246 368 270 332 246 l 220 246 l 183 163 b 94 105 168 128 133 105 l 83 105 l 145 246 l 7 246 l 12 257 b 102 316 28 293 63 316 l 175 316 l 212 399 b 301 457 227 435 262 457 l 312 457 l 250 316 "},",":{"ha":217,"x_min":0,"x_max":0,"o":"m 219 76 l 217 65 b 211 46 216 59 214 52 b 202 27 208 39 205 33 l 201 25 b 149 -30 186 5 169 -14 b 80 -77 128 -48 105 -64 b 33 -98 65 -85 49 -92 b -10 -107 16 -104 2 -107 b -11 -107 -10 -107 -10 -107 b -27 -102 -17 -107 -22 -105 b -37 -80 -34 -97 -38 -88 b -30 -68 -36 -75 -34 -71 l -30 -68 b -23 -63 -28 -66 -25 -64 l -21 -63 b -10 -59 -19 -62 -15 -61 b 9 -53 -6 -58 0 -56 b 75 -18 40 -42 63 -30 b 100 30 87 -6 95 10 b 126 94 108 60 116 81 b 172 116 137 108 154 117 b 205 105 185 116 196 112 b 218 76 214 97 219 87 "},"-":{"ha":515,"x_min":0,"x_max":0,"o":"m 353 306 l 348 295 b 247 231 329 256 290 231 l 47 231 l 52 242 b 153 306 71 281 110 306 "},".":{"ha":308,"x_min":0,"x_max":0,"o":"m 96 102 b 107 64 106 92 109 79 b 87 21 103 46 97 32 b 40 4 76 10 60 4 b 6 17 26 4 14 9 b -3 58 -6 30 -5 47 b 15 98 -1 73 5 87 b 59 117 25 111 40 117 l 60 117 b 96 102 76 116 88 111 "},"/":{"ha":714,"x_min":0,"x_max":0,"o":"m 668 934 l 126 7 l 47 7 l 588 934 "},":":{"ha":210,"x_min":0,"x_max":0,"o":"m -19 214 b 3 178 -8 205 0 193 b -3 134 6 160 4 145 b -45 116 -10 122 -25 116 b -46 116 -46 116 -46 116 b -82 128 -59 116 -72 120 b -104 167 -98 139 -102 156 b -100 208 -107 183 -105 197 b -60 229 -95 218 -85 229 l -59 229 b -19 214 -45 228 -31 223 m 99 404 b 94 359 102 386 100 371 b 51 340 86 347 72 340 l 51 340 b 13 354 37 340 24 345 b -8 393 2 363 -5 375 b -3 433 -10 409 -9 422 b 21 451 0 440 7 448 l 20 455 l 37 454 b 77 440 52 453 66 448 b 99 404 89 431 97 418 "},";":{"ha":254,"x_min":0,"x_max":0,"o":"m 143 404 b 138 359 146 386 145 371 b 95 340 131 347 116 340 l 95 340 b 57 354 81 340 68 345 b 36 393 46 363 40 375 b 41 433 34 409 35 422 b 65 452 44 440 51 448 l 64 455 l 81 454 b 121 440 96 453 110 448 b 143 404 133 431 141 418 m 47 180 b 47 159 48 173 48 166 l 47 159 b 45 140 47 153 46 147 l 44 139 b 11 82 38 120 27 101 b -42 35 -4 64 -22 48 b -82 13 -55 26 -68 19 b -123 4 -95 8 -109 5 l -123 4 b -141 9 -129 4 -135 6 b -156 29 -148 13 -154 20 b -153 43 -157 33 -156 39 l -153 43 b -146 48 -151 45 -149 47 l -145 49 b -134 52 -142 50 -139 51 b -118 58 -129 54 -123 56 b -65 92 -84 72 -70 84 b -57 139 -58 103 -55 119 b -53 204 -60 170 -59 190 b -13 228 -48 215 -38 228 b 23 216 0 228 13 224 b 46 181 35 208 44 195 "},"<":{"ha":513,"x_min":0,"x_max":0,"o":"m 418 532 l 148 414 l 376 296 l 364 228 l 47 391 l 56 447 l 431 610 "},"=":{"ha":507,"x_min":0,"x_max":0,"o":"m 24 180 b 114 239 40 216 75 239 l 400 239 l 395 229 b 305 170 380 193 344 170 l 19 170 l 24 180 m 454 362 l 449 352 b 359 293 434 316 398 293 l 73 293 l 78 303 b 168 362 94 339 129 362 "},">":{"ha":376,"x_min":0,"x_max":0,"o":"m 329 442 l 319 386 l -56 223 l -42 301 l 227 419 l 0 537 l 11 605 "},"?":{"ha":686,"x_min":0,"x_max":0,"o":"m 165 80 b 166 64 166 74 166 69 b 161 41 165 56 164 49 b 158 31 160 38 159 34 b 156 28 157 30 157 29 l 156 26 b 152 18 155 23 154 20 b 122 -3 146 6 135 -2 l 122 -3 b 119 -3 121 -3 120 -3 b 93 10 109 -4 99 1 b 91 13 92 11 91 11 l 90 13 b 90 15 90 14 90 14 b 88 16 89 15 89 16 b 87 18 88 17 87 17 b 86 18 86 18 86 18 b 83 18 85 18 84 18 b 79 20 82 19 80 19 b 69 25 75 21 72 23 b 58 39 64 29 60 33 l 57 40 b 56 42 57 40 57 41 b 49 59 53 47 51 53 b 47 81 47 66 46 74 b 55 105 48 90 50 98 b 90 134 63 118 75 128 b 116 137 98 137 107 139 b 145 123 127 136 137 131 b 162 95 153 115 158 106 b 165 80 164 90 165 85 m 639 833 b 639 818 639 828 639 823 l 639 818 b 638 813 639 816 638 815 b 637 802 638 810 638 806 b 599 694 632 766 620 730 b 569 648 590 678 580 663 b 538 609 559 634 547 620 b 470 535 518 585 496 561 b 434 500 457 522 445 510 b 397 468 423 490 410 479 b 320 407 371 446 345 426 l 282 378 b 246 350 270 369 258 359 b 186 289 227 334 203 313 b 156 215 169 268 159 242 l 156 215 b 131 193 154 203 144 193 l 131 193 b 106 216 118 193 107 203 b 105 243 105 225 104 234 b 108 271 105 253 106 262 b 126 325 112 290 118 308 b 140 349 130 333 135 341 b 155 371 144 356 150 363 b 189 410 166 384 177 398 b 258 478 212 434 235 456 l 259 479 b 328 544 282 499 305 521 b 451 679 372 586 413 631 b 479 715 460 689 468 700 b 502 750 487 727 495 738 b 530 820 516 774 526 798 b 533 853 533 831 534 842 b 531 870 533 859 532 864 b 527 886 530 875 529 880 b 487 943 519 908 505 928 b 455 966 477 952 466 960 b 417 982 443 972 430 978 b 337 991 392 991 364 994 b 318 987 331 990 325 989 b 300 981 312 986 306 984 l 296 980 l 292 977 b 282 972 289 976 286 974 b 265 961 277 969 271 965 b 211 900 243 945 224 924 b 186 820 197 875 189 848 b 188 778 185 806 186 792 b 200 742 189 766 194 753 b 192 708 207 730 203 715 b 157 716 180 701 164 704 b 144 742 152 724 148 733 b 137 769 141 751 139 760 b 133 823 133 787 132 805 b 160 926 135 859 144 894 b 227 1011 176 959 199 988 b 249 1027 234 1016 241 1022 b 260 1034 252 1029 256 1031 l 266 1037 l 273 1041 b 300 1052 281 1045 290 1049 b 327 1059 309 1055 318 1057 b 355 1062 336 1060 345 1061 b 382 1063 364 1063 373 1063 b 410 1061 391 1062 400 1062 b 437 1056 420 1059 429 1058 b 489 1040 455 1052 472 1047 b 539 1013 507 1033 524 1024 b 562 996 547 1008 555 1002 b 584 975 570 989 577 983 b 637 865 612 945 631 906 l 638 857 b 638 851 638 855 638 853 b 639 849 638 851 638 850 b 639 837 639 845 639 841 "},"@":{"ha":782,"x_min":0,"x_max":0,"o":"m 724 806 b 714 522 760 730 756 634 b 696 480 709 508 703 494 b 674 437 690 466 682 451 b 555 281 642 380 602 327 b 406 206 506 231 456 206 b 349 229 381 206 362 214 b 330 268 340 240 333 254 b 320 260 327 265 324 263 b 268 224 304 246 287 235 b 207 207 250 214 228 208 b 158 223 187 207 171 213 b 132 264 145 234 136 248 b 153 394 125 295 131 337 b 183 455 161 415 171 435 b 230 529 196 479 212 504 b 339 647 262 573 298 612 b 470 703 382 685 426 703 b 527 676 503 703 519 689 l 538 695 l 626 695 l 425 341 b 416 325 421 334 418 329 b 409 312 413 320 411 316 l 406 304 l 406 303 l 406 301 b 407 275 403 291 404 282 b 415 271 409 272 410 271 b 534 342 454 271 494 295 b 639 507 576 392 612 447 b 649 531 643 516 646 524 b 659 555 653 539 656 547 b 680 644 670 584 677 614 b 650 801 686 701 676 754 b 516 865 626 844 582 865 b 267 753 433 865 349 827 b 66 444 183 678 115 574 b 43 175 27 339 19 248 b 206 73 65 107 119 73 b 303 87 242 73 274 78 b 389 121 332 97 361 108 b 401 127 393 123 397 125 l 434 142 l 450 87 l 443 80 b 434 74 440 78 437 76 b 431 73 433 74 432 74 l 430 73 b 318 26 394 56 356 40 b 202 4 281 12 242 5 b -11 108 98 4 26 39 b -53 318 -46 171 -60 242 b -42 389 -51 341 -47 365 b -21 455 -36 411 -30 434 b 214 797 32 596 111 711 b 519 928 318 884 420 928 b 724 806 617 928 686 887 m 226 288 b 250 296 228 288 235 288 b 289 323 264 304 277 313 b 377 418 316 345 345 377 b 465 568 409 460 438 510 l 465 569 b 474 619 476 598 475 613 l 473 619 b 473 620 473 619 473 620 b 454 623 473 620 469 623 l 449 623 b 346 558 421 620 387 598 b 242 418 305 517 270 470 b 231 395 239 411 235 403 b 221 372 227 387 224 379 b 207 297 201 319 205 301 b 226 288 208 293 210 288 "},"A":{"ha":1396,"x_min":0,"x_max":0,"o":"m 1601 1308 b 1607 1295 1605 1305 1608 1300 b 1606 1269 1607 1286 1607 1278 b 1604 1245 1606 1261 1605 1253 l 1604 1244 b 1597 1193 1602 1227 1600 1210 b 1587 1143 1594 1176 1591 1159 b 1582 1122 1586 1136 1584 1129 l 1582 1118 b 1577 1101 1580 1112 1579 1107 b 1575 1093 1577 1099 1576 1096 b 1512 900 1558 1028 1537 963 b 1428 715 1487 837 1459 775 b 1379 626 1412 685 1396 655 l 1375 618 b 1354 582 1368 606 1361 594 b 1327 539 1346 570 1337 554 b 1276 455 1312 514 1294 485 l 1226 371 l 1181 297 b 1237 298 1200 297 1219 297 b 1337 310 1270 299 1304 303 b 1385 324 1353 313 1369 318 b 1405 335 1392 327 1399 331 b 1416 349 1411 340 1415 345 l 1416 350 b 1429 357 1418 355 1423 358 b 1436 345 1434 355 1438 350 b 1429 329 1435 339 1433 333 b 1418 318 1425 325 1422 321 b 1393 304 1410 312 1402 308 b 1342 287 1377 297 1360 291 b 1238 272 1308 279 1273 274 b 1164 270 1215 270 1190 270 b 1125 203 1151 248 1138 226 b 1032 32 1093 149 1060 91 b 996 -58 1018 2 1006 -27 b 983 -104 991 -73 986 -88 b 978 -132 981 -113 979 -123 b 1000 -142 985 -135 993 -138 b 1024 -156 1009 -146 1017 -151 b 1036 -167 1029 -160 1033 -163 b 1046 -184 1041 -172 1044 -177 b 1046 -207 1049 -191 1049 -200 b 1040 -218 1045 -211 1043 -215 b 1032 -224 1037 -220 1035 -222 b 1024 -228 1029 -225 1027 -227 b 1021 -229 1023 -228 1022 -228 l 1018 -230 b 1005 -234 1013 -231 1009 -233 b 995 -235 1001 -234 998 -235 b 972 -228 987 -235 979 -232 l 972 -228 b 951 -204 963 -222 956 -214 b 942 -177 947 -196 944 -186 b 939 -164 941 -173 940 -169 l 938 -164 b 892 -153 925 -160 910 -157 b 796 -143 860 -148 828 -144 b 602 -158 731 -141 666 -146 b 506 -179 571 -164 538 -171 b 409 -203 470 -189 438 -197 b 210 -229 343 -217 277 -226 b 9 -217 136 -232 70 -229 b -89 -190 -24 -211 -57 -202 b -178 -139 -125 -176 -154 -159 b -212 -99 -191 -127 -203 -114 b -229 -47 -221 -83 -227 -65 b -222 7 -231 -29 -228 -11 b -199 54 -217 23 -209 39 b -183 57 -195 59 -188 61 b -178 43 -178 54 -177 48 l -178 43 l -180 41 b -201 -1 -189 28 -196 14 b -207 -45 -206 -15 -208 -30 b -193 -87 -205 -60 -200 -74 b -163 -122 -185 -100 -175 -112 b -81 -170 -142 -141 -115 -157 b 13 -195 -50 -181 -19 -190 b 209 -206 73 -206 137 -210 b 403 -178 274 -202 339 -192 b 498 -152 434 -171 465 -162 b 596 -128 531 -143 564 -134 b 797 -104 668 -113 734 -105 b 899 -112 831 -104 865 -106 b 937 -119 912 -113 924 -116 b 938 -97 937 -112 937 -105 b 941 -71 939 -89 940 -80 b 945 -45 942 -62 943 -54 b 967 55 950 -14 957 19 b 1033 248 985 121 1007 185 b 1044 275 1036 257 1040 265 b 1030 276 1039 275 1034 276 b 927 290 995 280 961 284 l 898 294 b 876 297 891 295 883 296 b 851 300 867 299 859 300 l 838 302 b 829 303 835 302 832 302 l 826 303 b 781 305 811 304 796 305 b 655 195 739 266 697 228 b 482 76 594 146 537 107 b 435 51 465 66 448 57 b 387 29 421 44 404 36 b 283 2 348 14 315 6 b 255 1 274 1 264 1 b 253 1 254 1 254 1 b 248 1 251 1 250 1 b 240 2 246 1 243 1 b 225 6 235 2 230 4 b 199 27 214 10 205 17 b 193 42 196 31 194 37 b 192 58 192 47 191 52 b 198 86 192 68 194 77 b 211 111 202 95 206 103 b 244 154 221 126 232 141 b 322 227 267 181 294 205 b 344 242 330 233 337 238 b 366 257 351 247 359 252 b 414 282 382 266 397 275 b 618 340 475 311 544 331 b 724 346 654 344 689 346 b 738 345 728 346 733 346 b 769 376 748 356 759 366 l 787 394 l 805 412 b 838 446 816 423 827 435 l 841 449 b 870 479 851 459 860 469 b 912 523 884 494 898 508 b 937 549 920 532 929 540 b 983 598 952 565 968 582 l 1053 673 b 1326 982 1154 783 1243 884 b 1457 1141 1374 1039 1421 1096 l 1489 1181 b 1515 1215 1498 1192 1506 1203 l 1520 1222 b 1581 1304 1544 1253 1564 1280 b 1601 1308 1585 1311 1595 1313 l 1601 1308 m 1546 1207 b 1550 1215 1548 1209 1549 1212 l 1480 1123 b 1464 1102 1475 1116 1469 1109 b 1417 1041 1449 1082 1433 1061 l 1385 1000 l 1354 959 b 1092 638 1256 835 1173 733 l 1024 561 b 979 511 1009 544 994 527 b 954 484 971 502 962 493 b 948 477 952 482 950 479 b 937 465 944 473 940 469 l 879 405 b 847 371 869 393 858 382 l 829 352 l 817 340 b 829 339 821 340 825 340 b 834 339 831 339 832 339 b 842 338 837 338 840 338 l 855 336 b 878 332 863 335 870 334 l 881 332 b 904 328 889 331 896 329 l 932 323 b 1033 307 966 316 1000 311 b 1057 304 1041 306 1048 305 b 1120 432 1076 348 1097 390 b 1171 519 1136 461 1154 490 b 1224 604 1188 548 1206 576 l 1251 646 b 1267 671 1257 654 1262 662 b 1278 687 1271 676 1274 681 b 1290 707 1282 693 1286 700 l 1303 728 l 1332 775 b 1377 854 1347 801 1363 828 b 1424 940 1395 885 1412 917 b 1468 1027 1438 966 1452 995 b 1489 1071 1475 1042 1482 1057 b 1509 1116 1496 1087 1503 1102 b 1528 1161 1515 1131 1522 1146 b 1537 1184 1531 1168 1534 1176 b 1546 1207 1541 1191 1544 1199 m 254 31 b 278 34 262 32 270 33 b 372 64 307 39 338 48 b 416 87 388 72 404 80 b 459 113 429 94 444 103 b 541 172 486 131 513 150 b 620 237 565 190 590 211 b 694 304 645 259 670 281 b 624 296 671 302 648 300 b 434 239 559 286 495 267 b 391 216 419 232 405 224 b 373 205 385 212 379 208 l 348 189 b 306 161 332 179 319 170 b 266 131 290 149 277 140 b 232 96 254 121 242 109 b 219 77 227 90 222 84 b 212 56 215 70 213 63 b 213 47 212 53 212 50 b 217 40 214 44 215 42 b 232 32 221 36 226 33 l 233 32 b 243 31 236 31 240 31 b 248 31 245 31 247 31 b 252 31 250 31 251 31 m 1002 -214 b 1010 -212 1005 -214 1007 -213 b 1011 -211 1010 -211 1011 -211 b 1013 -209 1012 -210 1013 -210 b 1015 -207 1014 -208 1015 -208 l 1016 -206 b 1016 -205 1016 -206 1016 -206 b 1014 -203 1015 -204 1014 -203 l 1013 -202 b 1010 -199 1012 -201 1011 -200 b 1007 -197 1009 -198 1008 -198 b 999 -191 1004 -194 1002 -192 b 981 -180 994 -187 988 -183 l 981 -180 b 975 -177 979 -179 977 -178 b 978 -193 976 -183 977 -188 b 987 -209 980 -199 983 -205 b 1001 -214 991 -212 996 -214 "},"À":{"ha":1396,"x_min":0,"x_max":0,"o":"m 1601 1308 l 1601 1308 b 1581 1304 1595 1313 1585 1311 b 1520 1222 1564 1280 1544 1253 l 1515 1215 b 1489 1181 1506 1203 1498 1192 l 1457 1141 b 1326 982 1421 1096 1374 1039 b 1053 673 1243 884 1154 783 l 983 598 b 937 549 968 582 952 565 b 912 523 929 540 920 532 b 870 479 898 508 884 494 b 841 449 860 469 851 459 l 838 446 b 805 412 827 435 816 423 l 787 394 l 769 376 b 738 345 759 366 748 356 b 724 346 733 346 728 346 b 618 340 689 346 654 344 b 414 282 544 331 475 311 b 366 257 397 275 382 266 b 344 242 359 252 351 247 b 322 227 337 238 330 233 b 244 154 294 205 267 181 b 211 111 232 141 221 126 b 198 86 206 103 202 95 b 192 58 194 77 192 68 b 193 42 191 52 192 47 b 199 27 194 37 196 31 b 225 6 205 17 214 10 b 240 2 230 4 235 2 b 248 1 243 1 246 1 b 253 1 250 1 251 1 b 255 1 254 1 254 1 b 283 2 264 1 274 1 b 387 29 315 6 348 14 b 435 51 404 36 421 44 b 482 76 448 57 465 66 b 655 195 537 107 594 146 b 781 305 697 228 739 266 b 826 303 796 305 811 304 l 829 303 b 838 302 832 302 835 302 l 851 300 b 876 297 859 300 867 299 b 898 294 883 296 891 295 l 927 290 b 1030 276 961 284 995 280 b 1044 275 1034 276 1039 275 b 1033 248 1040 265 1036 257 b 967 55 1007 185 985 121 b 945 -45 957 19 950 -14 b 941 -71 943 -54 942 -62 b 938 -97 940 -80 939 -89 b 937 -119 937 -105 937 -112 b 899 -112 924 -116 912 -113 b 797 -104 865 -106 831 -104 b 596 -128 734 -105 668 -113 b 498 -152 564 -134 531 -143 b 403 -178 465 -162 434 -171 b 209 -206 339 -192 274 -202 b 13 -195 137 -210 73 -206 b -81 -170 -19 -190 -50 -181 b -163 -122 -115 -157 -142 -141 b -193 -87 -175 -112 -185 -100 b -207 -45 -200 -74 -205 -60 b -201 -1 -208 -30 -206 -15 b -180 41 -196 14 -189 28 l -178 43 l -178 43 b -183 57 -177 48 -178 54 b -199 54 -188 61 -195 59 b -222 7 -209 39 -217 23 b -229 -47 -228 -11 -231 -29 b -212 -99 -227 -65 -221 -83 b -178 -139 -203 -114 -191 -127 b -89 -190 -154 -159 -125 -176 b 9 -217 -57 -202 -24 -211 b 210 -229 70 -229 136 -232 b 409 -203 277 -226 343 -217 b 506 -179 438 -197 470 -189 b 602 -158 538 -171 571 -164 b 796 -143 666 -146 731 -141 b 892 -153 828 -144 860 -148 b 938 -164 910 -157 925 -160 l 939 -164 b 942 -177 940 -169 941 -173 b 951 -204 944 -186 947 -196 b 972 -228 956 -214 963 -222 l 972 -228 b 995 -235 979 -232 987 -235 b 1005 -234 998 -235 1001 -234 b 1018 -230 1009 -233 1013 -231 l 1021 -229 b 1024 -228 1022 -228 1023 -228 b 1032 -224 1027 -227 1029 -225 b 1040 -218 1035 -222 1037 -220 b 1046 -207 1043 -215 1045 -211 b 1046 -184 1049 -200 1049 -191 b 1036 -167 1044 -177 1041 -172 b 1024 -156 1033 -163 1029 -160 b 1000 -142 1017 -151 1009 -146 b 978 -132 993 -138 985 -135 b 983 -104 979 -123 981 -113 b 996 -58 986 -88 991 -73 b 1032 32 1006 -27 1018 2 b 1125 203 1060 91 1093 149 b 1164 270 1138 226 1151 248 b 1238 272 1190 270 1215 270 b 1342 287 1273 274 1308 279 b 1393 304 1360 291 1377 297 b 1418 318 1402 308 1410 312 b 1429 329 1422 321 1425 325 b 1436 345 1433 333 1435 339 b 1429 357 1438 350 1434 355 b 1416 350 1423 358 1418 355 l 1416 349 b 1405 335 1415 345 1411 340 b 1385 324 1399 331 1392 327 b 1337 310 1369 318 1353 313 b 1237 298 1304 303 1270 299 b 1181 297 1219 297 1200 297 l 1226 371 l 1276 455 b 1327 539 1294 485 1312 514 b 1354 582 1337 554 1346 570 b 1375 618 1361 594 1368 606 l 1379 626 b 1428 715 1396 655 1412 685 b 1512 900 1459 775 1487 837 b 1575 1093 1537 963 1558 1028 b 1577 1101 1576 1096 1577 1099 b 1582 1118 1579 1107 1580 1112 l 1582 1122 b 1587 1143 1584 1129 1586 1136 b 1597 1193 1591 1159 1594 1176 b 1604 1244 1600 1210 1602 1227 l 1604 1245 b 1606 1269 1605 1253 1606 1261 b 1607 1295 1607 1278 1607 1286 b 1601 1308 1608 1300 1605 1305 m 1546 1207 b 1537 1184 1544 1199 1541 1191 b 1528 1161 1534 1176 1531 1168 b 1509 1116 1522 1146 1515 1131 b 1489 1071 1503 1102 1496 1087 b 1468 1027 1482 1057 1475 1042 b 1424 940 1452 995 1438 966 b 1377 854 1412 917 1395 885 b 1332 775 1363 828 1347 801 l 1303 728 l 1290 707 b 1278 687 1286 700 1282 693 b 1267 671 1274 681 1271 676 b 1251 646 1262 662 1257 654 l 1224 604 b 1171 519 1206 576 1188 548 b 1120 432 1154 490 1136 461 b 1057 304 1097 390 1076 348 b 1033 307 1048 305 1041 306 b 932 323 1000 311 966 316 l 904 328 b 881 332 896 329 889 331 l 878 332 b 855 336 870 334 863 335 l 842 338 b 834 339 840 338 837 338 b 829 339 832 339 831 339 b 817 340 825 340 821 340 l 829 352 l 847 371 b 879 405 858 382 869 393 l 937 465 b 948 477 940 469 944 473 b 954 484 950 479 952 482 b 979 511 962 493 971 502 b 1024 561 994 527 1009 544 l 1092 638 b 1354 959 1173 733 1256 835 l 1385 1000 l 1417 1041 b 1464 1102 1433 1061 1449 1082 b 1480 1123 1469 1109 1475 1116 l 1550 1215 b 1546 1207 1549 1212 1548 1209 m 252 31 b 248 31 251 31 250 31 b 243 31 247 31 245 31 b 233 32 240 31 236 31 l 232 32 b 217 40 226 33 221 36 b 213 47 215 42 214 44 b 212 56 212 50 212 53 b 219 77 213 63 215 70 b 232 96 222 84 227 90 b 266 131 242 109 254 121 b 306 161 277 140 290 149 b 348 189 319 170 332 179 l 373 205 b 391 216 379 208 385 212 b 434 239 405 224 419 232 b 624 296 495 267 559 286 b 694 304 648 300 671 302 b 620 237 670 281 645 259 b 541 172 590 211 565 190 b 459 113 513 150 486 131 b 416 87 444 103 429 94 b 372 64 404 80 388 72 b 278 34 338 48 307 39 b 254 31 270 33 262 32 m 1001 -214 b 987 -209 996 -214 991 -212 b 978 -193 983 -205 980 -199 b 975 -177 977 -188 976 -183 b 981 -180 977 -178 979 -179 l 981 -180 b 999 -191 988 -183 994 -187 b 1007 -197 1002 -192 1004 -194 b 1010 -199 1008 -198 1009 -198 b 1013 -202 1011 -200 1012 -201 l 1014 -203 b 1016 -205 1014 -203 1015 -204 b 1016 -206 1016 -206 1016 -206 l 1015 -207 b 1013 -209 1015 -208 1014 -208 b 1011 -211 1013 -210 1012 -210 b 1010 -212 1011 -211 1010 -211 b 1002 -214 1007 -213 1005 -214 "},"Á":{"ha":1396,"x_min":0,"x_max":0,"o":"m 1601 1308 b 1607 1295 1605 1305 1608 1300 b 1606 1269 1607 1286 1607 1278 b 1604 1245 1606 1261 1605 1253 l 1604 1244 b 1597 1193 1602 1227 1600 1210 b 1587 1143 1594 1176 1591 1159 b 1582 1122 1586 1136 1584 1129 l 1582 1118 b 1577 1101 1580 1112 1579 1107 b 1575 1093 1577 1099 1576 1096 b 1512 900 1558 1028 1537 963 b 1428 715 1487 837 1459 775 b 1379 626 1412 685 1396 655 l 1375 618 b 1354 582 1368 606 1361 594 b 1327 539 1346 570 1337 554 b 1276 455 1312 514 1294 485 l 1226 371 l 1181 297 b 1237 298 1200 297 1219 297 b 1337 310 1270 299 1304 303 b 1385 324 1353 313 1369 318 b 1405 335 1392 327 1399 331 b 1416 349 1411 340 1415 345 l 1416 350 b 1429 357 1418 355 1423 358 b 1436 345 1434 355 1438 350 b 1429 329 1435 339 1433 333 b 1418 318 1425 325 1422 321 b 1393 304 1410 312 1402 308 b 1342 287 1377 297 1360 291 b 1238 272 1308 279 1273 274 b 1164 270 1215 270 1190 270 b 1125 203 1151 248 1138 226 b 1032 32 1093 149 1060 91 b 996 -58 1018 2 1006 -27 b 983 -104 991 -73 986 -88 b 978 -132 981 -113 979 -123 b 1000 -142 985 -135 993 -138 b 1024 -156 1009 -146 1017 -151 b 1036 -167 1029 -160 1033 -163 b 1046 -184 1041 -172 1044 -177 b 1046 -207 1049 -191 1049 -200 b 1040 -218 1045 -211 1043 -215 b 1032 -224 1037 -220 1035 -222 b 1024 -228 1029 -225 1027 -227 b 1021 -229 1023 -228 1022 -228 l 1018 -230 b 1005 -234 1013 -231 1009 -233 b 995 -235 1001 -234 998 -235 b 972 -228 987 -235 979 -232 l 972 -228 b 951 -204 963 -222 956 -214 b 942 -177 947 -196 944 -186 b 939 -164 941 -173 940 -169 l 938 -164 b 892 -153 925 -160 910 -157 b 796 -143 860 -148 828 -144 b 602 -158 731 -141 666 -146 b 506 -179 571 -164 538 -171 b 409 -203 470 -189 438 -197 b 210 -229 343 -217 277 -226 b 9 -217 136 -232 70 -229 b -89 -190 -24 -211 -57 -202 b -178 -139 -125 -176 -154 -159 b -212 -99 -191 -127 -203 -114 b -229 -47 -221 -83 -227 -65 b -222 7 -231 -29 -228 -11 b -199 54 -217 23 -209 39 b -183 57 -195 59 -188 61 b -178 43 -178 54 -177 48 l -178 43 l -180 41 b -201 -1 -189 28 -196 14 b -207 -45 -206 -15 -208 -30 b -193 -87 -205 -60 -200 -74 b -163 -122 -185 -100 -175 -112 b -81 -170 -142 -141 -115 -157 b 13 -195 -50 -181 -19 -190 b 209 -206 73 -206 137 -210 b 403 -178 274 -202 339 -192 b 498 -152 434 -171 465 -162 b 596 -128 531 -143 564 -134 b 797 -104 668 -113 734 -105 b 899 -112 831 -104 865 -106 b 937 -119 912 -113 924 -116 b 938 -97 937 -112 937 -105 b 941 -71 939 -89 940 -80 b 945 -45 942 -62 943 -54 b 967 55 950 -14 957 19 b 1033 248 985 121 1007 185 b 1044 275 1036 257 1040 265 b 1030 276 1039 275 1034 276 b 927 290 995 280 961 284 l 898 294 b 876 297 891 295 883 296 b 851 300 867 299 859 300 l 838 302 b 829 303 835 302 832 302 l 826 303 b 781 305 811 304 796 305 b 655 195 739 266 697 228 b 482 76 594 146 537 107 b 435 51 465 66 448 57 b 387 29 421 44 404 36 b 283 2 348 14 315 6 b 255 1 274 1 264 1 b 253 1 254 1 254 1 b 248 1 251 1 250 1 b 240 2 246 1 243 1 b 225 6 235 2 230 4 b 199 27 214 10 205 17 b 193 42 196 31 194 37 b 192 58 192 47 191 52 b 198 86 192 68 194 77 b 211 111 202 95 206 103 b 244 154 221 126 232 141 b 322 227 267 181 294 205 b 344 242 330 233 337 238 b 366 257 351 247 359 252 b 414 282 382 266 397 275 b 618 340 475 311 544 331 b 724 346 654 344 689 346 b 738 345 728 346 733 346 b 769 376 748 356 759 366 l 787 394 l 805 412 b 838 446 816 423 827 435 l 841 449 b 870 479 851 459 860 469 b 912 523 884 494 898 508 b 937 549 920 532 929 540 b 983 598 952 565 968 582 l 1053 673 b 1326 982 1154 783 1243 884 b 1457 1141 1374 1039 1421 1096 l 1489 1181 b 1515 1215 1498 1192 1506 1203 l 1520 1222 b 1581 1304 1544 1253 1564 1280 b 1601 1308 1585 1311 1595 1313 l 1601 1308 m 1546 1207 b 1550 1215 1548 1209 1549 1212 l 1480 1123 b 1464 1102 1475 1116 1469 1109 b 1417 1041 1449 1082 1433 1061 l 1385 1000 l 1354 959 b 1092 638 1256 835 1173 733 l 1024 561 b 979 511 1009 544 994 527 b 954 484 971 502 962 493 b 948 477 952 482 950 479 b 937 465 944 473 940 469 l 879 405 b 847 371 869 393 858 382 l 829 352 l 817 340 b 829 339 821 340 825 340 b 834 339 831 339 832 339 b 842 338 837 338 840 338 l 855 336 b 878 332 863 335 870 334 l 881 332 b 904 328 889 331 896 329 l 932 323 b 1033 307 966 316 1000 311 b 1057 304 1041 306 1048 305 b 1120 432 1076 348 1097 390 b 1171 519 1136 461 1154 490 b 1224 604 1188 548 1206 576 l 1251 646 b 1267 671 1257 654 1262 662 b 1278 687 1271 676 1274 681 b 1290 707 1282 693 1286 700 l 1303 728 l 1332 775 b 1377 854 1347 801 1363 828 b 1424 940 1395 885 1412 917 b 1468 1027 1438 966 1452 995 b 1489 1071 1475 1042 1482 1057 b 1509 1116 1496 1087 1503 1102 b 1528 1161 1515 1131 1522 1146 b 1537 1184 1531 1168 1534 1176 b 1546 1207 1541 1191 1544 1199 m 254 31 b 278 34 262 32 270 33 b 372 64 307 39 338 48 b 416 87 388 72 404 80 b 459 113 429 94 444 103 b 541 172 486 131 513 150 b 620 237 565 190 590 211 b 694 304 645 259 670 281 b 624 296 671 302 648 300 b 434 239 559 286 495 267 b 391 216 419 232 405 224 b 373 205 385 212 379 208 l 348 189 b 306 161 332 179 319 170 b 266 131 290 149 277 140 b 232 96 254 121 242 109 b 219 77 227 90 222 84 b 212 56 215 70 213 63 b 213 47 212 53 212 50 b 217 40 214 44 215 42 b 232 32 221 36 226 33 l 233 32 b 243 31 236 31 240 31 b 248 31 245 31 247 31 b 252 31 250 31 251 31 m 1002 -214 b 1010 -212 1005 -214 1007 -213 b 1011 -211 1010 -211 1011 -211 b 1013 -209 1012 -210 1013 -210 b 1015 -207 1014 -208 1015 -208 l 1016 -206 b 1016 -205 1016 -206 1016 -206 b 1014 -203 1015 -204 1014 -203 l 1013 -202 b 1010 -199 1012 -201 1011 -200 b 1007 -197 1009 -198 1008 -198 b 999 -191 1004 -194 1002 -192 b 981 -180 994 -187 988 -183 l 981 -180 b 975 -177 979 -179 977 -178 b 978 -193 976 -183 977 -188 b 987 -209 980 -199 983 -205 b 1001 -214 991 -212 996 -214 "},"Â":{"ha":1396,"x_min":0,"x_max":0,"o":"m 1601 1308 l 1601 1308 b 1581 1304 1595 1313 1585 1311 b 1520 1222 1564 1280 1544 1253 l 1515 1215 b 1489 1181 1506 1203 1498 1192 l 1457 1141 b 1326 982 1421 1096 1374 1039 b 1053 673 1243 884 1154 783 l 983 598 b 937 549 968 582 952 565 b 912 523 929 540 920 532 b 870 479 898 508 884 494 b 841 449 860 469 851 459 l 838 446 b 805 412 827 435 816 423 l 787 394 l 769 376 b 738 345 759 366 748 356 b 724 346 733 346 728 346 b 618 340 689 346 654 344 b 414 282 544 331 475 311 b 366 257 397 275 382 266 b 344 242 359 252 351 247 b 322 227 337 238 330 233 b 244 154 294 205 267 181 b 211 111 232 141 221 126 b 198 86 206 103 202 95 b 192 58 194 77 192 68 b 193 42 191 52 192 47 b 199 27 194 37 196 31 b 225 6 205 17 214 10 b 240 2 230 4 235 2 b 248 1 243 1 246 1 b 253 1 250 1 251 1 b 255 1 254 1 254 1 b 283 2 264 1 274 1 b 387 29 315 6 348 14 b 435 51 404 36 421 44 b 482 76 448 57 465 66 b 655 195 537 107 594 146 b 781 305 697 228 739 266 b 826 303 796 305 811 304 l 829 303 b 838 302 832 302 835 302 l 851 300 b 876 297 859 300 867 299 b 898 294 883 296 891 295 l 927 290 b 1030 276 961 284 995 280 b 1044 275 1034 276 1039 275 b 1033 248 1040 265 1036 257 b 967 55 1007 185 985 121 b 945 -45 957 19 950 -14 b 941 -71 943 -54 942 -62 b 938 -97 940 -80 939 -89 b 937 -119 937 -105 937 -112 b 899 -112 924 -116 912 -113 b 797 -104 865 -106 831 -104 b 596 -128 734 -105 668 -113 b 498 -152 564 -134 531 -143 b 403 -178 465 -162 434 -171 b 209 -206 339 -192 274 -202 b 13 -195 137 -210 73 -206 b -81 -170 -19 -190 -50 -181 b -163 -122 -115 -157 -142 -141 b -193 -87 -175 -112 -185 -100 b -207 -45 -200 -74 -205 -60 b -201 -1 -208 -30 -206 -15 b -180 41 -196 14 -189 28 l -178 43 l -178 43 b -183 57 -177 48 -178 54 b -199 54 -188 61 -195 59 b -222 7 -209 39 -217 23 b -229 -47 -228 -11 -231 -29 b -212 -99 -227 -65 -221 -83 b -178 -139 -203 -114 -191 -127 b -89 -190 -154 -159 -125 -176 b 9 -217 -57 -202 -24 -211 b 210 -229 70 -229 136 -232 b 409 -203 277 -226 343 -217 b 506 -179 438 -197 470 -189 b 602 -158 538 -171 571 -164 b 796 -143 666 -146 731 -141 b 892 -153 828 -144 860 -148 b 938 -164 910 -157 925 -160 l 939 -164 b 942 -177 940 -169 941 -173 b 951 -204 944 -186 947 -196 b 972 -228 956 -214 963 -222 l 972 -228 b 995 -235 979 -232 987 -235 b 1005 -234 998 -235 1001 -234 b 1018 -230 1009 -233 1013 -231 l 1021 -229 b 1024 -228 1022 -228 1023 -228 b 1032 -224 1027 -227 1029 -225 b 1040 -218 1035 -222 1037 -220 b 1046 -207 1043 -215 1045 -211 b 1046 -184 1049 -200 1049 -191 b 1036 -167 1044 -177 1041 -172 b 1024 -156 1033 -163 1029 -160 b 1000 -142 1017 -151 1009 -146 b 978 -132 993 -138 985 -135 b 983 -104 979 -123 981 -113 b 996 -58 986 -88 991 -73 b 1032 32 1006 -27 1018 2 b 1125 203 1060 91 1093 149 b 1164 270 1138 226 1151 248 b 1238 272 1190 270 1215 270 b 1342 287 1273 274 1308 279 b 1393 304 1360 291 1377 297 b 1418 318 1402 308 1410 312 b 1429 329 1422 321 1425 325 b 1436 345 1433 333 1435 339 b 1429 357 1438 350 1434 355 b 1416 350 1423 358 1418 355 l 1416 349 b 1405 335 1415 345 1411 340 b 1385 324 1399 331 1392 327 b 1337 310 1369 318 1353 313 b 1237 298 1304 303 1270 299 b 1181 297 1219 297 1200 297 l 1226 371 l 1276 455 b 1327 539 1294 485 1312 514 b 1354 582 1337 554 1346 570 b 1375 618 1361 594 1368 606 l 1379 626 b 1428 715 1396 655 1412 685 b 1512 900 1459 775 1487 837 b 1575 1093 1537 963 1558 1028 b 1577 1101 1576 1096 1577 1099 b 1582 1118 1579 1107 1580 1112 l 1582 1122 b 1587 1143 1584 1129 1586 1136 b 1597 1193 1591 1159 1594 1176 b 1604 1244 1600 1210 1602 1227 l 1604 1245 b 1606 1269 1605 1253 1606 1261 b 1607 1295 1607 1278 1607 1286 b 1601 1308 1608 1300 1605 1305 m 1546 1207 b 1537 1184 1544 1199 1541 1191 b 1528 1161 1534 1176 1531 1168 b 1509 1116 1522 1146 1515 1131 b 1489 1071 1503 1102 1496 1087 b 1468 1027 1482 1057 1475 1042 b 1424 940 1452 995 1438 966 b 1377 854 1412 917 1395 885 b 1332 775 1363 828 1347 801 l 1303 728 l 1290 707 b 1278 687 1286 700 1282 693 b 1267 671 1274 681 1271 676 b 1251 646 1262 662 1257 654 l 1224 604 b 1171 519 1206 576 1188 548 b 1120 432 1154 490 1136 461 b 1057 304 1097 390 1076 348 b 1033 307 1048 305 1041 306 b 932 323 1000 311 966 316 l 904 328 b 881 332 896 329 889 331 l 878 332 b 855 336 870 334 863 335 l 842 338 b 834 339 840 338 837 338 b 829 339 832 339 831 339 b 817 340 825 340 821 340 l 829 352 l 847 371 b 879 405 858 382 869 393 l 937 465 b 948 477 940 469 944 473 b 954 484 950 479 952 482 b 979 511 962 493 971 502 b 1024 561 994 527 1009 544 l 1092 638 b 1354 959 1173 733 1256 835 l 1385 1000 l 1417 1041 b 1464 1102 1433 1061 1449 1082 b 1480 1123 1469 1109 1475 1116 l 1550 1215 b 1546 1207 1549 1212 1548 1209 m 252 31 b 248 31 251 31 250 31 b 243 31 247 31 245 31 b 233 32 240 31 236 31 l 232 32 b 217 40 226 33 221 36 b 213 47 215 42 214 44 b 212 56 212 50 212 53 b 219 77 213 63 215 70 b 232 96 222 84 227 90 b 266 131 242 109 254 121 b 306 161 277 140 290 149 b 348 189 319 170 332 179 l 373 205 b 391 216 379 208 385 212 b 434 239 405 224 419 232 b 624 296 495 267 559 286 b 694 304 648 300 671 302 b 620 237 670 281 645 259 b 541 172 590 211 565 190 b 459 113 513 150 486 131 b 416 87 444 103 429 94 b 372 64 404 80 388 72 b 278 34 338 48 307 39 b 254 31 270 33 262 32 m 1001 -214 b 987 -209 996 -214 991 -212 b 978 -193 983 -205 980 -199 b 975 -177 977 -188 976 -183 b 981 -180 977 -178 979 -179 l 981 -180 b 999 -191 988 -183 994 -187 b 1007 -197 1002 -192 1004 -194 b 1010 -199 1008 -198 1009 -198 b 1013 -202 1011 -200 1012 -201 l 1014 -203 b 1016 -205 1014 -203 1015 -204 b 1016 -206 1016 -206 1016 -206 l 1015 -207 b 1013 -209 1015 -208 1014 -208 b 1011 -211 1013 -210 1012 -210 b 1010 -212 1011 -211 1010 -211 b 1002 -214 1007 -213 1005 -214 "},"Ã":{"ha":1396,"x_min":0,"x_max":0,"o":"m 1601 1308 b 1607 1295 1605 1305 1608 1300 b 1606 1269 1607 1286 1607 1278 b 1604 1245 1606 1261 1605 1253 l 1604 1244 b 1597 1193 1602 1227 1600 1210 b 1587 1143 1594 1176 1591 1159 b 1582 1122 1586 1136 1584 1129 l 1582 1118 b 1577 1101 1580 1112 1579 1107 b 1575 1093 1577 1099 1576 1096 b 1512 900 1558 1028 1537 963 b 1428 715 1487 837 1459 775 b 1379 626 1412 685 1396 655 l 1375 618 b 1354 582 1368 606 1361 594 b 1327 539 1346 570 1337 554 b 1276 455 1312 514 1294 485 l 1226 371 l 1181 297 b 1237 298 1200 297 1219 297 b 1337 310 1270 299 1304 303 b 1385 324 1353 313 1369 318 b 1405 335 1392 327 1399 331 b 1416 349 1411 340 1415 345 l 1416 350 b 1429 357 1418 355 1423 358 b 1436 345 1434 355 1438 350 b 1429 329 1435 339 1433 333 b 1418 318 1425 325 1422 321 b 1393 304 1410 312 1402 308 b 1342 287 1377 297 1360 291 b 1238 272 1308 279 1273 274 b 1164 270 1215 270 1190 270 b 1125 203 1151 248 1138 226 b 1032 32 1093 149 1060 91 b 996 -58 1018 2 1006 -27 b 983 -104 991 -73 986 -88 b 978 -132 981 -113 979 -123 b 1000 -142 985 -135 993 -138 b 1024 -156 1009 -146 1017 -151 b 1036 -167 1029 -160 1033 -163 b 1046 -184 1041 -172 1044 -177 b 1046 -207 1049 -191 1049 -200 b 1040 -218 1045 -211 1043 -215 b 1032 -224 1037 -220 1035 -222 b 1024 -228 1029 -225 1027 -227 b 1021 -229 1023 -228 1022 -228 l 1018 -230 b 1005 -234 1013 -231 1009 -233 b 995 -235 1001 -234 998 -235 b 972 -228 987 -235 979 -232 l 972 -228 b 951 -204 963 -222 956 -214 b 942 -177 947 -196 944 -186 b 939 -164 941 -173 940 -169 l 938 -164 b 892 -153 925 -160 910 -157 b 796 -143 860 -148 828 -144 b 602 -158 731 -141 666 -146 b 506 -179 571 -164 538 -171 b 409 -203 470 -189 438 -197 b 210 -229 343 -217 277 -226 b 9 -217 136 -232 70 -229 b -89 -190 -24 -211 -57 -202 b -178 -139 -125 -176 -154 -159 b -212 -99 -191 -127 -203 -114 b -229 -47 -221 -83 -227 -65 b -222 7 -231 -29 -228 -11 b -199 54 -217 23 -209 39 b -183 57 -195 59 -188 61 b -178 43 -178 54 -177 48 l -178 43 l -180 41 b -201 -1 -189 28 -196 14 b -207 -45 -206 -15 -208 -30 b -193 -87 -205 -60 -200 -74 b -163 -122 -185 -100 -175 -112 b -81 -170 -142 -141 -115 -157 b 13 -195 -50 -181 -19 -190 b 209 -206 73 -206 137 -210 b 403 -178 274 -202 339 -192 b 498 -152 434 -171 465 -162 b 596 -128 531 -143 564 -134 b 797 -104 668 -113 734 -105 b 899 -112 831 -104 865 -106 b 937 -119 912 -113 924 -116 b 938 -97 937 -112 937 -105 b 941 -71 939 -89 940 -80 b 945 -45 942 -62 943 -54 b 967 55 950 -14 957 19 b 1033 248 985 121 1007 185 b 1044 275 1036 257 1040 265 b 1030 276 1039 275 1034 276 b 927 290 995 280 961 284 l 898 294 b 876 297 891 295 883 296 b 851 300 867 299 859 300 l 838 302 b 829 303 835 302 832 302 l 826 303 b 781 305 811 304 796 305 b 655 195 739 266 697 228 b 482 76 594 146 537 107 b 435 51 465 66 448 57 b 387 29 421 44 404 36 b 283 2 348 14 315 6 b 255 1 274 1 264 1 b 253 1 254 1 254 1 b 248 1 251 1 250 1 b 240 2 246 1 243 1 b 225 6 235 2 230 4 b 199 27 214 10 205 17 b 193 42 196 31 194 37 b 192 58 192 47 191 52 b 198 86 192 68 194 77 b 211 111 202 95 206 103 b 244 154 221 126 232 141 b 322 227 267 181 294 205 b 344 242 330 233 337 238 b 366 257 351 247 359 252 b 414 282 382 266 397 275 b 618 340 475 311 544 331 b 724 346 654 344 689 346 b 738 345 728 346 733 346 b 769 376 748 356 759 366 l 787 394 l 805 412 b 838 446 816 423 827 435 l 841 449 b 870 479 851 459 860 469 b 912 523 884 494 898 508 b 937 549 920 532 929 540 b 983 598 952 565 968 582 l 1053 673 b 1326 982 1154 783 1243 884 b 1457 1141 1374 1039 1421 1096 l 1489 1181 b 1515 1215 1498 1192 1506 1203 l 1520 1222 b 1581 1304 1544 1253 1564 1280 b 1601 1308 1585 1311 1595 1313 l 1601 1308 m 1546 1207 b 1550 1215 1548 1209 1549 1212 l 1480 1123 b 1464 1102 1475 1116 1469 1109 b 1417 1041 1449 1082 1433 1061 l 1385 1000 l 1354 959 b 1092 638 1256 835 1173 733 l 1024 561 b 979 511 1009 544 994 527 b 954 484 971 502 962 493 b 948 477 952 482 950 479 b 937 465 944 473 940 469 l 879 405 b 847 371 869 393 858 382 l 829 352 l 817 340 b 829 339 821 340 825 340 b 834 339 831 339 832 339 b 842 338 837 338 840 338 l 855 336 b 878 332 863 335 870 334 l 881 332 b 904 328 889 331 896 329 l 932 323 b 1033 307 966 316 1000 311 b 1057 304 1041 306 1048 305 b 1120 432 1076 348 1097 390 b 1171 519 1136 461 1154 490 b 1224 604 1188 548 1206 576 l 1251 646 b 1267 671 1257 654 1262 662 b 1278 687 1271 676 1274 681 b 1290 707 1282 693 1286 700 l 1303 728 l 1332 775 b 1377 854 1347 801 1363 828 b 1424 940 1395 885 1412 917 b 1468 1027 1438 966 1452 995 b 1489 1071 1475 1042 1482 1057 b 1509 1116 1496 1087 1503 1102 b 1528 1161 1515 1131 1522 1146 b 1537 1184 1531 1168 1534 1176 b 1546 1207 1541 1191 1544 1199 m 254 31 b 278 34 262 32 270 33 b 372 64 307 39 338 48 b 416 87 388 72 404 80 b 459 113 429 94 444 103 b 541 172 486 131 513 150 b 620 237 565 190 590 211 b 694 304 645 259 670 281 b 624 296 671 302 648 300 b 434 239 559 286 495 267 b 391 216 419 232 405 224 b 373 205 385 212 379 208 l 348 189 b 306 161 332 179 319 170 b 266 131 290 149 277 140 b 232 96 254 121 242 109 b 219 77 227 90 222 84 b 212 56 215 70 213 63 b 213 47 212 53 212 50 b 217 40 214 44 215 42 b 232 32 221 36 226 33 l 233 32 b 243 31 236 31 240 31 b 248 31 245 31 247 31 b 252 31 250 31 251 31 m 1002 -214 b 1010 -212 1005 -214 1007 -213 b 1011 -211 1010 -211 1011 -211 b 1013 -209 1012 -210 1013 -210 b 1015 -207 1014 -208 1015 -208 l 1016 -206 b 1016 -205 1016 -206 1016 -206 b 1014 -203 1015 -204 1014 -203 l 1013 -202 b 1010 -199 1012 -201 1011 -200 b 1007 -197 1009 -198 1008 -198 b 999 -191 1004 -194 1002 -192 b 981 -180 994 -187 988 -183 l 981 -180 b 975 -177 979 -179 977 -178 b 978 -193 976 -183 977 -188 b 987 -209 980 -199 983 -205 b 1001 -214 991 -212 996 -214 "},"Ä":{"ha":1396,"x_min":0,"x_max":0,"o":"m 1601 1308 l 1601 1308 b 1581 1304 1595 1313 1585 1311 b 1520 1222 1564 1280 1544 1253 l 1515 1215 b 1489 1181 1506 1203 1498 1192 l 1457 1141 b 1326 982 1421 1096 1374 1039 b 1053 673 1243 884 1154 783 l 983 598 b 937 549 968 582 952 565 b 912 523 929 540 920 532 b 870 479 898 508 884 494 b 841 449 860 469 851 459 l 838 446 b 805 412 827 435 816 423 l 787 394 l 769 376 b 738 345 759 366 748 356 b 724 346 733 346 728 346 b 618 340 689 346 654 344 b 414 282 544 331 475 311 b 366 257 397 275 382 266 b 344 242 359 252 351 247 b 322 227 337 238 330 233 b 244 154 294 205 267 181 b 211 111 232 141 221 126 b 198 86 206 103 202 95 b 192 58 194 77 192 68 b 193 42 191 52 192 47 b 199 27 194 37 196 31 b 225 6 205 17 214 10 b 240 2 230 4 235 2 b 248 1 243 1 246 1 b 253 1 250 1 251 1 b 255 1 254 1 254 1 b 283 2 264 1 274 1 b 387 29 315 6 348 14 b 435 51 404 36 421 44 b 482 76 448 57 465 66 b 655 195 537 107 594 146 b 781 305 697 228 739 266 b 826 303 796 305 811 304 l 829 303 b 838 302 832 302 835 302 l 851 300 b 876 297 859 300 867 299 b 898 294 883 296 891 295 l 927 290 b 1030 276 961 284 995 280 b 1044 275 1034 276 1039 275 b 1033 248 1040 265 1036 257 b 967 55 1007 185 985 121 b 945 -45 957 19 950 -14 b 941 -71 943 -54 942 -62 b 938 -97 940 -80 939 -89 b 937 -119 937 -105 937 -112 b 899 -112 924 -116 912 -113 b 797 -104 865 -106 831 -104 b 596 -128 734 -105 668 -113 b 498 -152 564 -134 531 -143 b 403 -178 465 -162 434 -171 b 209 -206 339 -192 274 -202 b 13 -195 137 -210 73 -206 b -81 -170 -19 -190 -50 -181 b -163 -122 -115 -157 -142 -141 b -193 -87 -175 -112 -185 -100 b -207 -45 -200 -74 -205 -60 b -201 -1 -208 -30 -206 -15 b -180 41 -196 14 -189 28 l -178 43 l -178 43 b -183 57 -177 48 -178 54 b -199 54 -188 61 -195 59 b -222 7 -209 39 -217 23 b -229 -47 -228 -11 -231 -29 b -212 -99 -227 -65 -221 -83 b -178 -139 -203 -114 -191 -127 b -89 -190 -154 -159 -125 -176 b 9 -217 -57 -202 -24 -211 b 210 -229 70 -229 136 -232 b 409 -203 277 -226 343 -217 b 506 -179 438 -197 470 -189 b 602 -158 538 -171 571 -164 b 796 -143 666 -146 731 -141 b 892 -153 828 -144 860 -148 b 938 -164 910 -157 925 -160 l 939 -164 b 942 -177 940 -169 941 -173 b 951 -204 944 -186 947 -196 b 972 -228 956 -214 963 -222 l 972 -228 b 995 -235 979 -232 987 -235 b 1005 -234 998 -235 1001 -234 b 1018 -230 1009 -233 1013 -231 l 1021 -229 b 1024 -228 1022 -228 1023 -228 b 1032 -224 1027 -227 1029 -225 b 1040 -218 1035 -222 1037 -220 b 1046 -207 1043 -215 1045 -211 b 1046 -184 1049 -200 1049 -191 b 1036 -167 1044 -177 1041 -172 b 1024 -156 1033 -163 1029 -160 b 1000 -142 1017 -151 1009 -146 b 978 -132 993 -138 985 -135 b 983 -104 979 -123 981 -113 b 996 -58 986 -88 991 -73 b 1032 32 1006 -27 1018 2 b 1125 203 1060 91 1093 149 b 1164 270 1138 226 1151 248 b 1238 272 1190 270 1215 270 b 1342 287 1273 274 1308 279 b 1393 304 1360 291 1377 297 b 1418 318 1402 308 1410 312 b 1429 329 1422 321 1425 325 b 1436 345 1433 333 1435 339 b 1429 357 1438 350 1434 355 b 1416 350 1423 358 1418 355 l 1416 349 b 1405 335 1415 345 1411 340 b 1385 324 1399 331 1392 327 b 1337 310 1369 318 1353 313 b 1237 298 1304 303 1270 299 b 1181 297 1219 297 1200 297 l 1226 371 l 1276 455 b 1327 539 1294 485 1312 514 b 1354 582 1337 554 1346 570 b 1375 618 1361 594 1368 606 l 1379 626 b 1428 715 1396 655 1412 685 b 1512 900 1459 775 1487 837 b 1575 1093 1537 963 1558 1028 b 1577 1101 1576 1096 1577 1099 b 1582 1118 1579 1107 1580 1112 l 1582 1122 b 1587 1143 1584 1129 1586 1136 b 1597 1193 1591 1159 1594 1176 b 1604 1244 1600 1210 1602 1227 l 1604 1245 b 1606 1269 1605 1253 1606 1261 b 1607 1295 1607 1278 1607 1286 b 1601 1308 1608 1300 1605 1305 m 1546 1207 b 1537 1184 1544 1199 1541 1191 b 1528 1161 1534 1176 1531 1168 b 1509 1116 1522 1146 1515 1131 b 1489 1071 1503 1102 1496 1087 b 1468 1027 1482 1057 1475 1042 b 1424 940 1452 995 1438 966 b 1377 854 1412 917 1395 885 b 1332 775 1363 828 1347 801 l 1303 728 l 1290 707 b 1278 687 1286 700 1282 693 b 1267 671 1274 681 1271 676 b 1251 646 1262 662 1257 654 l 1224 604 b 1171 519 1206 576 1188 548 b 1120 432 1154 490 1136 461 b 1057 304 1097 390 1076 348 b 1033 307 1048 305 1041 306 b 932 323 1000 311 966 316 l 904 328 b 881 332 896 329 889 331 l 878 332 b 855 336 870 334 863 335 l 842 338 b 834 339 840 338 837 338 b 829 339 832 339 831 339 b 817 340 825 340 821 340 l 829 352 l 847 371 b 879 405 858 382 869 393 l 937 465 b 948 477 940 469 944 473 b 954 484 950 479 952 482 b 979 511 962 493 971 502 b 1024 561 994 527 1009 544 l 1092 638 b 1354 959 1173 733 1256 835 l 1385 1000 l 1417 1041 b 1464 1102 1433 1061 1449 1082 b 1480 1123 1469 1109 1475 1116 l 1550 1215 b 1546 1207 1549 1212 1548 1209 m 252 31 b 248 31 251 31 250 31 b 243 31 247 31 245 31 b 233 32 240 31 236 31 l 232 32 b 217 40 226 33 221 36 b 213 47 215 42 214 44 b 212 56 212 50 212 53 b 219 77 213 63 215 70 b 232 96 222 84 227 90 b 266 131 242 109 254 121 b 306 161 277 140 290 149 b 348 189 319 170 332 179 l 373 205 b 391 216 379 208 385 212 b 434 239 405 224 419 232 b 624 296 495 267 559 286 b 694 304 648 300 671 302 b 620 237 670 281 645 259 b 541 172 590 211 565 190 b 459 113 513 150 486 131 b 416 87 444 103 429 94 b 372 64 404 80 388 72 b 278 34 338 48 307 39 b 254 31 270 33 262 32 m 1001 -214 b 987 -209 996 -214 991 -212 b 978 -193 983 -205 980 -199 b 975 -177 977 -188 976 -183 b 981 -180 977 -178 979 -179 l 981 -180 b 999 -191 988 -183 994 -187 b 1007 -197 1002 -192 1004 -194 b 1010 -199 1008 -198 1009 -198 b 1013 -202 1011 -200 1012 -201 l 1014 -203 b 1016 -205 1014 -203 1015 -204 b 1016 -206 1016 -206 1016 -206 l 1015 -207 b 1013 -209 1015 -208 1014 -208 b 1011 -211 1013 -210 1012 -210 b 1010 -212 1011 -211 1010 -211 b 1002 -214 1007 -213 1005 -214 "},"Å":{"ha":1396,"x_min":0,"x_max":0,"o":"m 1601 1308 b 1607 1295 1605 1305 1608 1300 b 1606 1269 1607 1286 1607 1278 b 1604 1245 1606 1261 1605 1253 l 1604 1244 b 1597 1193 1602 1227 1600 1210 b 1587 1143 1594 1176 1591 1159 b 1582 1122 1586 1136 1584 1129 l 1582 1118 b 1577 1101 1580 1112 1579 1107 b 1575 1093 1577 1099 1576 1096 b 1512 900 1558 1028 1537 963 b 1428 715 1487 837 1459 775 b 1379 626 1412 685 1396 655 l 1375 618 b 1354 582 1368 606 1361 594 b 1327 539 1346 570 1337 554 b 1276 455 1312 514 1294 485 l 1226 371 l 1181 297 b 1237 298 1200 297 1219 297 b 1337 310 1270 299 1304 303 b 1385 324 1353 313 1369 318 b 1405 335 1392 327 1399 331 b 1416 349 1411 340 1415 345 l 1416 350 b 1429 357 1418 355 1423 358 b 1436 345 1434 355 1438 350 b 1429 329 1435 339 1433 333 b 1418 318 1425 325 1422 321 b 1393 304 1410 312 1402 308 b 1342 287 1377 297 1360 291 b 1238 272 1308 279 1273 274 b 1164 270 1215 270 1190 270 b 1125 203 1151 248 1138 226 b 1032 32 1093 149 1060 91 b 996 -58 1018 2 1006 -27 b 983 -104 991 -73 986 -88 b 978 -132 981 -113 979 -123 b 1000 -142 985 -135 993 -138 b 1024 -156 1009 -146 1017 -151 b 1036 -167 1029 -160 1033 -163 b 1046 -184 1041 -172 1044 -177 b 1046 -207 1049 -191 1049 -200 b 1040 -218 1045 -211 1043 -215 b 1032 -224 1037 -220 1035 -222 b 1024 -228 1029 -225 1027 -227 b 1021 -229 1023 -228 1022 -228 l 1018 -230 b 1005 -234 1013 -231 1009 -233 b 995 -235 1001 -234 998 -235 b 972 -228 987 -235 979 -232 l 972 -228 b 951 -204 963 -222 956 -214 b 942 -177 947 -196 944 -186 b 939 -164 941 -173 940 -169 l 938 -164 b 892 -153 925 -160 910 -157 b 796 -143 860 -148 828 -144 b 602 -158 731 -141 666 -146 b 506 -179 571 -164 538 -171 b 409 -203 470 -189 438 -197 b 210 -229 343 -217 277 -226 b 9 -217 136 -232 70 -229 b -89 -190 -24 -211 -57 -202 b -178 -139 -125 -176 -154 -159 b -212 -99 -191 -127 -203 -114 b -229 -47 -221 -83 -227 -65 b -222 7 -231 -29 -228 -11 b -199 54 -217 23 -209 39 b -183 57 -195 59 -188 61 b -178 43 -178 54 -177 48 l -178 43 l -180 41 b -201 -1 -189 28 -196 14 b -207 -45 -206 -15 -208 -30 b -193 -87 -205 -60 -200 -74 b -163 -122 -185 -100 -175 -112 b -81 -170 -142 -141 -115 -157 b 13 -195 -50 -181 -19 -190 b 209 -206 73 -206 137 -210 b 403 -178 274 -202 339 -192 b 498 -152 434 -171 465 -162 b 596 -128 531 -143 564 -134 b 797 -104 668 -113 734 -105 b 899 -112 831 -104 865 -106 b 937 -119 912 -113 924 -116 b 938 -97 937 -112 937 -105 b 941 -71 939 -89 940 -80 b 945 -45 942 -62 943 -54 b 967 55 950 -14 957 19 b 1033 248 985 121 1007 185 b 1044 275 1036 257 1040 265 b 1030 276 1039 275 1034 276 b 927 290 995 280 961 284 l 898 294 b 876 297 891 295 883 296 b 851 300 867 299 859 300 l 838 302 b 829 303 835 302 832 302 l 826 303 b 781 305 811 304 796 305 b 655 195 739 266 697 228 b 482 76 594 146 537 107 b 435 51 465 66 448 57 b 387 29 421 44 404 36 b 283 2 348 14 315 6 b 255 1 274 1 264 1 b 253 1 254 1 254 1 b 248 1 251 1 250 1 b 240 2 246 1 243 1 b 225 6 235 2 230 4 b 199 27 214 10 205 17 b 193 42 196 31 194 37 b 192 58 192 47 191 52 b 198 86 192 68 194 77 b 211 111 202 95 206 103 b 244 154 221 126 232 141 b 322 227 267 181 294 205 b 344 242 330 233 337 238 b 366 257 351 247 359 252 b 414 282 382 266 397 275 b 618 340 475 311 544 331 b 724 346 654 344 689 346 b 738 345 728 346 733 346 b 769 376 748 356 759 366 l 787 394 l 805 412 b 838 446 816 423 827 435 l 841 449 b 870 479 851 459 860 469 b 912 523 884 494 898 508 b 937 549 920 532 929 540 b 983 598 952 565 968 582 l 1053 673 b 1326 982 1154 783 1243 884 b 1457 1141 1374 1039 1421 1096 l 1489 1181 b 1515 1215 1498 1192 1506 1203 l 1520 1222 b 1581 1304 1544 1253 1564 1280 b 1601 1308 1585 1311 1595 1313 l 1601 1308 m 1546 1207 b 1550 1215 1548 1209 1549 1212 l 1480 1123 b 1464 1102 1475 1116 1469 1109 b 1417 1041 1449 1082 1433 1061 l 1385 1000 l 1354 959 b 1092 638 1256 835 1173 733 l 1024 561 b 979 511 1009 544 994 527 b 954 484 971 502 962 493 b 948 477 952 482 950 479 b 937 465 944 473 940 469 l 879 405 b 847 371 869 393 858 382 l 829 352 l 817 340 b 829 339 821 340 825 340 b 834 339 831 339 832 339 b 842 338 837 338 840 338 l 855 336 b 878 332 863 335 870 334 l 881 332 b 904 328 889 331 896 329 l 932 323 b 1033 307 966 316 1000 311 b 1057 304 1041 306 1048 305 b 1120 432 1076 348 1097 390 b 1171 519 1136 461 1154 490 b 1224 604 1188 548 1206 576 l 1251 646 b 1267 671 1257 654 1262 662 b 1278 687 1271 676 1274 681 b 1290 707 1282 693 1286 700 l 1303 728 l 1332 775 b 1377 854 1347 801 1363 828 b 1424 940 1395 885 1412 917 b 1468 1027 1438 966 1452 995 b 1489 1071 1475 1042 1482 1057 b 1509 1116 1496 1087 1503 1102 b 1528 1161 1515 1131 1522 1146 b 1537 1184 1531 1168 1534 1176 b 1546 1207 1541 1191 1544 1199 m 254 31 b 278 34 262 32 270 33 b 372 64 307 39 338 48 b 416 87 388 72 404 80 b 459 113 429 94 444 103 b 541 172 486 131 513 150 b 620 237 565 190 590 211 b 694 304 645 259 670 281 b 624 296 671 302 648 300 b 434 239 559 286 495 267 b 391 216 419 232 405 224 b 373 205 385 212 379 208 l 348 189 b 306 161 332 179 319 170 b 266 131 290 149 277 140 b 232 96 254 121 242 109 b 219 77 227 90 222 84 b 212 56 215 70 213 63 b 213 47 212 53 212 50 b 217 40 214 44 215 42 b 232 32 221 36 226 33 l 233 32 b 243 31 236 31 240 31 b 248 31 245 31 247 31 b 252 31 250 31 251 31 m 1002 -214 b 1010 -212 1005 -214 1007 -213 b 1011 -211 1010 -211 1011 -211 b 1013 -209 1012 -210 1013 -210 b 1015 -207 1014 -208 1015 -208 l 1016 -206 b 1016 -205 1016 -206 1016 -206 b 1014 -203 1015 -204 1014 -203 l 1013 -202 b 1010 -199 1012 -201 1011 -200 b 1007 -197 1009 -198 1008 -198 b 999 -191 1004 -194 1002 -192 b 981 -180 994 -187 988 -183 l 981 -180 b 975 -177 979 -179 977 -178 b 978 -193 976 -183 977 -188 b 987 -209 980 -199 983 -205 b 1001 -214 991 -212 996 -214 "},"B":{"ha":1778,"x_min":0,"x_max":0,"o":"m 1775 990 b 1772 953 1775 978 1774 965 b 1768 934 1771 947 1770 941 b 1763 917 1767 929 1765 924 b 1736 855 1756 896 1747 875 b 1643 752 1713 814 1681 779 b 1614 734 1634 746 1624 740 b 1584 719 1604 729 1594 724 b 1522 699 1564 711 1543 704 b 1489 691 1511 696 1500 693 b 1536 673 1505 686 1521 680 b 1597 634 1558 663 1578 650 b 1623 608 1606 626 1615 617 b 1664 544 1640 589 1653 567 b 1677 509 1669 533 1673 521 b 1690 437 1684 486 1688 461 b 1689 366 1691 413 1691 389 b 1675 295 1686 342 1682 318 b 1614 166 1663 249 1642 205 b 1511 68 1586 127 1551 94 b 1450 36 1492 56 1471 45 b 1385 13 1429 27 1407 19 b 1352 6 1376 11 1364 8 b 1319 1 1342 4 1331 3 b 1253 -2 1297 -1 1275 -2 b 1188 4 1231 -2 1209 0 b 1124 19 1166 7 1145 12 b 1063 40 1104 24 1084 31 b 1004 66 1044 47 1025 56 b 964 85 991 71 978 78 b 912 49 947 72 930 60 b 785 -2 873 24 830 7 b 736 -8 769 -5 752 -7 b 653 -86 711 -36 683 -62 b 555 -150 623 -110 590 -132 b 446 -192 521 -168 484 -182 b 344 -205 412 -200 378 -205 b 329 -205 339 -205 334 -205 b 270 -197 309 -204 289 -201 b 213 -180 250 -193 231 -188 b 26 -41 140 -153 76 -105 b -7 8 14 -25 3 -9 b -34 60 -17 25 -26 42 b -68 172 -49 96 -61 134 b -64 405 -81 245 -80 324 b 149 811 -35 555 40 699 b 334 950 206 870 268 916 b 444 990 369 968 406 982 b 503 997 463 994 483 997 b 563 989 523 997 544 995 b 571 975 569 987 573 981 b 558 966 570 969 564 965 l 558 966 l 557 967 b 503 973 539 972 521 974 b 449 967 485 973 467 971 b 345 929 413 959 378 946 b 174 786 279 895 227 842 b -12 400 83 687 17 550 b -18 177 -28 316 -30 243 b -15 164 -17 173 -16 168 b 9 71 -9 131 -4 100 b 11 67 10 70 10 68 b 223 -156 51 -30 125 -107 b 278 -174 241 -164 259 -170 b 330 -180 295 -177 312 -180 b 439 -166 369 -182 409 -173 b 543 -126 475 -156 510 -143 b 636 -65 576 -109 607 -88 b 697 -8 658 -47 678 -29 b 685 -8 693 -8 689 -8 b 674 -8 681 -8 678 -8 b 652 -7 667 -8 659 -8 b 586 2 630 -5 608 -2 b 523 19 565 7 544 12 b 461 44 501 26 481 34 b 404 82 440 54 421 66 b 380 112 394 91 386 101 b 371 152 374 124 370 138 b 372 163 371 156 371 159 b 373 168 372 164 373 166 l 374 169 b 375 173 374 170 375 171 b 382 189 377 178 380 184 b 406 219 388 201 396 210 b 468 249 422 233 442 243 b 534 257 490 254 512 257 b 725 224 599 257 664 246 b 785 199 744 217 763 209 b 823 180 797 193 809 187 b 863 311 841 222 855 266 b 875 422 871 347 875 385 b 873 469 875 438 874 454 b 858 473 868 470 863 472 b 827 485 847 476 837 480 b 798 503 816 490 807 496 b 753 555 779 517 764 535 b 728 619 741 575 733 596 b 721 686 723 641 721 664 b 721 687 721 687 721 687 b 679 686 707 689 693 689 b 632 665 662 682 646 675 b 557 532 588 634 561 586 b 612 434 569 496 587 463 b 706 357 638 403 670 377 b 762 332 724 347 742 339 b 776 327 767 330 772 329 b 781 326 778 327 780 326 l 784 325 b 790 324 786 325 788 324 b 820 320 801 322 812 321 l 821 320 b 834 305 828 319 834 313 b 819 291 833 297 827 291 l 819 291 b 789 293 810 291 801 292 b 760 297 780 294 770 295 b 702 310 740 300 721 304 b 597 368 660 324 625 343 b 559 415 582 382 569 398 b 535 471 548 433 540 452 b 529 528 530 490 528 509 b 527 532 528 529 528 531 b 514 663 515 575 511 619 b 523 728 516 685 519 707 b 537 791 527 751 532 771 b 580 913 548 833 563 874 b 645 1026 598 953 620 991 b 733 1122 670 1061 700 1094 b 785 1162 749 1137 767 1150 b 842 1195 803 1174 822 1185 b 966 1236 881 1214 923 1228 b 1032 1241 988 1240 1010 1241 b 1099 1232 1055 1241 1077 1238 b 1160 1201 1120 1225 1141 1215 b 1187 1178 1170 1195 1179 1187 b 1377 1216 1249 1195 1313 1208 b 1488 1228 1412 1220 1447 1224 b 1557 1300 1509 1254 1532 1278 b 1612 1341 1573 1315 1592 1329 b 1647 1354 1623 1347 1634 1351 b 1668 1356 1653 1356 1661 1357 b 1679 1354 1672 1356 1676 1355 b 1691 1348 1684 1352 1687 1351 b 1706 1326 1698 1343 1704 1335 b 1707 1304 1708 1319 1709 1311 b 1691 1268 1705 1291 1700 1279 b 1666 1243 1684 1259 1675 1250 b 1636 1225 1656 1236 1646 1230 b 1620 1218 1631 1223 1626 1221 b 1603 1213 1614 1216 1609 1215 b 1570 1208 1592 1211 1581 1209 b 1551 1206 1563 1208 1556 1207 b 1530 1171 1544 1195 1537 1184 b 1557 1182 1539 1176 1548 1180 b 1592 1182 1569 1183 1580 1184 b 1608 1179 1597 1181 1603 1180 b 1624 1174 1613 1177 1618 1176 b 1654 1162 1634 1171 1644 1167 b 1711 1124 1675 1152 1694 1140 b 1736 1097 1720 1116 1729 1107 b 1756 1065 1744 1087 1751 1077 b 1770 1029 1762 1054 1766 1041 b 1772 1019 1770 1026 1771 1023 b 1773 1010 1772 1017 1773 1013 b 1775 990 1774 1003 1775 997 m 543 235 b 535 235 540 235 537 235 b 475 226 514 235 494 232 b 448 215 465 223 456 219 b 426 198 440 210 433 204 b 413 176 421 191 416 184 b 410 163 411 172 410 167 b 409 160 410 162 409 161 b 409 156 409 159 409 157 b 408 151 408 154 408 152 b 413 130 408 143 410 136 b 429 110 418 122 423 116 b 478 78 444 97 460 86 b 534 56 496 69 515 62 b 594 41 554 50 574 45 b 654 33 614 37 634 34 b 684 33 664 32 674 32 b 715 35 697 33 707 34 l 720 35 b 737 38 726 36 732 37 b 783 103 754 58 769 80 b 814 160 794 122 805 141 b 776 178 800 167 787 173 b 658 220 738 196 698 210 b 596 231 637 225 617 229 b 565 234 586 233 576 234 b 543 235 557 235 550 235 m 682 715 l 682 715 b 723 716 695 717 709 717 b 723 720 723 717 723 719 b 728 753 724 731 726 742 b 736 786 730 764 733 775 b 740 799 737 790 738 795 l 741 804 b 746 818 743 809 744 813 b 808 935 761 860 782 899 b 897 1034 834 972 864 1005 b 901 1037 899 1035 900 1036 b 910 1044 904 1039 907 1042 b 915 1048 912 1046 913 1047 b 923 1055 917 1050 920 1052 b 928 1058 925 1056 926 1057 b 936 1064 930 1060 933 1062 b 941 1068 938 1065 940 1067 b 950 1074 944 1070 947 1072 b 1006 1108 967 1085 986 1097 b 1126 1159 1045 1128 1085 1145 b 1155 1169 1136 1163 1145 1166 b 1143 1178 1151 1172 1147 1175 b 1090 1204 1127 1189 1109 1198 b 1032 1213 1071 1210 1051 1213 b 1028 1213 1030 1213 1029 1213 b 971 1208 1009 1213 990 1211 b 854 1169 930 1201 891 1188 b 801 1138 836 1160 818 1150 b 752 1101 784 1127 767 1114 b 668 1009 720 1073 692 1043 b 607 901 644 975 623 939 b 565 784 589 863 576 824 b 551 722 560 765 555 745 b 543 661 547 702 544 682 b 544 598 541 640 542 619 b 616 688 558 635 583 666 b 673 713 633 700 652 709 m 1228 1026 b 1213 1084 1225 1046 1220 1065 b 1185 1137 1206 1103 1197 1121 b 1177 1147 1183 1140 1180 1144 b 1137 1131 1162 1142 1149 1136 b 928 998 1063 1100 993 1055 b 790 801 867 945 819 877 b 771 744 782 783 776 763 b 764 705 768 731 766 718 b 793 688 774 700 783 695 b 837 646 809 676 824 662 b 887 544 859 618 876 584 l 887 544 l 889 539 b 899 486 893 521 897 504 b 983 496 927 483 956 486 b 1037 524 1002 503 1020 512 b 1083 564 1054 536 1069 549 b 1156 665 1112 595 1136 629 b 1204 780 1175 702 1191 741 b 1219 841 1210 800 1215 820 b 1229 902 1224 861 1227 881 b 1228 1026 1234 943 1234 985 m 761 675 b 763 625 760 658 760 641 b 779 569 765 606 771 587 b 794 544 783 560 788 552 b 814 522 800 536 806 529 b 837 506 821 516 829 510 b 865 494 846 501 855 497 l 867 493 b 870 492 868 493 869 492 b 862 531 868 505 865 519 b 815 629 851 570 836 602 b 776 665 804 642 791 655 b 761 675 771 669 766 672 m 890 303 b 848 168 881 257 867 211 b 890 145 862 160 876 153 l 899 141 b 915 132 904 138 910 135 b 961 184 932 149 947 166 b 1028 285 986 216 1008 250 b 1057 339 1038 303 1048 321 b 1085 395 1067 357 1076 376 b 1135 508 1101 430 1118 467 b 1181 624 1151 546 1167 585 b 1225 741 1196 663 1211 702 l 1236 771 b 1248 801 1240 782 1244 792 b 1272 862 1256 824 1264 843 b 1327 980 1289 901 1307 941 b 1358 1037 1337 999 1347 1018 b 1392 1094 1368 1054 1379 1073 b 1466 1201 1415 1130 1440 1166 b 1379 1193 1438 1199 1409 1196 b 1255 1171 1338 1188 1296 1181 b 1225 1163 1245 1168 1235 1166 b 1206 1157 1218 1161 1212 1159 b 1208 1154 1207 1156 1207 1155 b 1240 1094 1221 1135 1232 1115 b 1256 1030 1247 1073 1252 1052 b 1257 899 1262 986 1262 942 b 1247 835 1255 877 1251 856 b 1229 772 1242 815 1237 794 b 1177 654 1216 731 1198 691 b 1099 549 1153 612 1127 578 b 1049 507 1083 534 1067 520 b 990 477 1030 495 1011 485 b 924 464 969 469 947 465 b 901 465 917 464 909 464 b 903 422 902 451 903 436 b 891 305 902 383 898 344 l 890 303 m 1668 1092 b 1636 1133 1661 1108 1650 1122 b 1588 1153 1622 1144 1606 1151 b 1562 1152 1579 1154 1571 1154 b 1540 1144 1554 1151 1547 1148 b 1526 1127 1534 1140 1529 1134 b 1520 1102 1522 1119 1521 1111 b 1511 1092 1521 1096 1516 1092 b 1500 1101 1505 1091 1500 1095 b 1499 1110 1499 1104 1499 1107 b 1473 1051 1490 1091 1482 1072 b 1427 935 1458 1017 1444 980 b 1383 818 1414 901 1400 865 l 1362 759 l 1346 712 b 1406 708 1367 712 1387 710 b 1411 708 1408 708 1409 708 l 1411 707 b 1454 717 1426 710 1440 713 b 1481 726 1463 719 1473 722 b 1507 738 1490 729 1499 733 b 1590 809 1540 755 1568 779 b 1619 853 1601 823 1611 838 b 1641 901 1627 869 1635 885 b 1659 951 1647 916 1653 933 b 1663 963 1661 956 1662 959 b 1666 975 1664 966 1665 971 b 1671 998 1668 982 1670 990 b 1677 1044 1675 1013 1677 1028 b 1675 1068 1677 1052 1677 1060 b 1668 1092 1674 1076 1671 1084 m 884 125 b 839 148 869 132 854 140 b 807 89 829 128 818 108 b 779 47 798 74 789 61 b 802 55 787 49 795 52 b 828 67 810 58 819 62 b 854 82 837 72 845 77 b 878 99 862 88 870 93 b 899 117 885 105 892 111 b 889 122 896 119 893 121 l 884 125 m 1018 133 b 981 99 1006 121 994 110 b 1012 84 992 94 1002 89 b 1071 60 1033 75 1052 67 b 1130 42 1092 53 1111 47 b 1252 30 1176 31 1216 27 b 1370 59 1293 33 1332 43 b 1466 125 1406 75 1438 97 b 1504 168 1480 138 1493 153 b 1519 192 1509 175 1514 183 b 1533 216 1524 199 1528 206 b 1571 321 1550 249 1563 285 b 1579 377 1575 340 1578 358 b 1583 433 1581 398 1582 416 b 1569 540 1583 476 1578 509 l 1566 546 b 1565 549 1566 547 1565 548 b 1564 552 1565 550 1564 551 b 1561 558 1563 554 1562 556 b 1560 561 1561 559 1561 560 b 1559 564 1560 562 1559 563 b 1545 588 1555 572 1550 580 b 1508 629 1535 603 1522 617 l 1508 629 b 1402 682 1480 653 1443 671 l 1401 682 b 1398 682 1400 682 1399 682 b 1335 684 1377 681 1356 682 b 1294 578 1321 645 1308 611 b 1178 345 1258 491 1219 414 b 1166 326 1174 338 1170 332 b 1161 317 1165 323 1163 320 b 1156 309 1159 314 1157 311 b 1143 289 1152 302 1147 295 b 1105 235 1131 271 1118 252 b 1063 183 1091 216 1077 199 b 1018 133 1048 165 1033 148 m 1592 1265 b 1571 1237 1585 1256 1578 1247 b 1596 1242 1579 1238 1588 1240 b 1609 1246 1601 1243 1605 1245 b 1623 1252 1614 1248 1618 1250 b 1666 1287 1642 1262 1657 1274 b 1676 1309 1671 1293 1675 1301 b 1676 1318 1677 1312 1677 1315 b 1674 1321 1675 1319 1675 1321 b 1669 1322 1672 1322 1670 1322 b 1667 1322 1668 1322 1668 1322 b 1657 1320 1664 1322 1660 1321 b 1634 1307 1649 1317 1641 1312 b 1592 1266 1619 1295 1605 1281 l 1592 1265 "},"C":{"ha":1213,"x_min":0,"x_max":0,"o":"m 1411 1224 b 1417 1187 1416 1212 1418 1200 l 1417 1187 b 1409 1151 1416 1174 1413 1162 b 1392 1120 1404 1140 1399 1130 b 1345 1070 1380 1101 1364 1084 b 1287 1037 1327 1057 1308 1046 b 1226 1015 1267 1028 1247 1021 b 1163 1000 1206 1009 1186 1004 b 1035 981 1125 992 1084 986 b 908 972 997 978 957 974 b 844 968 883 970 863 969 l 836 968 b 813 967 829 967 821 967 b 781 965 803 966 792 965 b 656 950 738 961 696 956 b 608 941 640 947 624 944 b 476 762 560 884 516 825 b 416 658 453 727 433 692 b 391 604 407 640 399 622 b 368 549 383 587 376 569 b 335 437 354 512 343 475 b 326 380 331 418 328 399 b 324 323 323 361 323 342 b 348 213 325 285 333 248 b 414 118 363 177 386 145 b 461 82 429 105 444 93 b 515 55 478 71 496 62 b 634 29 553 40 593 31 b 712 32 660 27 686 28 b 692 57 704 40 698 48 b 666 122 679 77 671 99 b 660 190 661 144 659 167 b 669 257 661 212 664 235 b 678 289 672 269 675 280 b 691 321 682 301 686 311 b 763 433 709 362 733 400 b 864 519 792 467 826 495 b 924 548 883 530 903 540 b 990 561 945 556 967 560 b 1024 559 1001 562 1012 561 b 1056 549 1035 557 1046 554 b 1086 530 1067 545 1077 538 b 1098 516 1090 526 1094 521 b 1107 501 1101 512 1104 506 b 1118 468 1112 491 1116 480 b 1122 434 1121 457 1122 446 b 1118 367 1123 412 1122 389 b 1101 303 1114 345 1108 324 b 1074 242 1093 282 1085 261 b 994 135 1052 199 1025 163 l 975 118 l 962 108 l 949 98 l 942 93 b 886 59 924 81 905 70 b 770 17 849 41 810 26 b 806 -4 782 9 794 2 b 864 -24 825 -12 844 -19 b 925 -35 884 -29 904 -33 b 1039 -44 963 -40 1001 -42 l 1061 -46 b 1179 -54 1100 -48 1139 -50 b 1242 -61 1203 -56 1223 -58 b 1306 -73 1264 -64 1285 -68 b 1337 -84 1316 -76 1327 -80 b 1367 -100 1348 -88 1358 -94 b 1378 -109 1371 -103 1375 -106 b 1383 -114 1380 -111 1381 -112 l 1389 -119 l 1387 -121 b 1391 -129 1388 -123 1390 -126 b 1394 -166 1396 -140 1397 -153 l 1393 -173 l 1372 -169 l 1374 -162 b 1372 -136 1376 -153 1375 -144 b 1365 -126 1370 -133 1368 -129 b 1345 -115 1359 -121 1352 -117 b 1317 -107 1336 -111 1327 -108 b 1256 -104 1297 -104 1276 -103 b 1193 -110 1237 -105 1217 -107 b 1131 -121 1174 -113 1154 -117 b 991 -150 1084 -130 1037 -140 b 882 -173 955 -158 918 -166 b 629 -213 781 -194 703 -206 b 518 -218 591 -216 554 -218 b 373 -207 469 -218 421 -214 b 247 -175 330 -200 288 -190 b 129 -118 206 -161 166 -142 b 27 -35 92 -95 58 -67 b -47 76 -3 -2 -28 35 b -84 204 -66 117 -78 160 b -84 337 -90 248 -90 293 b -54 466 -79 381 -68 424 b 3 584 -39 507 -20 547 b 84 688 26 622 53 657 b 87 692 85 690 86 691 b 95 700 90 695 93 698 l 107 711 b 118 721 111 714 114 718 l 123 725 b 132 733 126 727 129 730 b 183 773 146 745 162 758 b 236 810 198 784 215 796 b 291 843 252 820 271 832 b 406 901 328 865 366 884 l 420 907 l 435 913 b 440 915 437 914 438 914 b 548 1030 473 955 509 994 b 597 1074 564 1045 580 1059 b 610 1084 601 1077 606 1081 l 622 1095 l 642 1110 l 662 1125 l 683 1139 l 704 1153 b 761 1187 719 1163 739 1175 b 1005 1283 838 1229 920 1261 b 1134 1305 1047 1293 1090 1300 b 1199 1308 1155 1307 1177 1308 b 1232 1308 1209 1308 1220 1308 b 1265 1306 1243 1307 1254 1307 b 1330 1292 1287 1303 1309 1299 b 1362 1278 1341 1288 1352 1283 b 1390 1256 1372 1272 1382 1264 b 1411 1224 1399 1247 1406 1236 m 632 968 b 652 971 639 969 645 970 b 779 987 693 978 736 984 b 811 989 790 988 801 989 l 843 991 b 906 996 864 993 885 994 b 1032 1008 955 999 995 1003 b 1157 1028 1081 1014 1120 1020 b 1275 1065 1205 1038 1242 1050 b 1326 1096 1293 1073 1310 1083 b 1367 1138 1342 1107 1356 1121 b 1386 1189 1379 1156 1385 1173 b 1383 1213 1387 1197 1386 1205 b 1369 1234 1380 1221 1375 1228 b 1320 1262 1357 1246 1341 1255 b 1262 1273 1301 1268 1282 1272 b 1237 1274 1253 1274 1244 1274 b 1231 1274 1235 1274 1233 1274 b 1200 1273 1221 1274 1210 1274 b 1139 1266 1180 1272 1159 1269 b 1019 1236 1098 1259 1058 1249 b 801 1123 941 1209 868 1171 b 753 1086 783 1110 766 1096 l 735 1071 l 718 1056 l 701 1040 l 685 1024 b 678 1017 683 1022 680 1019 b 664 1003 673 1012 668 1007 b 632 968 654 992 644 981 m 1060 524 b 1056 526 1059 524 1058 525 b 1054 527 1056 526 1055 527 b 1053 528 1054 527 1053 528 b 1048 530 1051 529 1050 529 l 1048 530 b 991 540 1030 538 1011 541 b 934 524 971 538 952 533 b 883 492 916 516 898 505 b 799 404 854 470 827 441 b 736 300 774 372 753 337 b 724 273 731 290 728 281 b 715 245 721 264 718 254 b 707 216 712 236 710 226 b 702 186 705 205 703 195 b 700 157 701 177 700 167 b 702 128 700 147 700 137 b 719 73 704 109 710 90 b 735 49 723 65 729 57 b 745 38 738 45 741 41 b 757 41 749 39 753 40 b 870 88 797 51 835 67 b 920 123 888 98 904 110 l 926 128 l 938 138 l 949 148 l 960 159 l 965 164 b 1001 212 978 179 990 195 b 1033 264 1013 230 1024 247 b 1082 376 1053 299 1069 337 b 1093 435 1088 395 1092 415 b 1093 464 1094 444 1094 454 b 1090 478 1092 469 1091 473 b 1086 491 1089 483 1088 487 b 1071 515 1082 500 1077 508 b 1060 523 1068 518 1064 521 m 796 -26 b 738 7 776 -18 756 -7 b 735 9 737 8 736 9 b 633 2 702 4 667 1 b 568 8 612 3 590 4 b 504 23 546 11 525 16 b 442 47 483 29 462 37 b 384 82 422 57 402 68 b 332 126 365 95 348 110 b 289 181 316 143 301 162 b 236 312 263 221 245 265 b 227 382 231 335 228 359 b 228 452 226 405 226 429 b 255 588 232 498 241 543 b 306 713 268 631 285 673 b 375 829 327 753 350 792 b 411 879 387 846 399 862 b 400 874 407 877 403 875 l 386 867 b 377 863 383 866 380 864 b 358 853 371 860 364 857 b 303 823 340 845 323 835 l 290 814 b 281 809 287 813 284 811 b 277 806 280 808 278 807 b 257 792 270 801 263 796 b 251 787 255 790 253 789 b 203 748 235 775 218 762 b 157 705 185 732 170 718 b 147 694 154 702 150 698 l 146 694 b 143 690 145 693 144 692 b 136 683 141 688 138 685 l 114 660 b 41 561 87 629 62 596 b -37 331 -1 489 -28 410 b -6 94 -47 248 -36 166 b 58 -8 10 57 32 23 b 148 -90 84 -39 115 -67 b 257 -147 182 -113 219 -132 b 377 -180 296 -162 336 -173 b 502 -192 418 -187 460 -191 b 627 -189 544 -193 586 -192 b 878 -153 700 -184 780 -172 b 1002 -127 920 -145 961 -136 l 1010 -125 b 1127 -101 1049 -117 1088 -109 b 1254 -84 1168 -94 1211 -87 b 1260 -84 1256 -84 1258 -84 b 1240 -81 1253 -83 1246 -82 b 1177 -74 1221 -78 1201 -76 b 1057 -66 1137 -70 1097 -68 b 923 -56 1013 -63 968 -61 b 796 -26 874 -51 832 -41 "},"Ç":{"ha":1213,"x_min":0,"x_max":0,"o":"m 1411 1224 b 1390 1256 1406 1236 1399 1247 b 1362 1278 1382 1264 1372 1272 b 1330 1292 1352 1283 1341 1288 b 1265 1306 1309 1299 1287 1303 b 1232 1308 1254 1307 1243 1307 b 1199 1308 1220 1308 1209 1308 b 1134 1305 1177 1308 1155 1307 b 1005 1283 1090 1300 1047 1293 b 761 1187 920 1261 838 1229 b 704 1153 739 1175 719 1163 l 683 1139 l 662 1125 l 642 1110 l 622 1095 l 610 1084 b 597 1074 606 1081 601 1077 b 548 1030 580 1059 564 1045 b 440 915 509 994 473 955 b 435 913 438 914 437 914 l 420 907 l 406 901 b 291 843 366 884 328 865 b 236 810 271 832 252 820 b 183 773 215 796 198 784 b 132 733 162 758 146 745 b 123 725 129 730 126 727 l 118 721 b 107 711 114 718 111 714 l 95 700 b 87 692 93 698 90 695 b 84 688 86 691 85 690 b 3 584 53 657 26 622 b -54 466 -20 547 -39 507 b -84 337 -68 424 -79 381 b -84 204 -90 293 -90 248 b -47 76 -78 160 -66 117 b 27 -35 -28 35 -3 -2 b 129 -118 58 -67 92 -95 b 247 -175 166 -142 206 -161 b 373 -207 288 -190 330 -200 b 518 -218 421 -214 469 -218 b 629 -213 554 -218 591 -216 b 882 -173 703 -206 781 -194 b 991 -150 918 -166 955 -158 b 1131 -121 1037 -140 1084 -130 b 1193 -110 1154 -117 1174 -113 b 1256 -104 1217 -107 1237 -105 b 1317 -107 1276 -103 1297 -104 b 1345 -115 1327 -108 1336 -111 b 1365 -126 1352 -117 1359 -121 b 1372 -136 1368 -129 1370 -133 b 1374 -162 1375 -144 1376 -153 l 1372 -169 l 1393 -173 l 1394 -166 b 1391 -129 1397 -153 1396 -140 b 1387 -121 1390 -126 1388 -123 l 1389 -119 l 1383 -114 b 1378 -109 1381 -112 1380 -111 b 1367 -100 1375 -106 1371 -103 b 1337 -84 1358 -94 1348 -88 b 1306 -73 1327 -80 1316 -76 b 1242 -61 1285 -68 1264 -64 b 1179 -54 1223 -58 1203 -56 b 1061 -46 1139 -50 1100 -48 l 1039 -44 b 925 -35 1001 -42 963 -40 b 864 -24 904 -33 884 -29 b 806 -4 844 -19 825 -12 b 770 17 794 2 782 9 b 886 59 810 26 849 41 b 942 93 905 70 924 81 l 949 98 l 962 108 l 975 118 l 994 135 b 1074 242 1025 163 1052 199 b 1101 303 1085 261 1093 282 b 1118 367 1108 324 1114 345 b 1122 434 1122 389 1123 412 b 1118 468 1122 446 1121 457 b 1107 501 1116 480 1112 491 b 1098 516 1104 506 1101 512 b 1086 530 1094 521 1090 526 b 1056 549 1077 538 1067 545 b 1024 559 1046 554 1035 557 b 990 561 1012 561 1001 562 b 924 548 967 560 945 556 b 864 519 903 540 883 530 b 763 433 826 495 792 467 b 691 321 733 400 709 362 b 678 289 686 311 682 301 b 669 257 675 280 672 269 b 660 190 664 235 661 212 b 666 122 659 167 661 144 b 692 57 671 99 679 77 b 712 32 698 48 704 40 b 634 29 686 28 660 27 b 515 55 593 31 553 40 b 461 82 496 62 478 71 b 414 118 444 93 429 105 b 348 213 386 145 363 177 b 324 323 333 248 325 285 b 326 380 323 342 323 361 b 335 437 328 399 331 418 b 368 549 343 475 354 512 b 391 604 376 569 383 587 b 416 658 399 622 407 640 b 476 762 433 692 453 727 b 608 941 516 825 560 884 b 656 950 624 944 640 947 b 781 965 696 956 738 961 b 813 967 792 965 803 966 b 836 968 821 967 829 967 l 844 968 b 908 972 863 969 883 970 b 1035 981 957 974 997 978 b 1163 1000 1084 986 1125 992 b 1226 1015 1186 1004 1206 1009 b 1287 1037 1247 1021 1267 1028 b 1345 1070 1308 1046 1327 1057 b 1392 1120 1364 1084 1380 1101 b 1409 1151 1399 1130 1404 1140 b 1417 1187 1413 1162 1416 1174 l 1417 1187 b 1411 1224 1418 1200 1416 1212 m 632 968 b 664 1003 644 981 654 992 b 678 1017 668 1007 673 1012 b 685 1024 680 1019 683 1022 l 701 1040 l 718 1056 l 735 1071 l 753 1086 b 801 1123 766 1096 783 1110 b 1019 1236 868 1171 941 1209 b 1139 1266 1058 1249 1098 1259 b 1200 1273 1159 1269 1180 1272 b 1231 1274 1210 1274 1221 1274 b 1237 1274 1233 1274 1235 1274 b 1262 1273 1244 1274 1253 1274 b 1320 1262 1282 1272 1301 1268 b 1369 1234 1341 1255 1357 1246 b 1383 1213 1375 1228 1380 1221 b 1386 1189 1386 1205 1387 1197 b 1367 1138 1385 1173 1379 1156 b 1326 1096 1356 1121 1342 1107 b 1275 1065 1310 1083 1293 1073 b 1157 1028 1242 1050 1205 1038 b 1032 1008 1120 1020 1081 1014 b 906 996 995 1003 955 999 b 843 991 885 994 864 993 l 811 989 b 779 987 801 989 790 988 b 652 971 736 984 693 978 b 632 968 645 970 639 969 m 1060 523 b 1071 515 1064 521 1068 518 b 1086 491 1077 508 1082 500 b 1090 478 1088 487 1089 483 b 1093 464 1091 473 1092 469 b 1093 435 1094 454 1094 444 b 1082 376 1092 415 1088 395 b 1033 264 1069 337 1053 299 b 1001 212 1024 247 1013 230 b 965 164 990 195 978 179 l 960 159 l 949 148 l 938 138 l 926 128 l 920 123 b 870 88 904 110 888 98 b 757 41 835 67 797 51 b 745 38 753 40 749 39 b 735 49 741 41 738 45 b 719 73 729 57 723 65 b 702 128 710 90 704 109 b 700 157 700 137 700 147 b 702 186 700 167 701 177 b 707 216 703 195 705 205 b 715 245 710 226 712 236 b 724 273 718 254 721 264 b 736 300 728 281 731 290 b 799 404 753 337 774 372 b 883 492 827 441 854 470 b 934 524 898 505 916 516 b 991 540 952 533 971 538 b 1048 530 1011 541 1030 538 l 1048 530 b 1053 528 1050 529 1051 529 b 1054 527 1053 528 1054 527 b 1056 526 1055 527 1056 526 b 1060 524 1058 525 1059 524 m 796 -26 b 923 -56 832 -41 874 -51 b 1057 -66 968 -61 1013 -63 b 1177 -74 1097 -68 1137 -70 b 1240 -81 1201 -76 1221 -78 b 1260 -84 1246 -82 1253 -83 b 1254 -84 1258 -84 1256 -84 b 1127 -101 1211 -87 1168 -94 b 1010 -125 1088 -109 1049 -117 l 1002 -127 b 878 -153 961 -136 920 -145 b 627 -189 780 -172 700 -184 b 502 -192 586 -192 544 -193 b 377 -180 460 -191 418 -187 b 257 -147 336 -173 296 -162 b 148 -90 219 -132 182 -113 b 58 -8 115 -67 84 -39 b -6 94 32 23 10 57 b -37 331 -36 166 -47 248 b 41 561 -28 410 -1 489 b 114 660 62 596 87 629 l 136 683 b 143 690 138 685 141 688 b 146 694 144 692 145 693 l 147 694 b 157 705 150 698 154 702 b 203 748 170 718 185 732 b 251 787 218 762 235 775 b 257 792 253 789 255 790 b 277 806 263 796 270 801 b 281 809 278 807 280 808 b 290 814 284 811 287 813 l 303 823 b 358 853 323 835 340 845 b 377 863 364 857 371 860 b 386 867 380 864 383 866 l 400 874 b 411 879 403 875 407 877 b 375 829 399 862 387 846 b 306 713 350 792 327 753 b 255 588 285 673 268 631 b 228 452 241 543 232 498 b 227 382 226 429 226 405 b 236 312 228 359 231 335 b 289 181 245 265 263 221 b 332 126 301 162 316 143 b 384 82 348 110 365 95 b 442 47 402 68 422 57 b 504 23 462 37 483 29 b 568 8 525 16 546 11 b 633 2 590 4 612 3 b 735 9 667 1 702 4 b 738 7 736 9 737 8 b 796 -26 756 -7 776 -18 "},"D":{"ha":1521,"x_min":0,"x_max":0,"o":"m 1948 -124 l 1942 -128 b 1910 -149 1932 -136 1921 -143 b 1877 -163 1899 -154 1888 -159 b 1808 -184 1854 -172 1831 -178 b 1666 -206 1761 -194 1714 -202 b 1382 -213 1572 -215 1477 -218 b 1099 -184 1287 -209 1193 -199 b 822 -117 1005 -169 912 -146 b 559 -4 726 -86 637 -48 b 548 2 556 -2 552 0 b 444 -101 516 -35 481 -69 b 385 -145 425 -117 405 -131 b 354 -165 374 -152 364 -159 b 321 -182 342 -171 331 -177 b 180 -221 274 -205 226 -219 b 160 -222 173 -221 167 -222 b 143 -221 155 -222 149 -221 b 107 -219 133 -221 122 -220 b 36 -206 83 -216 59 -212 b -34 -178 11 -200 -12 -191 b -66 -156 -45 -172 -56 -164 b -92 -126 -76 -147 -85 -137 b -115 -47 -108 -102 -116 -75 b -94 30 -114 -22 -107 4 b -89 38 -92 33 -91 35 b -84 47 -87 41 -86 44 b -72 63 -80 52 -76 58 b -43 90 -63 73 -54 82 b 23 127 -23 105 -1 118 b 58 138 34 131 46 135 b 94 145 69 140 80 143 b 167 151 118 149 143 151 b 310 132 215 150 263 144 b 446 87 357 120 402 105 b 502 61 464 79 482 71 b 528 105 510 76 519 90 b 516 112 524 108 520 110 b 426 157 487 129 457 144 b 330 190 395 170 363 181 b 231 211 298 199 265 206 b 130 221 198 216 164 220 b 29 218 97 223 63 221 b -68 195 -8 213 -40 206 b -111 172 -83 189 -98 182 b -142 138 -124 163 -134 151 l -145 131 l -164 141 l -160 148 b -123 189 -151 164 -138 178 b -75 214 -108 199 -92 208 b 27 238 -46 226 -14 233 b 131 243 62 242 96 244 b 235 235 166 242 200 239 b 437 184 304 225 372 208 b 532 141 470 172 502 158 b 544 135 536 139 540 137 b 559 165 549 145 554 155 b 590 227 570 184 579 204 b 604 258 595 237 600 247 b 617 287 609 268 613 278 l 618 289 b 672 417 635 328 652 368 b 723 546 689 460 706 503 b 735 579 727 557 731 568 b 742 598 737 585 740 592 b 747 612 744 603 746 607 b 754 629 749 617 752 623 b 773 679 760 645 766 662 b 893 941 812 778 851 864 b 969 1066 918 987 943 1028 b 1060 1182 996 1107 1026 1145 b 1142 1255 1088 1212 1115 1236 b 1103 1270 1129 1260 1116 1265 b 663 1216 955 1316 795 1297 b 696 1179 676 1206 688 1193 b 718 1130 706 1164 713 1147 b 733 1025 728 1100 732 1065 b 724 921 733 990 730 956 b 699 820 718 887 710 853 b 661 723 689 787 676 754 b 607 633 645 691 627 661 b 532 558 583 602 558 577 b 484 533 517 548 501 540 b 431 520 467 526 449 521 b 374 533 411 519 391 523 l 374 533 b 333 574 357 543 343 557 b 313 626 324 590 317 608 b 306 681 309 644 306 663 b 309 735 306 699 307 717 b 319 787 311 753 315 770 b 351 888 327 822 338 856 b 398 983 365 921 380 953 b 456 1071 416 1013 435 1043 b 488 1112 465 1084 476 1097 b 525 1151 500 1125 512 1138 b 608 1217 551 1175 578 1197 l 609 1218 b 603 1219 607 1218 605 1219 b 556 1219 587 1221 571 1221 b 463 1187 523 1214 492 1203 b 382 1129 433 1171 406 1152 b 316 1054 357 1106 335 1081 b 263 969 296 1027 278 999 b 224 878 248 940 235 909 b 187 683 202 815 189 750 b 193 585 186 650 188 617 b 204 537 196 569 199 553 b 211 513 206 528 208 520 l 215 502 b 216 498 215 501 215 499 b 219 491 217 496 218 493 b 243 450 225 476 233 463 b 276 417 252 438 264 427 b 364 381 302 398 332 385 b 460 388 396 376 429 378 b 545 436 491 398 520 414 b 605 514 569 458 590 485 b 637 608 620 544 631 576 l 639 616 l 659 612 l 658 604 b 623 505 650 570 639 536 b 595 460 615 489 605 474 b 578 440 589 452 582 445 b 559 421 572 433 565 427 b 467 366 532 396 501 378 b 360 355 433 355 396 351 b 258 392 324 359 289 372 b 236 409 251 397 243 403 b 217 429 229 415 223 422 b 186 475 205 443 194 459 b 182 485 184 478 183 482 b 180 488 181 486 181 487 l 180 488 b 177 496 179 491 178 493 b 175 500 176 498 176 499 b 166 526 172 509 169 517 b 153 578 161 543 156 560 b 143 684 146 613 143 648 b 183 892 144 755 158 826 b 290 1074 209 958 245 1020 b 364 1150 312 1102 337 1127 b 451 1209 390 1173 420 1192 b 500 1229 467 1217 483 1224 b 513 1233 504 1231 509 1232 l 519 1235 l 526 1237 b 552 1242 534 1239 543 1241 b 607 1241 570 1245 589 1244 b 634 1233 616 1240 625 1237 l 634 1233 b 700 1267 656 1246 678 1257 b 749 1286 718 1275 734 1281 b 799 1301 766 1292 782 1297 b 1008 1318 867 1319 938 1324 b 1111 1299 1043 1314 1077 1308 b 1124 1295 1115 1298 1119 1297 b 1137 1292 1128 1294 1133 1293 b 1149 1288 1141 1290 1145 1289 l 1150 1288 b 1162 1284 1154 1286 1158 1285 b 1178 1278 1167 1282 1172 1280 b 1210 1294 1188 1284 1199 1289 b 1247 1305 1222 1298 1234 1302 b 1285 1308 1259 1308 1272 1309 b 1324 1300 1298 1308 1312 1305 l 1381 1273 l 1319 1285 b 1303 1286 1314 1286 1309 1287 b 1287 1284 1298 1286 1293 1286 b 1257 1274 1277 1282 1266 1279 b 1228 1258 1247 1270 1237 1264 l 1227 1258 b 1259 1240 1238 1252 1249 1246 b 1304 1210 1275 1231 1290 1221 b 1382 1133 1333 1187 1360 1162 b 1442 1040 1406 1104 1425 1073 b 1480 935 1458 1006 1470 971 b 1498 826 1489 900 1495 863 b 1498 716 1501 789 1501 752 b 1455 503 1492 643 1478 572 b 1362 304 1433 433 1402 366 b 1215 141 1322 242 1273 187 b 1023 36 1158 95 1093 59 b 811 6 955 13 883 3 b 705 22 775 8 740 13 b 605 58 670 30 637 42 b 598 61 603 59 600 60 b 569 26 589 49 579 37 b 574 23 571 25 573 24 b 831 -88 651 -20 735 -56 b 1104 -155 920 -116 1011 -139 b 1243 -176 1150 -164 1196 -171 b 1383 -188 1289 -181 1337 -185 b 1664 -183 1477 -193 1571 -191 b 1803 -162 1711 -179 1757 -172 b 1869 -143 1825 -157 1848 -151 b 1901 -130 1880 -140 1891 -135 b 1929 -112 1911 -125 1920 -119 l 1935 -108 m 620 89 b 713 57 650 75 681 64 b 811 47 745 50 778 46 b 908 61 844 48 876 53 b 999 94 940 69 970 80 b 1153 209 1055 121 1107 160 b 1265 363 1197 255 1234 307 b 1306 449 1280 391 1294 420 b 1340 540 1319 479 1331 510 b 1386 728 1361 601 1376 664 b 1395 824 1391 760 1394 792 b 1391 919 1396 855 1395 887 b 1372 1011 1388 950 1381 981 b 1332 1098 1362 1042 1349 1071 b 1273 1173 1316 1125 1296 1150 b 1235 1204 1261 1184 1248 1194 b 1194 1230 1222 1213 1208 1222 b 1193 1231 1194 1230 1193 1230 b 1178 1216 1187 1226 1182 1221 b 1155 1191 1169 1208 1162 1200 b 1114 1138 1141 1174 1127 1156 b 1044 1020 1089 1100 1065 1061 b 985 896 1023 980 1003 938 b 932 768 967 854 949 811 b 884 637 917 728 901 686 l 873 604 l 862 571 b 858 561 861 568 859 565 b 850 537 856 553 853 545 b 838 503 846 526 842 515 b 783 369 821 458 803 413 b 717 240 762 324 740 281 b 639 117 693 198 667 156 b 619 90 633 108 626 99 m -58 -104 b -39 -128 -53 -113 -47 -121 b -15 -149 -32 -136 -24 -143 b 44 -179 3 -162 23 -172 b 110 -195 65 -187 87 -192 b 178 -196 133 -198 155 -198 b 244 -181 201 -194 223 -189 b 304 -151 265 -173 285 -163 b 359 -111 324 -139 342 -126 b 408 -64 377 -96 393 -80 b 485 35 436 -33 462 0 b 434 59 469 43 453 51 b 303 106 392 78 348 94 b 169 125 256 119 211 125 l 167 125 b 133 124 155 125 144 125 b 99 119 121 123 110 121 b 66 110 88 117 77 114 b 35 98 56 107 45 103 b -19 61 15 88 -3 76 b -41 38 -27 54 -34 46 b -49 25 -44 34 -47 29 b -53 18 -51 23 -52 21 l -54 17 b -57 11 -55 15 -56 13 b -73 -48 -67 -10 -72 -30 b -58 -104 -73 -68 -68 -87 m 387 555 b 429 545 400 548 415 544 b 475 555 445 546 461 549 b 498 565 483 558 490 561 b 518 577 505 569 512 573 b 589 647 543 594 566 617 b 641 732 609 673 627 702 b 679 826 656 763 669 794 b 703 925 690 858 698 891 b 712 1025 709 958 712 991 b 698 1124 711 1063 707 1095 b 678 1168 693 1139 686 1154 b 646 1202 670 1181 659 1193 b 643 1203 645 1202 644 1203 b 626 1191 637 1199 631 1195 b 551 1125 599 1171 574 1149 b 519 1087 541 1113 530 1101 b 489 1046 509 1074 499 1060 b 435 962 470 1019 452 991 b 391 872 419 932 404 902 b 359 778 378 841 367 810 b 344 681 351 746 346 713 b 344 656 344 673 344 665 b 346 632 345 649 345 641 b 359 588 348 617 352 602 b 371 569 362 581 366 575 b 387 555 376 564 381 559 "},"E":{"ha":1439,"x_min":0,"x_max":0,"o":"m 1827 -226 l 1817 -243 l 1810 -239 b 1738 -213 1791 -228 1768 -220 b 1660 -201 1713 -207 1686 -203 b 1581 -198 1637 -199 1612 -198 b 1501 -199 1556 -198 1529 -198 b 1238 -216 1413 -202 1324 -209 b 1180 -221 1218 -217 1199 -219 b 1019 -232 1129 -225 1074 -229 b 938 -235 992 -233 965 -234 b 857 -235 909 -235 882 -236 b 817 -233 844 -235 830 -234 b 789 -231 807 -233 798 -232 b 776 -230 785 -231 780 -230 b 750 -228 767 -229 758 -228 b 736 -226 745 -227 740 -226 l 735 -226 b 724 -224 731 -225 728 -225 b 695 -221 714 -223 705 -222 b 684 -219 691 -220 687 -219 b 655 -214 674 -217 664 -216 l 635 -210 l 615 -206 b 588 -200 606 -205 597 -202 b 575 -197 584 -199 579 -198 b 560 -193 570 -196 565 -195 l 553 -191 b 536 -187 547 -190 541 -188 l 516 -181 b 503 -177 512 -180 508 -178 b 497 -175 501 -176 499 -176 l 487 -172 b 481 -170 485 -171 483 -170 b 477 -168 480 -169 478 -169 l 458 -162 b 383 -130 431 -151 406 -141 b 310 -92 358 -119 334 -106 b 241 -47 286 -78 264 -63 b 121 65 197 -15 157 23 b 72 131 103 86 87 108 l 71 133 b 67 137 69 134 68 135 b 66 141 66 138 66 140 l 64 144 l 70 148 b 83 156 76 152 80 154 b 91 158 85 157 88 159 l 92 159 l 92 158 b 97 151 95 157 97 154 l 101 145 b 107 137 103 142 105 140 b 109 134 107 136 108 135 b 112 130 110 133 111 131 b 138 100 120 119 129 109 b 262 8 173 62 215 31 b 411 -37 309 -14 359 -30 b 568 -45 463 -46 515 -48 b 646 -37 594 -43 620 -41 b 723 -20 672 -33 698 -27 b 741 -15 730 -18 736 -16 l 760 -8 b 785 1 769 -5 777 -2 b 793 4 788 2 790 3 b 733 15 772 6 753 10 b 651 45 705 22 677 32 b 575 93 624 58 598 74 b 541 124 563 103 552 113 b 522 146 535 131 528 139 b 506 149 517 147 511 148 b 351 201 452 160 400 177 b 214 293 301 224 254 255 b 157 354 193 311 174 332 b 110 423 140 375 124 399 b 51 579 83 471 63 524 b 40 662 45 606 42 634 b 40 704 40 676 40 690 b 43 746 41 721 42 734 b 58 828 46 773 51 801 b 83 907 64 855 73 881 b 223 1111 115 984 162 1054 b 254 1139 232 1120 243 1129 b 265 1147 257 1141 261 1144 b 270 1151 266 1148 268 1150 l 270 1151 b 275 1155 272 1153 274 1154 b 287 1164 279 1158 283 1161 b 432 1240 332 1195 380 1221 b 511 1262 458 1249 484 1256 b 592 1274 537 1268 564 1272 b 606 1275 596 1274 601 1275 b 612 1275 608 1275 610 1275 l 612 1275 b 619 1275 614 1275 616 1275 b 633 1276 623 1276 628 1276 b 673 1274 644 1276 657 1275 b 714 1270 686 1273 700 1272 b 754 1263 728 1268 741 1266 b 912 1230 807 1255 860 1243 b 929 1225 918 1228 924 1227 b 963 1259 940 1237 951 1249 b 1042 1310 987 1280 1013 1297 b 1224 1327 1099 1337 1163 1342 l 1229 1326 b 1235 1324 1231 1325 1233 1325 l 1245 1320 b 1265 1312 1251 1318 1258 1315 b 1304 1292 1278 1307 1291 1300 b 1338 1262 1317 1284 1329 1274 b 1350 1241 1343 1256 1348 1249 b 1355 1217 1353 1233 1355 1225 b 1339 1172 1355 1201 1349 1185 b 1304 1144 1330 1160 1318 1150 b 1283 1136 1298 1140 1290 1138 b 1262 1133 1276 1135 1269 1134 b 1221 1130 1249 1131 1235 1130 b 1139 1142 1193 1131 1166 1135 b 1061 1166 1113 1149 1089 1157 b 1032 1176 1051 1169 1042 1172 b 1002 1128 1021 1161 1011 1145 b 975 1065 991 1108 982 1087 b 959 1000 968 1044 963 1022 b 953 937 955 980 953 958 b 956 908 953 927 954 917 b 957 903 956 906 957 904 b 958 900 957 902 957 901 b 958 898 958 900 958 899 l 959 896 b 960 893 959 895 960 894 b 962 886 961 891 961 889 b 980 884 969 886 975 885 b 1022 876 994 882 1008 879 b 1043 868 1029 874 1036 871 b 1063 853 1051 864 1058 859 b 1071 840 1067 849 1069 845 b 1070 823 1073 834 1072 828 b 1061 810 1068 818 1065 814 b 1050 803 1058 807 1054 805 b 1004 799 1037 798 1022 796 b 959 812 988 801 974 806 b 918 834 945 818 931 826 b 907 842 915 837 911 839 b 902 841 905 842 904 841 b 766 779 855 830 809 809 b 659 676 725 750 689 716 b 559 416 598 597 562 504 b 559 412 559 415 559 413 b 559 399 559 408 558 403 b 559 396 559 398 559 397 b 559 391 559 394 559 392 l 559 382 b 560 372 559 378 559 375 b 560 365 560 369 560 367 l 561 355 b 562 348 561 353 562 350 b 577 280 565 325 570 302 l 581 268 l 588 247 b 602 215 592 236 597 226 b 638 156 612 194 624 175 b 641 153 639 155 640 154 b 668 152 651 153 660 152 b 748 153 693 151 719 152 b 827 160 772 154 798 157 l 835 161 l 837 140 l 829 140 b 749 133 807 137 778 135 b 668 132 721 132 693 131 b 659 132 665 132 662 132 b 751 66 686 105 717 82 b 865 33 787 49 825 37 l 871 36 b 1010 111 920 57 966 82 b 1116 203 1054 141 1089 171 b 1112 201 1115 203 1113 202 b 1069 188 1098 195 1084 191 b 1025 186 1055 186 1040 185 b 982 193 1010 187 996 190 l 980 194 b 971 197 977 195 974 196 b 960 201 967 198 964 200 b 941 211 954 204 947 207 b 875 267 916 226 893 245 b 834 344 857 290 843 316 b 828 431 826 372 824 402 b 854 512 832 459 841 487 b 876 549 860 525 868 537 b 905 580 885 560 895 571 b 977 624 926 599 951 614 b 1142 636 1028 644 1085 648 b 1220 608 1169 630 1196 621 b 1287 556 1245 594 1268 577 b 1313 522 1297 545 1306 534 b 1332 483 1321 509 1327 496 b 1349 399 1343 456 1348 428 b 1340 315 1349 371 1346 342 b 1328 275 1336 301 1333 288 b 1312 236 1323 261 1318 248 b 1207 107 1289 187 1252 143 b 1137 62 1185 90 1161 75 b 1061 30 1113 50 1087 39 b 900 -1 1009 12 955 2 b 865 -1 888 -1 877 -1 l 847 -9 l 828 -17 b 822 -19 826 -17 824 -18 b 809 -24 818 -21 813 -22 b 796 -29 805 -26 800 -27 b 771 -38 788 -32 779 -35 l 752 -44 b 732 -51 746 -46 739 -48 b 651 -68 705 -58 678 -64 b 570 -76 624 -72 597 -75 b 406 -69 515 -80 460 -77 b 272 -31 360 -61 315 -49 b 326 -65 290 -43 308 -54 b 396 -102 349 -78 372 -91 b 469 -132 419 -112 443 -122 l 488 -139 b 491 -140 489 -139 490 -140 b 497 -142 493 -141 495 -141 l 506 -145 b 514 -147 509 -146 511 -147 b 525 -151 518 -149 521 -150 l 544 -157 b 563 -162 550 -159 557 -160 l 563 -162 b 570 -164 566 -162 568 -163 b 583 -167 574 -165 579 -166 b 595 -170 587 -168 591 -169 b 621 -176 604 -172 612 -174 l 641 -180 l 660 -183 b 688 -188 670 -185 679 -186 b 700 -190 692 -188 696 -189 b 728 -193 709 -191 719 -192 b 739 -195 732 -194 735 -194 b 753 -196 744 -195 748 -196 b 779 -199 761 -197 770 -198 b 792 -200 783 -199 788 -200 b 818 -202 801 -201 810 -202 b 858 -204 831 -203 845 -203 b 1018 -201 915 -205 970 -203 b 1178 -191 1073 -198 1130 -194 l 1187 -190 b 1339 -180 1236 -187 1288 -183 b 1500 -173 1403 -176 1453 -173 b 1662 -178 1554 -171 1608 -173 b 1743 -191 1690 -181 1717 -185 b 1821 -222 1775 -199 1800 -209 m 1060 622 b 986 603 1035 620 1010 614 b 953 585 974 598 963 592 b 924 561 942 578 933 570 b 900 532 915 552 907 542 b 882 499 893 521 887 510 b 862 426 872 476 865 452 b 868 354 858 402 861 377 b 903 290 875 330 887 309 b 959 242 918 271 937 255 b 975 234 964 239 969 236 b 983 231 978 232 981 231 b 990 229 985 230 987 229 l 991 228 b 1027 222 1003 225 1015 223 b 1098 233 1052 220 1076 224 b 1128 251 1109 238 1119 244 b 1152 277 1137 259 1145 268 b 1176 340 1165 296 1173 317 l 1176 340 b 1176 344 1176 342 1176 343 b 1176 346 1176 345 1176 345 b 1176 352 1175 348 1175 350 b 1201 357 1178 359 1185 358 l 1207 357 l 1208 351 b 1208 344 1209 349 1209 346 l 1208 342 b 1207 336 1208 340 1208 338 l 1207 333 b 1207 322 1207 329 1207 326 l 1207 321 b 1206 318 1207 320 1206 319 b 1205 310 1206 315 1206 313 b 1194 269 1203 296 1199 282 b 1175 230 1188 255 1182 243 b 1151 196 1168 218 1160 207 b 1028 85 1120 156 1079 120 b 934 31 998 65 967 47 b 1054 53 975 33 1015 40 b 1190 128 1103 69 1149 95 b 1283 250 1229 161 1261 203 b 1296 285 1288 261 1292 273 b 1306 323 1300 298 1304 310 b 1315 398 1312 347 1315 373 b 1302 472 1314 423 1310 448 b 1287 506 1298 484 1293 495 b 1266 537 1281 517 1274 528 b 1208 587 1249 557 1230 573 b 1137 615 1186 600 1162 610 b 1060 622 1112 621 1086 623 m 187 376 b 237 317 202 355 219 335 b 296 266 255 298 275 281 b 363 225 317 251 339 237 b 502 173 407 202 454 184 b 487 199 497 182 491 190 b 477 218 483 205 480 212 l 476 220 b 470 235 474 225 472 230 b 467 241 469 237 468 239 b 442 329 455 269 447 299 b 436 422 436 360 434 391 b 450 513 438 453 442 483 b 482 598 458 542 469 571 b 503 638 489 613 497 626 b 520 663 509 646 514 655 l 520 663 l 525 671 b 528 674 526 672 527 673 l 529 675 b 587 742 546 699 566 721 b 730 840 629 782 678 815 b 870 883 775 862 822 876 b 866 891 869 886 867 888 b 855 914 862 898 858 906 b 839 1013 843 946 837 979 b 859 1106 842 1045 848 1076 b 902 1189 870 1135 884 1163 b 917 1210 907 1196 912 1203 b 908 1213 914 1211 911 1212 b 751 1246 856 1226 804 1237 b 672 1255 725 1250 699 1254 b 633 1256 656 1256 644 1256 b 619 1256 628 1256 624 1256 b 613 1256 617 1256 615 1256 b 607 1255 611 1255 609 1255 b 593 1254 603 1255 598 1255 b 122 892 379 1235 196 1094 b 100 818 113 868 105 843 b 88 741 94 792 90 767 b 85 702 86 730 86 718 b 85 664 84 690 84 678 b 95 588 86 638 90 613 b 146 442 105 537 122 488 b 187 376 158 419 172 397 m 1027 821 b 1042 823 1032 820 1037 821 b 1047 826 1044 824 1046 825 b 1049 830 1048 827 1049 828 b 1046 835 1050 832 1048 834 b 1033 842 1042 838 1038 841 b 1016 846 1027 844 1021 845 l 1015 846 b 981 849 1004 847 993 848 b 984 846 982 848 983 847 b 1011 825 991 837 1001 830 b 1027 821 1016 823 1021 821 m 1087 1233 b 1044 1191 1071 1221 1056 1207 b 1067 1184 1051 1189 1059 1186 b 1144 1162 1089 1177 1117 1168 b 1221 1151 1169 1155 1195 1152 b 1259 1154 1234 1151 1247 1152 b 1278 1157 1266 1155 1272 1156 b 1295 1163 1284 1158 1290 1160 b 1321 1186 1305 1168 1314 1176 b 1330 1216 1327 1194 1331 1205 b 1317 1243 1329 1226 1325 1236 b 1288 1261 1309 1251 1299 1257 b 1253 1270 1277 1266 1265 1269 b 1234 1272 1246 1271 1240 1272 b 1228 1273 1232 1272 1230 1273 b 1225 1273 1227 1273 1226 1273 b 1219 1273 1223 1273 1221 1273 b 1215 1273 1218 1273 1216 1273 b 1146 1265 1192 1275 1168 1272 b 1087 1233 1125 1258 1105 1247 "},"È":{"ha":1439,"x_min":0,"x_max":0,"o":"m 1821 -222 b 1743 -191 1800 -209 1775 -199 b 1662 -178 1717 -185 1690 -181 b 1500 -173 1608 -173 1554 -171 b 1339 -180 1453 -173 1403 -176 b 1187 -190 1288 -183 1236 -187 l 1178 -191 b 1018 -201 1130 -194 1073 -198 b 858 -204 970 -203 915 -205 b 818 -202 845 -203 831 -203 b 792 -200 810 -202 801 -201 b 779 -199 788 -200 783 -199 b 753 -196 770 -198 761 -197 b 739 -195 748 -196 744 -195 b 728 -193 735 -194 732 -194 b 700 -190 719 -192 709 -191 b 688 -188 696 -189 692 -188 b 660 -183 679 -186 670 -185 l 641 -180 l 621 -176 b 595 -170 612 -174 604 -172 b 583 -167 591 -169 587 -168 b 570 -164 579 -166 574 -165 b 563 -162 568 -163 566 -162 l 563 -162 b 544 -157 557 -160 550 -159 l 525 -151 b 514 -147 521 -150 518 -149 b 506 -145 511 -147 509 -146 l 497 -142 b 491 -140 495 -141 493 -141 b 488 -139 490 -140 489 -139 l 469 -132 b 396 -102 443 -122 419 -112 b 326 -65 372 -91 349 -78 b 272 -31 308 -54 290 -43 b 406 -69 315 -49 360 -61 b 570 -76 460 -77 515 -80 b 651 -68 597 -75 624 -72 b 732 -51 678 -64 705 -58 b 752 -44 739 -48 746 -46 l 771 -38 b 796 -29 779 -35 788 -32 b 809 -24 800 -27 805 -26 b 822 -19 813 -22 818 -21 b 828 -17 824 -18 826 -17 l 847 -9 l 865 -1 b 900 -1 877 -1 888 -1 b 1061 30 955 2 1009 12 b 1137 62 1087 39 1113 50 b 1207 107 1161 75 1185 90 b 1312 236 1252 143 1289 187 b 1328 275 1318 248 1323 261 b 1340 315 1333 288 1336 301 b 1349 399 1346 342 1349 371 b 1332 483 1348 428 1343 456 b 1313 522 1327 496 1321 509 b 1287 556 1306 534 1297 545 b 1220 608 1268 577 1245 594 b 1142 636 1196 621 1169 630 b 977 624 1085 648 1028 644 b 905 580 951 614 926 599 b 876 549 895 571 885 560 b 854 512 868 537 860 525 b 828 431 841 487 832 459 b 834 344 824 402 826 372 b 875 267 843 316 857 290 b 941 211 893 245 916 226 b 960 201 947 207 954 204 b 971 197 964 200 967 198 b 980 194 974 196 977 195 l 982 193 b 1025 186 996 190 1010 187 b 1069 188 1040 185 1055 186 b 1112 201 1084 191 1098 195 b 1116 203 1113 202 1115 203 b 1010 111 1089 171 1054 141 b 871 36 966 82 920 57 l 865 33 b 751 66 825 37 787 49 b 659 132 717 82 686 105 b 668 132 662 132 665 132 b 749 133 693 131 721 132 b 829 140 778 135 807 137 l 837 140 l 835 161 l 827 160 b 748 153 798 157 772 154 b 668 152 719 152 693 151 b 641 153 660 152 651 153 b 638 156 640 154 639 155 b 602 215 624 175 612 194 b 588 247 597 226 592 236 l 581 268 l 577 280 b 562 348 570 302 565 325 b 561 355 562 350 561 353 l 560 365 b 560 372 560 367 560 369 b 559 382 559 375 559 378 l 559 391 b 559 396 559 392 559 394 b 559 399 559 397 559 398 b 559 412 558 403 559 408 b 559 416 559 413 559 415 b 659 676 562 504 598 597 b 766 779 689 716 725 750 b 902 841 809 809 855 830 b 907 842 904 841 905 842 b 918 834 911 839 915 837 b 959 812 931 826 945 818 b 1004 799 974 806 988 801 b 1050 803 1022 796 1037 798 b 1061 810 1054 805 1058 807 b 1070 823 1065 814 1068 818 b 1071 840 1072 828 1073 834 b 1063 853 1069 845 1067 849 b 1043 868 1058 859 1051 864 b 1022 876 1036 871 1029 874 b 980 884 1008 879 994 882 b 962 886 975 885 969 886 b 960 893 961 889 961 891 b 959 896 960 894 959 895 l 958 898 b 958 900 958 899 958 900 b 957 903 957 901 957 902 b 956 908 957 904 956 906 b 953 937 954 917 953 927 b 959 1000 953 958 955 980 b 975 1065 963 1022 968 1044 b 1002 1128 982 1087 991 1108 b 1032 1176 1011 1145 1021 1161 b 1061 1166 1042 1172 1051 1169 b 1139 1142 1089 1157 1113 1149 b 1221 1130 1166 1135 1193 1131 b 1262 1133 1235 1130 1249 1131 b 1283 1136 1269 1134 1276 1135 b 1304 1144 1290 1138 1298 1140 b 1339 1172 1318 1150 1330 1160 b 1355 1217 1349 1185 1355 1201 b 1350 1241 1355 1225 1353 1233 b 1338 1262 1348 1249 1343 1256 b 1304 1292 1329 1274 1317 1284 b 1265 1312 1291 1300 1278 1307 b 1245 1320 1258 1315 1251 1318 l 1235 1324 b 1229 1326 1233 1325 1231 1325 l 1224 1327 b 1042 1310 1163 1342 1099 1337 b 963 1259 1013 1297 987 1280 b 929 1225 951 1249 940 1237 b 912 1230 924 1227 918 1228 b 754 1263 860 1243 807 1255 b 714 1270 741 1266 728 1268 b 673 1274 700 1272 686 1273 b 633 1276 657 1275 644 1276 b 619 1275 628 1276 623 1276 b 612 1275 616 1275 614 1275 l 612 1275 b 606 1275 610 1275 608 1275 b 592 1274 601 1275 596 1274 b 511 1262 564 1272 537 1268 b 432 1240 484 1256 458 1249 b 287 1164 380 1221 332 1195 b 275 1155 283 1161 279 1158 b 270 1151 274 1154 272 1153 l 270 1151 b 265 1147 268 1150 266 1148 b 254 1139 261 1144 257 1141 b 223 1111 243 1129 232 1120 b 83 907 162 1054 115 984 b 58 828 73 881 64 855 b 43 746 51 801 46 773 b 40 704 42 734 41 721 b 40 662 40 690 40 676 b 51 579 42 634 45 606 b 110 423 63 524 83 471 b 157 354 124 399 140 375 b 214 293 174 332 193 311 b 351 201 254 255 301 224 b 506 149 400 177 452 160 b 522 146 511 148 517 147 b 541 124 528 139 535 131 b 575 93 552 113 563 103 b 651 45 598 74 624 58 b 733 15 677 32 705 22 b 793 4 753 10 772 6 b 785 1 790 3 788 2 b 760 -8 777 -2 769 -5 l 741 -15 b 723 -20 736 -16 730 -18 b 646 -37 698 -27 672 -33 b 568 -45 620 -41 594 -43 b 411 -37 515 -48 463 -46 b 262 8 359 -30 309 -14 b 138 100 215 31 173 62 b 112 130 129 109 120 119 b 109 134 111 131 110 133 b 107 137 108 135 107 136 b 101 145 105 140 103 142 l 97 151 b 92 158 97 154 95 157 l 92 159 l 91 158 b 83 156 88 159 85 157 b 70 148 80 154 76 152 l 64 144 l 66 141 b 67 137 66 140 66 138 b 71 133 68 135 69 134 l 72 131 b 121 65 87 108 103 86 b 241 -47 157 23 197 -15 b 310 -92 264 -63 286 -78 b 383 -130 334 -106 358 -119 b 458 -162 406 -141 431 -151 l 477 -168 b 481 -170 478 -169 480 -169 b 487 -172 483 -170 485 -171 l 497 -175 b 503 -177 499 -176 501 -176 b 516 -181 508 -178 512 -180 l 536 -187 b 553 -191 541 -188 547 -190 l 560 -193 b 575 -197 565 -195 570 -196 b 588 -200 579 -198 584 -199 b 615 -206 597 -202 606 -205 l 635 -210 l 655 -214 b 684 -219 664 -216 674 -217 b 695 -221 687 -219 691 -220 b 724 -224 705 -222 714 -223 b 735 -226 728 -225 731 -225 l 736 -226 b 750 -228 740 -226 745 -227 b 776 -230 758 -228 767 -229 b 789 -231 780 -230 785 -231 b 817 -233 798 -232 807 -233 b 857 -235 830 -234 844 -235 b 938 -235 882 -236 909 -235 b 1019 -232 965 -234 992 -233 b 1180 -221 1074 -229 1129 -225 b 1238 -216 1199 -219 1218 -217 b 1501 -199 1324 -209 1413 -202 b 1581 -198 1529 -198 1556 -198 b 1660 -201 1612 -198 1637 -199 b 1738 -213 1686 -203 1713 -207 b 1810 -239 1768 -220 1791 -228 l 1817 -243 l 1827 -226 m 1060 622 b 1137 615 1086 623 1112 621 b 1208 587 1162 610 1186 600 b 1266 537 1230 573 1249 557 b 1287 506 1274 528 1281 517 b 1302 472 1293 495 1298 484 b 1315 398 1310 448 1314 423 b 1306 323 1315 373 1312 347 b 1296 285 1304 310 1300 298 b 1283 250 1292 273 1288 261 b 1190 128 1261 203 1229 161 b 1054 53 1149 95 1103 69 b 934 31 1015 40 975 33 b 1028 85 967 47 998 65 b 1151 196 1079 120 1120 156 b 1175 230 1160 207 1168 218 b 1194 269 1182 243 1188 255 b 1205 310 1199 282 1203 296 b 1206 318 1206 313 1206 315 b 1207 321 1206 319 1207 320 l 1207 322 b 1207 333 1207 326 1207 329 l 1207 336 b 1208 342 1208 338 1208 340 l 1208 344 b 1208 351 1209 346 1209 349 l 1207 357 l 1201 357 b 1176 352 1185 358 1178 359 b 1176 346 1175 350 1175 348 b 1176 344 1176 345 1176 345 b 1176 340 1176 343 1176 342 l 1176 340 b 1152 277 1173 317 1165 296 b 1128 251 1145 268 1137 259 b 1098 233 1119 244 1109 238 b 1027 222 1076 224 1052 220 b 991 228 1015 223 1003 225 l 990 229 b 983 231 987 229 985 230 b 975 234 981 231 978 232 b 959 242 969 236 964 239 b 903 290 937 255 918 271 b 868 354 887 309 875 330 b 862 426 861 377 858 402 b 882 499 865 452 872 476 b 900 532 887 510 893 521 b 924 561 907 542 915 552 b 953 585 933 570 942 578 b 986 603 963 592 974 598 b 1060 622 1010 614 1035 620 m 187 376 b 146 442 172 397 158 419 b 95 588 122 488 105 537 b 85 664 90 613 86 638 b 85 702 84 678 84 690 b 88 741 86 718 86 730 b 100 818 90 767 94 792 b 122 892 105 843 113 868 b 593 1254 196 1094 379 1235 b 607 1255 598 1255 603 1255 b 613 1256 609 1255 611 1255 b 619 1256 615 1256 617 1256 b 633 1256 624 1256 628 1256 b 672 1255 644 1256 656 1256 b 751 1246 699 1254 725 1250 b 908 1213 804 1237 856 1226 b 917 1210 911 1212 914 1211 b 902 1189 912 1203 907 1196 b 859 1106 884 1163 870 1135 b 839 1013 848 1076 842 1045 b 855 914 837 979 843 946 b 866 891 858 906 862 898 b 870 883 867 888 869 886 b 730 840 822 876 775 862 b 587 742 678 815 629 782 b 529 675 566 721 546 699 l 528 674 b 525 671 527 673 526 672 l 520 663 l 520 663 b 503 638 514 655 509 646 b 482 598 497 626 489 613 b 450 513 469 571 458 542 b 436 422 442 483 438 453 b 442 329 434 391 436 360 b 467 241 447 299 455 269 b 470 235 468 239 469 237 b 476 220 472 230 474 225 l 477 218 b 487 199 480 212 483 205 b 502 173 491 190 497 182 b 363 225 454 184 407 202 b 296 266 339 237 317 251 b 237 317 275 281 255 298 b 187 376 219 335 202 355 m 1027 821 b 1011 825 1021 821 1016 823 b 984 846 1001 830 991 837 b 981 849 983 847 982 848 b 1015 846 993 848 1004 847 l 1016 846 b 1033 842 1021 845 1027 844 b 1046 835 1038 841 1042 838 b 1049 830 1048 834 1050 832 b 1047 826 1049 828 1048 827 b 1042 823 1046 825 1044 824 b 1027 821 1037 821 1032 820 m 1087 1233 b 1146 1265 1105 1247 1125 1258 b 1215 1273 1168 1272 1192 1275 b 1219 1273 1216 1273 1218 1273 b 1225 1273 1221 1273 1223 1273 b 1228 1273 1226 1273 1227 1273 b 1234 1272 1230 1273 1232 1272 b 1253 1270 1240 1272 1246 1271 b 1288 1261 1265 1269 1277 1266 b 1317 1243 1299 1257 1309 1251 b 1330 1216 1325 1236 1329 1226 b 1321 1186 1331 1205 1327 1194 b 1295 1163 1314 1176 1305 1168 b 1278 1157 1290 1160 1284 1158 b 1259 1154 1272 1156 1266 1155 b 1221 1151 1247 1152 1234 1151 b 1144 1162 1195 1152 1169 1155 b 1067 1184 1117 1168 1089 1177 b 1044 1191 1059 1186 1051 1189 b 1087 1233 1056 1207 1071 1221 "},"É":{"ha":1439,"x_min":0,"x_max":0,"o":"m 1827 -226 l 1817 -243 l 1810 -239 b 1738 -213 1791 -228 1768 -220 b 1660 -201 1713 -207 1686 -203 b 1581 -198 1637 -199 1612 -198 b 1501 -199 1556 -198 1529 -198 b 1238 -216 1413 -202 1324 -209 b 1180 -221 1218 -217 1199 -219 b 1019 -232 1129 -225 1074 -229 b 938 -235 992 -233 965 -234 b 857 -235 909 -235 882 -236 b 817 -233 844 -235 830 -234 b 789 -231 807 -233 798 -232 b 776 -230 785 -231 780 -230 b 750 -228 767 -229 758 -228 b 736 -226 745 -227 740 -226 l 735 -226 b 724 -224 731 -225 728 -225 b 695 -221 714 -223 705 -222 b 684 -219 691 -220 687 -219 b 655 -214 674 -217 664 -216 l 635 -210 l 615 -206 b 588 -200 606 -205 597 -202 b 575 -197 584 -199 579 -198 b 560 -193 570 -196 565 -195 l 553 -191 b 536 -187 547 -190 541 -188 l 516 -181 b 503 -177 512 -180 508 -178 b 497 -175 501 -176 499 -176 l 487 -172 b 481 -170 485 -171 483 -170 b 477 -168 480 -169 478 -169 l 458 -162 b 383 -130 431 -151 406 -141 b 310 -92 358 -119 334 -106 b 241 -47 286 -78 264 -63 b 121 65 197 -15 157 23 b 72 131 103 86 87 108 l 71 133 b 67 137 69 134 68 135 b 66 141 66 138 66 140 l 64 144 l 70 148 b 83 156 76 152 80 154 b 91 158 85 157 88 159 l 92 159 l 92 158 b 97 151 95 157 97 154 l 101 145 b 107 137 103 142 105 140 b 109 134 107 136 108 135 b 112 130 110 133 111 131 b 138 100 120 119 129 109 b 262 8 173 62 215 31 b 411 -37 309 -14 359 -30 b 568 -45 463 -46 515 -48 b 646 -37 594 -43 620 -41 b 723 -20 672 -33 698 -27 b 741 -15 730 -18 736 -16 l 760 -8 b 785 1 769 -5 777 -2 b 793 4 788 2 790 3 b 733 15 772 6 753 10 b 651 45 705 22 677 32 b 575 93 624 58 598 74 b 541 124 563 103 552 113 b 522 146 535 131 528 139 b 506 149 517 147 511 148 b 351 201 452 160 400 177 b 214 293 301 224 254 255 b 157 354 193 311 174 332 b 110 423 140 375 124 399 b 51 579 83 471 63 524 b 40 662 45 606 42 634 b 40 704 40 676 40 690 b 43 746 41 721 42 734 b 58 828 46 773 51 801 b 83 907 64 855 73 881 b 223 1111 115 984 162 1054 b 254 1139 232 1120 243 1129 b 265 1147 257 1141 261 1144 b 270 1151 266 1148 268 1150 l 270 1151 b 275 1155 272 1153 274 1154 b 287 1164 279 1158 283 1161 b 432 1240 332 1195 380 1221 b 511 1262 458 1249 484 1256 b 592 1274 537 1268 564 1272 b 606 1275 596 1274 601 1275 b 612 1275 608 1275 610 1275 l 612 1275 b 619 1275 614 1275 616 1275 b 633 1276 623 1276 628 1276 b 673 1274 644 1276 657 1275 b 714 1270 686 1273 700 1272 b 754 1263 728 1268 741 1266 b 912 1230 807 1255 860 1243 b 929 1225 918 1228 924 1227 b 963 1259 940 1237 951 1249 b 1042 1310 987 1280 1013 1297 b 1224 1327 1099 1337 1163 1342 l 1229 1326 b 1235 1324 1231 1325 1233 1325 l 1245 1320 b 1265 1312 1251 1318 1258 1315 b 1304 1292 1278 1307 1291 1300 b 1338 1262 1317 1284 1329 1274 b 1350 1241 1343 1256 1348 1249 b 1355 1217 1353 1233 1355 1225 b 1339 1172 1355 1201 1349 1185 b 1304 1144 1330 1160 1318 1150 b 1283 1136 1298 1140 1290 1138 b 1262 1133 1276 1135 1269 1134 b 1221 1130 1249 1131 1235 1130 b 1139 1142 1193 1131 1166 1135 b 1061 1166 1113 1149 1089 1157 b 1032 1176 1051 1169 1042 1172 b 1002 1128 1021 1161 1011 1145 b 975 1065 991 1108 982 1087 b 959 1000 968 1044 963 1022 b 953 937 955 980 953 958 b 956 908 953 927 954 917 b 957 903 956 906 957 904 b 958 900 957 902 957 901 b 958 898 958 900 958 899 l 959 896 b 960 893 959 895 960 894 b 962 886 961 891 961 889 b 980 884 969 886 975 885 b 1022 876 994 882 1008 879 b 1043 868 1029 874 1036 871 b 1063 853 1051 864 1058 859 b 1071 840 1067 849 1069 845 b 1070 823 1073 834 1072 828 b 1061 810 1068 818 1065 814 b 1050 803 1058 807 1054 805 b 1004 799 1037 798 1022 796 b 959 812 988 801 974 806 b 918 834 945 818 931 826 b 907 842 915 837 911 839 b 902 841 905 842 904 841 b 766 779 855 830 809 809 b 659 676 725 750 689 716 b 559 416 598 597 562 504 b 559 412 559 415 559 413 b 559 399 559 408 558 403 b 559 396 559 398 559 397 b 559 391 559 394 559 392 l 559 382 b 560 372 559 378 559 375 b 560 365 560 369 560 367 l 561 355 b 562 348 561 353 562 350 b 577 280 565 325 570 302 l 581 268 l 588 247 b 602 215 592 236 597 226 b 638 156 612 194 624 175 b 641 153 639 155 640 154 b 668 152 651 153 660 152 b 748 153 693 151 719 152 b 827 160 772 154 798 157 l 835 161 l 837 140 l 829 140 b 749 133 807 137 778 135 b 668 132 721 132 693 131 b 659 132 665 132 662 132 b 751 66 686 105 717 82 b 865 33 787 49 825 37 l 871 36 b 1010 111 920 57 966 82 b 1116 203 1054 141 1089 171 b 1112 201 1115 203 1113 202 b 1069 188 1098 195 1084 191 b 1025 186 1055 186 1040 185 b 982 193 1010 187 996 190 l 980 194 b 971 197 977 195 974 196 b 960 201 967 198 964 200 b 941 211 954 204 947 207 b 875 267 916 226 893 245 b 834 344 857 290 843 316 b 828 431 826 372 824 402 b 854 512 832 459 841 487 b 876 549 860 525 868 537 b 905 580 885 560 895 571 b 977 624 926 599 951 614 b 1142 636 1028 644 1085 648 b 1220 608 1169 630 1196 621 b 1287 556 1245 594 1268 577 b 1313 522 1297 545 1306 534 b 1332 483 1321 509 1327 496 b 1349 399 1343 456 1348 428 b 1340 315 1349 371 1346 342 b 1328 275 1336 301 1333 288 b 1312 236 1323 261 1318 248 b 1207 107 1289 187 1252 143 b 1137 62 1185 90 1161 75 b 1061 30 1113 50 1087 39 b 900 -1 1009 12 955 2 b 865 -1 888 -1 877 -1 l 847 -9 l 828 -17 b 822 -19 826 -17 824 -18 b 809 -24 818 -21 813 -22 b 796 -29 805 -26 800 -27 b 771 -38 788 -32 779 -35 l 752 -44 b 732 -51 746 -46 739 -48 b 651 -68 705 -58 678 -64 b 570 -76 624 -72 597 -75 b 406 -69 515 -80 460 -77 b 272 -31 360 -61 315 -49 b 326 -65 290 -43 308 -54 b 396 -102 349 -78 372 -91 b 469 -132 419 -112 443 -122 l 488 -139 b 491 -140 489 -139 490 -140 b 497 -142 493 -141 495 -141 l 506 -145 b 514 -147 509 -146 511 -147 b 525 -151 518 -149 521 -150 l 544 -157 b 563 -162 550 -159 557 -160 l 563 -162 b 570 -164 566 -162 568 -163 b 583 -167 574 -165 579 -166 b 595 -170 587 -168 591 -169 b 621 -176 604 -172 612 -174 l 641 -180 l 660 -183 b 688 -188 670 -185 679 -186 b 700 -190 692 -188 696 -189 b 728 -193 709 -191 719 -192 b 739 -195 732 -194 735 -194 b 753 -196 744 -195 748 -196 b 779 -199 761 -197 770 -198 b 792 -200 783 -199 788 -200 b 818 -202 801 -201 810 -202 b 858 -204 831 -203 845 -203 b 1018 -201 915 -205 970 -203 b 1178 -191 1073 -198 1130 -194 l 1187 -190 b 1339 -180 1236 -187 1288 -183 b 1500 -173 1403 -176 1453 -173 b 1662 -178 1554 -171 1608 -173 b 1743 -191 1690 -181 1717 -185 b 1821 -222 1775 -199 1800 -209 m 1060 622 b 986 603 1035 620 1010 614 b 953 585 974 598 963 592 b 924 561 942 578 933 570 b 900 532 915 552 907 542 b 882 499 893 521 887 510 b 862 426 872 476 865 452 b 868 354 858 402 861 377 b 903 290 875 330 887 309 b 959 242 918 271 937 255 b 975 234 964 239 969 236 b 983 231 978 232 981 231 b 990 229 985 230 987 229 l 991 228 b 1027 222 1003 225 1015 223 b 1098 233 1052 220 1076 224 b 1128 251 1109 238 1119 244 b 1152 277 1137 259 1145 268 b 1176 340 1165 296 1173 317 l 1176 340 b 1176 344 1176 342 1176 343 b 1176 346 1176 345 1176 345 b 1176 352 1175 348 1175 350 b 1201 357 1178 359 1185 358 l 1207 357 l 1208 351 b 1208 344 1209 349 1209 346 l 1208 342 b 1207 336 1208 340 1208 338 l 1207 333 b 1207 322 1207 329 1207 326 l 1207 321 b 1206 318 1207 320 1206 319 b 1205 310 1206 315 1206 313 b 1194 269 1203 296 1199 282 b 1175 230 1188 255 1182 243 b 1151 196 1168 218 1160 207 b 1028 85 1120 156 1079 120 b 934 31 998 65 967 47 b 1054 53 975 33 1015 40 b 1190 128 1103 69 1149 95 b 1283 250 1229 161 1261 203 b 1296 285 1288 261 1292 273 b 1306 323 1300 298 1304 310 b 1315 398 1312 347 1315 373 b 1302 472 1314 423 1310 448 b 1287 506 1298 484 1293 495 b 1266 537 1281 517 1274 528 b 1208 587 1249 557 1230 573 b 1137 615 1186 600 1162 610 b 1060 622 1112 621 1086 623 m 187 376 b 237 317 202 355 219 335 b 296 266 255 298 275 281 b 363 225 317 251 339 237 b 502 173 407 202 454 184 b 487 199 497 182 491 190 b 477 218 483 205 480 212 l 476 220 b 470 235 474 225 472 230 b 467 241 469 237 468 239 b 442 329 455 269 447 299 b 436 422 436 360 434 391 b 450 513 438 453 442 483 b 482 598 458 542 469 571 b 503 638 489 613 497 626 b 520 663 509 646 514 655 l 520 663 l 525 671 b 528 674 526 672 527 673 l 529 675 b 587 742 546 699 566 721 b 730 840 629 782 678 815 b 870 883 775 862 822 876 b 866 891 869 886 867 888 b 855 914 862 898 858 906 b 839 1013 843 946 837 979 b 859 1106 842 1045 848 1076 b 902 1189 870 1135 884 1163 b 917 1210 907 1196 912 1203 b 908 1213 914 1211 911 1212 b 751 1246 856 1226 804 1237 b 672 1255 725 1250 699 1254 b 633 1256 656 1256 644 1256 b 619 1256 628 1256 624 1256 b 613 1256 617 1256 615 1256 b 607 1255 611 1255 609 1255 b 593 1254 603 1255 598 1255 b 122 892 379 1235 196 1094 b 100 818 113 868 105 843 b 88 741 94 792 90 767 b 85 702 86 730 86 718 b 85 664 84 690 84 678 b 95 588 86 638 90 613 b 146 442 105 537 122 488 b 187 376 158 419 172 397 m 1027 821 b 1042 823 1032 820 1037 821 b 1047 826 1044 824 1046 825 b 1049 830 1048 827 1049 828 b 1046 835 1050 832 1048 834 b 1033 842 1042 838 1038 841 b 1016 846 1027 844 1021 845 l 1015 846 b 981 849 1004 847 993 848 b 984 846 982 848 983 847 b 1011 825 991 837 1001 830 b 1027 821 1016 823 1021 821 m 1087 1233 b 1044 1191 1071 1221 1056 1207 b 1067 1184 1051 1189 1059 1186 b 1144 1162 1089 1177 1117 1168 b 1221 1151 1169 1155 1195 1152 b 1259 1154 1234 1151 1247 1152 b 1278 1157 1266 1155 1272 1156 b 1295 1163 1284 1158 1290 1160 b 1321 1186 1305 1168 1314 1176 b 1330 1216 1327 1194 1331 1205 b 1317 1243 1329 1226 1325 1236 b 1288 1261 1309 1251 1299 1257 b 1253 1270 1277 1266 1265 1269 b 1234 1272 1246 1271 1240 1272 b 1228 1273 1232 1272 1230 1273 b 1225 1273 1227 1273 1226 1273 b 1219 1273 1223 1273 1221 1273 b 1215 1273 1218 1273 1216 1273 b 1146 1265 1192 1275 1168 1272 b 1087 1233 1125 1258 1105 1247 "},"Ê":{"ha":1439,"x_min":0,"x_max":0,"o":"m 1821 -222 b 1743 -191 1800 -209 1775 -199 b 1662 -178 1717 -185 1690 -181 b 1500 -173 1608 -173 1554 -171 b 1339 -180 1453 -173 1403 -176 b 1187 -190 1288 -183 1236 -187 l 1178 -191 b 1018 -201 1130 -194 1073 -198 b 858 -204 970 -203 915 -205 b 818 -202 845 -203 831 -203 b 792 -200 810 -202 801 -201 b 779 -199 788 -200 783 -199 b 753 -196 770 -198 761 -197 b 739 -195 748 -196 744 -195 b 728 -193 735 -194 732 -194 b 700 -190 719 -192 709 -191 b 688 -188 696 -189 692 -188 b 660 -183 679 -186 670 -185 l 641 -180 l 621 -176 b 595 -170 612 -174 604 -172 b 583 -167 591 -169 587 -168 b 570 -164 579 -166 574 -165 b 563 -162 568 -163 566 -162 l 563 -162 b 544 -157 557 -160 550 -159 l 525 -151 b 514 -147 521 -150 518 -149 b 506 -145 511 -147 509 -146 l 497 -142 b 491 -140 495 -141 493 -141 b 488 -139 490 -140 489 -139 l 469 -132 b 396 -102 443 -122 419 -112 b 326 -65 372 -91 349 -78 b 272 -31 308 -54 290 -43 b 406 -69 315 -49 360 -61 b 570 -76 460 -77 515 -80 b 651 -68 597 -75 624 -72 b 732 -51 678 -64 705 -58 b 752 -44 739 -48 746 -46 l 771 -38 b 796 -29 779 -35 788 -32 b 809 -24 800 -27 805 -26 b 822 -19 813 -22 818 -21 b 828 -17 824 -18 826 -17 l 847 -9 l 865 -1 b 900 -1 877 -1 888 -1 b 1061 30 955 2 1009 12 b 1137 62 1087 39 1113 50 b 1207 107 1161 75 1185 90 b 1312 236 1252 143 1289 187 b 1328 275 1318 248 1323 261 b 1340 315 1333 288 1336 301 b 1349 399 1346 342 1349 371 b 1332 483 1348 428 1343 456 b 1313 522 1327 496 1321 509 b 1287 556 1306 534 1297 545 b 1220 608 1268 577 1245 594 b 1142 636 1196 621 1169 630 b 977 624 1085 648 1028 644 b 905 580 951 614 926 599 b 876 549 895 571 885 560 b 854 512 868 537 860 525 b 828 431 841 487 832 459 b 834 344 824 402 826 372 b 875 267 843 316 857 290 b 941 211 893 245 916 226 b 960 201 947 207 954 204 b 971 197 964 200 967 198 b 980 194 974 196 977 195 l 982 193 b 1025 186 996 190 1010 187 b 1069 188 1040 185 1055 186 b 1112 201 1084 191 1098 195 b 1116 203 1113 202 1115 203 b 1010 111 1089 171 1054 141 b 871 36 966 82 920 57 l 865 33 b 751 66 825 37 787 49 b 659 132 717 82 686 105 b 668 132 662 132 665 132 b 749 133 693 131 721 132 b 829 140 778 135 807 137 l 837 140 l 835 161 l 827 160 b 748 153 798 157 772 154 b 668 152 719 152 693 151 b 641 153 660 152 651 153 b 638 156 640 154 639 155 b 602 215 624 175 612 194 b 588 247 597 226 592 236 l 581 268 l 577 280 b 562 348 570 302 565 325 b 561 355 562 350 561 353 l 560 365 b 560 372 560 367 560 369 b 559 382 559 375 559 378 l 559 391 b 559 396 559 392 559 394 b 559 399 559 397 559 398 b 559 412 558 403 559 408 b 559 416 559 413 559 415 b 659 676 562 504 598 597 b 766 779 689 716 725 750 b 902 841 809 809 855 830 b 907 842 904 841 905 842 b 918 834 911 839 915 837 b 959 812 931 826 945 818 b 1004 799 974 806 988 801 b 1050 803 1022 796 1037 798 b 1061 810 1054 805 1058 807 b 1070 823 1065 814 1068 818 b 1071 840 1072 828 1073 834 b 1063 853 1069 845 1067 849 b 1043 868 1058 859 1051 864 b 1022 876 1036 871 1029 874 b 980 884 1008 879 994 882 b 962 886 975 885 969 886 b 960 893 961 889 961 891 b 959 896 960 894 959 895 l 958 898 b 958 900 958 899 958 900 b 957 903 957 901 957 902 b 956 908 957 904 956 906 b 953 937 954 917 953 927 b 959 1000 953 958 955 980 b 975 1065 963 1022 968 1044 b 1002 1128 982 1087 991 1108 b 1032 1176 1011 1145 1021 1161 b 1061 1166 1042 1172 1051 1169 b 1139 1142 1089 1157 1113 1149 b 1221 1130 1166 1135 1193 1131 b 1262 1133 1235 1130 1249 1131 b 1283 1136 1269 1134 1276 1135 b 1304 1144 1290 1138 1298 1140 b 1339 1172 1318 1150 1330 1160 b 1355 1217 1349 1185 1355 1201 b 1350 1241 1355 1225 1353 1233 b 1338 1262 1348 1249 1343 1256 b 1304 1292 1329 1274 1317 1284 b 1265 1312 1291 1300 1278 1307 b 1245 1320 1258 1315 1251 1318 l 1235 1324 b 1229 1326 1233 1325 1231 1325 l 1224 1327 b 1042 1310 1163 1342 1099 1337 b 963 1259 1013 1297 987 1280 b 929 1225 951 1249 940 1237 b 912 1230 924 1227 918 1228 b 754 1263 860 1243 807 1255 b 714 1270 741 1266 728 1268 b 673 1274 700 1272 686 1273 b 633 1276 657 1275 644 1276 b 619 1275 628 1276 623 1276 b 612 1275 616 1275 614 1275 l 612 1275 b 606 1275 610 1275 608 1275 b 592 1274 601 1275 596 1274 b 511 1262 564 1272 537 1268 b 432 1240 484 1256 458 1249 b 287 1164 380 1221 332 1195 b 275 1155 283 1161 279 1158 b 270 1151 274 1154 272 1153 l 270 1151 b 265 1147 268 1150 266 1148 b 254 1139 261 1144 257 1141 b 223 1111 243 1129 232 1120 b 83 907 162 1054 115 984 b 58 828 73 881 64 855 b 43 746 51 801 46 773 b 40 704 42 734 41 721 b 40 662 40 690 40 676 b 51 579 42 634 45 606 b 110 423 63 524 83 471 b 157 354 124 399 140 375 b 214 293 174 332 193 311 b 351 201 254 255 301 224 b 506 149 400 177 452 160 b 522 146 511 148 517 147 b 541 124 528 139 535 131 b 575 93 552 113 563 103 b 651 45 598 74 624 58 b 733 15 677 32 705 22 b 793 4 753 10 772 6 b 785 1 790 3 788 2 b 760 -8 777 -2 769 -5 l 741 -15 b 723 -20 736 -16 730 -18 b 646 -37 698 -27 672 -33 b 568 -45 620 -41 594 -43 b 411 -37 515 -48 463 -46 b 262 8 359 -30 309 -14 b 138 100 215 31 173 62 b 112 130 129 109 120 119 b 109 134 111 131 110 133 b 107 137 108 135 107 136 b 101 145 105 140 103 142 l 97 151 b 92 158 97 154 95 157 l 92 159 l 91 158 b 83 156 88 159 85 157 b 70 148 80 154 76 152 l 64 144 l 66 141 b 67 137 66 140 66 138 b 71 133 68 135 69 134 l 72 131 b 121 65 87 108 103 86 b 241 -47 157 23 197 -15 b 310 -92 264 -63 286 -78 b 383 -130 334 -106 358 -119 b 458 -162 406 -141 431 -151 l 477 -168 b 481 -170 478 -169 480 -169 b 487 -172 483 -170 485 -171 l 497 -175 b 503 -177 499 -176 501 -176 b 516 -181 508 -178 512 -180 l 536 -187 b 553 -191 541 -188 547 -190 l 560 -193 b 575 -197 565 -195 570 -196 b 588 -200 579 -198 584 -199 b 615 -206 597 -202 606 -205 l 635 -210 l 655 -214 b 684 -219 664 -216 674 -217 b 695 -221 687 -219 691 -220 b 724 -224 705 -222 714 -223 b 735 -226 728 -225 731 -225 l 736 -226 b 750 -228 740 -226 745 -227 b 776 -230 758 -228 767 -229 b 789 -231 780 -230 785 -231 b 817 -233 798 -232 807 -233 b 857 -235 830 -234 844 -235 b 938 -235 882 -236 909 -235 b 1019 -232 965 -234 992 -233 b 1180 -221 1074 -229 1129 -225 b 1238 -216 1199 -219 1218 -217 b 1501 -199 1324 -209 1413 -202 b 1581 -198 1529 -198 1556 -198 b 1660 -201 1612 -198 1637 -199 b 1738 -213 1686 -203 1713 -207 b 1810 -239 1768 -220 1791 -228 l 1817 -243 l 1827 -226 m 1060 622 b 1137 615 1086 623 1112 621 b 1208 587 1162 610 1186 600 b 1266 537 1230 573 1249 557 b 1287 506 1274 528 1281 517 b 1302 472 1293 495 1298 484 b 1315 398 1310 448 1314 423 b 1306 323 1315 373 1312 347 b 1296 285 1304 310 1300 298 b 1283 250 1292 273 1288 261 b 1190 128 1261 203 1229 161 b 1054 53 1149 95 1103 69 b 934 31 1015 40 975 33 b 1028 85 967 47 998 65 b 1151 196 1079 120 1120 156 b 1175 230 1160 207 1168 218 b 1194 269 1182 243 1188 255 b 1205 310 1199 282 1203 296 b 1206 318 1206 313 1206 315 b 1207 321 1206 319 1207 320 l 1207 322 b 1207 333 1207 326 1207 329 l 1207 336 b 1208 342 1208 338 1208 340 l 1208 344 b 1208 351 1209 346 1209 349 l 1207 357 l 1201 357 b 1176 352 1185 358 1178 359 b 1176 346 1175 350 1175 348 b 1176 344 1176 345 1176 345 b 1176 340 1176 343 1176 342 l 1176 340 b 1152 277 1173 317 1165 296 b 1128 251 1145 268 1137 259 b 1098 233 1119 244 1109 238 b 1027 222 1076 224 1052 220 b 991 228 1015 223 1003 225 l 990 229 b 983 231 987 229 985 230 b 975 234 981 231 978 232 b 959 242 969 236 964 239 b 903 290 937 255 918 271 b 868 354 887 309 875 330 b 862 426 861 377 858 402 b 882 499 865 452 872 476 b 900 532 887 510 893 521 b 924 561 907 542 915 552 b 953 585 933 570 942 578 b 986 603 963 592 974 598 b 1060 622 1010 614 1035 620 m 187 376 b 146 442 172 397 158 419 b 95 588 122 488 105 537 b 85 664 90 613 86 638 b 85 702 84 678 84 690 b 88 741 86 718 86 730 b 100 818 90 767 94 792 b 122 892 105 843 113 868 b 593 1254 196 1094 379 1235 b 607 1255 598 1255 603 1255 b 613 1256 609 1255 611 1255 b 619 1256 615 1256 617 1256 b 633 1256 624 1256 628 1256 b 672 1255 644 1256 656 1256 b 751 1246 699 1254 725 1250 b 908 1213 804 1237 856 1226 b 917 1210 911 1212 914 1211 b 902 1189 912 1203 907 1196 b 859 1106 884 1163 870 1135 b 839 1013 848 1076 842 1045 b 855 914 837 979 843 946 b 866 891 858 906 862 898 b 870 883 867 888 869 886 b 730 840 822 876 775 862 b 587 742 678 815 629 782 b 529 675 566 721 546 699 l 528 674 b 525 671 527 673 526 672 l 520 663 l 520 663 b 503 638 514 655 509 646 b 482 598 497 626 489 613 b 450 513 469 571 458 542 b 436 422 442 483 438 453 b 442 329 434 391 436 360 b 467 241 447 299 455 269 b 470 235 468 239 469 237 b 476 220 472 230 474 225 l 477 218 b 487 199 480 212 483 205 b 502 173 491 190 497 182 b 363 225 454 184 407 202 b 296 266 339 237 317 251 b 237 317 275 281 255 298 b 187 376 219 335 202 355 m 1027 821 b 1011 825 1021 821 1016 823 b 984 846 1001 830 991 837 b 981 849 983 847 982 848 b 1015 846 993 848 1004 847 l 1016 846 b 1033 842 1021 845 1027 844 b 1046 835 1038 841 1042 838 b 1049 830 1048 834 1050 832 b 1047 826 1049 828 1048 827 b 1042 823 1046 825 1044 824 b 1027 821 1037 821 1032 820 m 1087 1233 b 1146 1265 1105 1247 1125 1258 b 1215 1273 1168 1272 1192 1275 b 1219 1273 1216 1273 1218 1273 b 1225 1273 1221 1273 1223 1273 b 1228 1273 1226 1273 1227 1273 b 1234 1272 1230 1273 1232 1272 b 1253 1270 1240 1272 1246 1271 b 1288 1261 1265 1269 1277 1266 b 1317 1243 1299 1257 1309 1251 b 1330 1216 1325 1236 1329 1226 b 1321 1186 1331 1205 1327 1194 b 1295 1163 1314 1176 1305 1168 b 1278 1157 1290 1160 1284 1158 b 1259 1154 1272 1156 1266 1155 b 1221 1151 1247 1152 1234 1151 b 1144 1162 1195 1152 1169 1155 b 1067 1184 1117 1168 1089 1177 b 1044 1191 1059 1186 1051 1189 b 1087 1233 1056 1207 1071 1221 "},"Ë":{"ha":1439,"x_min":0,"x_max":0,"o":"m 1827 -226 l 1817 -243 l 1810 -239 b 1738 -213 1791 -228 1768 -220 b 1660 -201 1713 -207 1686 -203 b 1581 -198 1637 -199 1612 -198 b 1501 -199 1556 -198 1529 -198 b 1238 -216 1413 -202 1324 -209 b 1180 -221 1218 -217 1199 -219 b 1019 -232 1129 -225 1074 -229 b 938 -235 992 -233 965 -234 b 857 -235 909 -235 882 -236 b 817 -233 844 -235 830 -234 b 789 -231 807 -233 798 -232 b 776 -230 785 -231 780 -230 b 750 -228 767 -229 758 -228 b 736 -226 745 -227 740 -226 l 735 -226 b 724 -224 731 -225 728 -225 b 695 -221 714 -223 705 -222 b 684 -219 691 -220 687 -219 b 655 -214 674 -217 664 -216 l 635 -210 l 615 -206 b 588 -200 606 -205 597 -202 b 575 -197 584 -199 579 -198 b 560 -193 570 -196 565 -195 l 553 -191 b 536 -187 547 -190 541 -188 l 516 -181 b 503 -177 512 -180 508 -178 b 497 -175 501 -176 499 -176 l 487 -172 b 481 -170 485 -171 483 -170 b 477 -168 480 -169 478 -169 l 458 -162 b 383 -130 431 -151 406 -141 b 310 -92 358 -119 334 -106 b 241 -47 286 -78 264 -63 b 121 65 197 -15 157 23 b 72 131 103 86 87 108 l 71 133 b 67 137 69 134 68 135 b 66 141 66 138 66 140 l 64 144 l 70 148 b 83 156 76 152 80 154 b 91 158 85 157 88 159 l 92 159 l 92 158 b 97 151 95 157 97 154 l 101 145 b 107 137 103 142 105 140 b 109 134 107 136 108 135 b 112 130 110 133 111 131 b 138 100 120 119 129 109 b 262 8 173 62 215 31 b 411 -37 309 -14 359 -30 b 568 -45 463 -46 515 -48 b 646 -37 594 -43 620 -41 b 723 -20 672 -33 698 -27 b 741 -15 730 -18 736 -16 l 760 -8 b 785 1 769 -5 777 -2 b 793 4 788 2 790 3 b 733 15 772 6 753 10 b 651 45 705 22 677 32 b 575 93 624 58 598 74 b 541 124 563 103 552 113 b 522 146 535 131 528 139 b 506 149 517 147 511 148 b 351 201 452 160 400 177 b 214 293 301 224 254 255 b 157 354 193 311 174 332 b 110 423 140 375 124 399 b 51 579 83 471 63 524 b 40 662 45 606 42 634 b 40 704 40 676 40 690 b 43 746 41 721 42 734 b 58 828 46 773 51 801 b 83 907 64 855 73 881 b 223 1111 115 984 162 1054 b 254 1139 232 1120 243 1129 b 265 1147 257 1141 261 1144 b 270 1151 266 1148 268 1150 l 270 1151 b 275 1155 272 1153 274 1154 b 287 1164 279 1158 283 1161 b 432 1240 332 1195 380 1221 b 511 1262 458 1249 484 1256 b 592 1274 537 1268 564 1272 b 606 1275 596 1274 601 1275 b 612 1275 608 1275 610 1275 l 612 1275 b 619 1275 614 1275 616 1275 b 633 1276 623 1276 628 1276 b 673 1274 644 1276 657 1275 b 714 1270 686 1273 700 1272 b 754 1263 728 1268 741 1266 b 912 1230 807 1255 860 1243 b 929 1225 918 1228 924 1227 b 963 1259 940 1237 951 1249 b 1042 1310 987 1280 1013 1297 b 1224 1327 1099 1337 1163 1342 l 1229 1326 b 1235 1324 1231 1325 1233 1325 l 1245 1320 b 1265 1312 1251 1318 1258 1315 b 1304 1292 1278 1307 1291 1300 b 1338 1262 1317 1284 1329 1274 b 1350 1241 1343 1256 1348 1249 b 1355 1217 1353 1233 1355 1225 b 1339 1172 1355 1201 1349 1185 b 1304 1144 1330 1160 1318 1150 b 1283 1136 1298 1140 1290 1138 b 1262 1133 1276 1135 1269 1134 b 1221 1130 1249 1131 1235 1130 b 1139 1142 1193 1131 1166 1135 b 1061 1166 1113 1149 1089 1157 b 1032 1176 1051 1169 1042 1172 b 1002 1128 1021 1161 1011 1145 b 975 1065 991 1108 982 1087 b 959 1000 968 1044 963 1022 b 953 937 955 980 953 958 b 956 908 953 927 954 917 b 957 903 956 906 957 904 b 958 900 957 902 957 901 b 958 898 958 900 958 899 l 959 896 b 960 893 959 895 960 894 b 962 886 961 891 961 889 b 980 884 969 886 975 885 b 1022 876 994 882 1008 879 b 1043 868 1029 874 1036 871 b 1063 853 1051 864 1058 859 b 1071 840 1067 849 1069 845 b 1070 823 1073 834 1072 828 b 1061 810 1068 818 1065 814 b 1050 803 1058 807 1054 805 b 1004 799 1037 798 1022 796 b 959 812 988 801 974 806 b 918 834 945 818 931 826 b 907 842 915 837 911 839 b 902 841 905 842 904 841 b 766 779 855 830 809 809 b 659 676 725 750 689 716 b 559 416 598 597 562 504 b 559 412 559 415 559 413 b 559 399 559 408 558 403 b 559 396 559 398 559 397 b 559 391 559 394 559 392 l 559 382 b 560 372 559 378 559 375 b 560 365 560 369 560 367 l 561 355 b 562 348 561 353 562 350 b 577 280 565 325 570 302 l 581 268 l 588 247 b 602 215 592 236 597 226 b 638 156 612 194 624 175 b 641 153 639 155 640 154 b 668 152 651 153 660 152 b 748 153 693 151 719 152 b 827 160 772 154 798 157 l 835 161 l 837 140 l 829 140 b 749 133 807 137 778 135 b 668 132 721 132 693 131 b 659 132 665 132 662 132 b 751 66 686 105 717 82 b 865 33 787 49 825 37 l 871 36 b 1010 111 920 57 966 82 b 1116 203 1054 141 1089 171 b 1112 201 1115 203 1113 202 b 1069 188 1098 195 1084 191 b 1025 186 1055 186 1040 185 b 982 193 1010 187 996 190 l 980 194 b 971 197 977 195 974 196 b 960 201 967 198 964 200 b 941 211 954 204 947 207 b 875 267 916 226 893 245 b 834 344 857 290 843 316 b 828 431 826 372 824 402 b 854 512 832 459 841 487 b 876 549 860 525 868 537 b 905 580 885 560 895 571 b 977 624 926 599 951 614 b 1142 636 1028 644 1085 648 b 1220 608 1169 630 1196 621 b 1287 556 1245 594 1268 577 b 1313 522 1297 545 1306 534 b 1332 483 1321 509 1327 496 b 1349 399 1343 456 1348 428 b 1340 315 1349 371 1346 342 b 1328 275 1336 301 1333 288 b 1312 236 1323 261 1318 248 b 1207 107 1289 187 1252 143 b 1137 62 1185 90 1161 75 b 1061 30 1113 50 1087 39 b 900 -1 1009 12 955 2 b 865 -1 888 -1 877 -1 l 847 -9 l 828 -17 b 822 -19 826 -17 824 -18 b 809 -24 818 -21 813 -22 b 796 -29 805 -26 800 -27 b 771 -38 788 -32 779 -35 l 752 -44 b 732 -51 746 -46 739 -48 b 651 -68 705 -58 678 -64 b 570 -76 624 -72 597 -75 b 406 -69 515 -80 460 -77 b 272 -31 360 -61 315 -49 b 326 -65 290 -43 308 -54 b 396 -102 349 -78 372 -91 b 469 -132 419 -112 443 -122 l 488 -139 b 491 -140 489 -139 490 -140 b 497 -142 493 -141 495 -141 l 506 -145 b 514 -147 509 -146 511 -147 b 525 -151 518 -149 521 -150 l 544 -157 b 563 -162 550 -159 557 -160 l 563 -162 b 570 -164 566 -162 568 -163 b 583 -167 574 -165 579 -166 b 595 -170 587 -168 591 -169 b 621 -176 604 -172 612 -174 l 641 -180 l 660 -183 b 688 -188 670 -185 679 -186 b 700 -190 692 -188 696 -189 b 728 -193 709 -191 719 -192 b 739 -195 732 -194 735 -194 b 753 -196 744 -195 748 -196 b 779 -199 761 -197 770 -198 b 792 -200 783 -199 788 -200 b 818 -202 801 -201 810 -202 b 858 -204 831 -203 845 -203 b 1018 -201 915 -205 970 -203 b 1178 -191 1073 -198 1130 -194 l 1187 -190 b 1339 -180 1236 -187 1288 -183 b 1500 -173 1403 -176 1453 -173 b 1662 -178 1554 -171 1608 -173 b 1743 -191 1690 -181 1717 -185 b 1821 -222 1775 -199 1800 -209 m 1060 622 b 986 603 1035 620 1010 614 b 953 585 974 598 963 592 b 924 561 942 578 933 570 b 900 532 915 552 907 542 b 882 499 893 521 887 510 b 862 426 872 476 865 452 b 868 354 858 402 861 377 b 903 290 875 330 887 309 b 959 242 918 271 937 255 b 975 234 964 239 969 236 b 983 231 978 232 981 231 b 990 229 985 230 987 229 l 991 228 b 1027 222 1003 225 1015 223 b 1098 233 1052 220 1076 224 b 1128 251 1109 238 1119 244 b 1152 277 1137 259 1145 268 b 1176 340 1165 296 1173 317 l 1176 340 b 1176 344 1176 342 1176 343 b 1176 346 1176 345 1176 345 b 1176 352 1175 348 1175 350 b 1201 357 1178 359 1185 358 l 1207 357 l 1208 351 b 1208 344 1209 349 1209 346 l 1208 342 b 1207 336 1208 340 1208 338 l 1207 333 b 1207 322 1207 329 1207 326 l 1207 321 b 1206 318 1207 320 1206 319 b 1205 310 1206 315 1206 313 b 1194 269 1203 296 1199 282 b 1175 230 1188 255 1182 243 b 1151 196 1168 218 1160 207 b 1028 85 1120 156 1079 120 b 934 31 998 65 967 47 b 1054 53 975 33 1015 40 b 1190 128 1103 69 1149 95 b 1283 250 1229 161 1261 203 b 1296 285 1288 261 1292 273 b 1306 323 1300 298 1304 310 b 1315 398 1312 347 1315 373 b 1302 472 1314 423 1310 448 b 1287 506 1298 484 1293 495 b 1266 537 1281 517 1274 528 b 1208 587 1249 557 1230 573 b 1137 615 1186 600 1162 610 b 1060 622 1112 621 1086 623 m 187 376 b 237 317 202 355 219 335 b 296 266 255 298 275 281 b 363 225 317 251 339 237 b 502 173 407 202 454 184 b 487 199 497 182 491 190 b 477 218 483 205 480 212 l 476 220 b 470 235 474 225 472 230 b 467 241 469 237 468 239 b 442 329 455 269 447 299 b 436 422 436 360 434 391 b 450 513 438 453 442 483 b 482 598 458 542 469 571 b 503 638 489 613 497 626 b 520 663 509 646 514 655 l 520 663 l 525 671 b 528 674 526 672 527 673 l 529 675 b 587 742 546 699 566 721 b 730 840 629 782 678 815 b 870 883 775 862 822 876 b 866 891 869 886 867 888 b 855 914 862 898 858 906 b 839 1013 843 946 837 979 b 859 1106 842 1045 848 1076 b 902 1189 870 1135 884 1163 b 917 1210 907 1196 912 1203 b 908 1213 914 1211 911 1212 b 751 1246 856 1226 804 1237 b 672 1255 725 1250 699 1254 b 633 1256 656 1256 644 1256 b 619 1256 628 1256 624 1256 b 613 1256 617 1256 615 1256 b 607 1255 611 1255 609 1255 b 593 1254 603 1255 598 1255 b 122 892 379 1235 196 1094 b 100 818 113 868 105 843 b 88 741 94 792 90 767 b 85 702 86 730 86 718 b 85 664 84 690 84 678 b 95 588 86 638 90 613 b 146 442 105 537 122 488 b 187 376 158 419 172 397 m 1027 821 b 1042 823 1032 820 1037 821 b 1047 826 1044 824 1046 825 b 1049 830 1048 827 1049 828 b 1046 835 1050 832 1048 834 b 1033 842 1042 838 1038 841 b 1016 846 1027 844 1021 845 l 1015 846 b 981 849 1004 847 993 848 b 984 846 982 848 983 847 b 1011 825 991 837 1001 830 b 1027 821 1016 823 1021 821 m 1087 1233 b 1044 1191 1071 1221 1056 1207 b 1067 1184 1051 1189 1059 1186 b 1144 1162 1089 1177 1117 1168 b 1221 1151 1169 1155 1195 1152 b 1259 1154 1234 1151 1247 1152 b 1278 1157 1266 1155 1272 1156 b 1295 1163 1284 1158 1290 1160 b 1321 1186 1305 1168 1314 1176 b 1330 1216 1327 1194 1331 1205 b 1317 1243 1329 1226 1325 1236 b 1288 1261 1309 1251 1299 1257 b 1253 1270 1277 1266 1265 1269 b 1234 1272 1246 1271 1240 1272 b 1228 1273 1232 1272 1230 1273 b 1225 1273 1227 1273 1226 1273 b 1219 1273 1223 1273 1221 1273 b 1215 1273 1218 1273 1216 1273 b 1146 1265 1192 1275 1168 1272 b 1087 1233 1125 1258 1105 1247 "},"F":{"ha":1421,"x_min":0,"x_max":0,"o":"m 1908 1253 b 1908 1236 1909 1247 1909 1242 b 1904 1219 1908 1230 1906 1224 b 1881 1190 1899 1207 1891 1197 b 1851 1172 1872 1182 1862 1177 b 1819 1162 1841 1168 1830 1165 b 1787 1157 1809 1160 1798 1158 b 1756 1154 1776 1155 1765 1155 b 1693 1155 1735 1154 1714 1154 b 1572 1171 1652 1158 1612 1164 b 1455 1204 1532 1179 1493 1190 l 1450 1206 b 1426 1214 1442 1208 1434 1211 b 1417 1218 1423 1216 1420 1217 b 1413 1219 1416 1218 1414 1219 b 1400 1224 1408 1221 1404 1223 b 1387 1228 1396 1225 1392 1227 l 1385 1229 b 1374 1233 1381 1230 1378 1232 b 1347 1241 1366 1235 1357 1238 b 1238 1263 1311 1251 1275 1258 b 798 1185 1087 1285 932 1258 b 749 1155 781 1175 765 1166 b 727 1138 741 1149 734 1144 b 717 1130 724 1135 720 1133 l 716 1129 b 709 1123 713 1127 711 1125 b 705 1119 708 1122 706 1120 b 629 1034 677 1094 651 1065 b 576 933 607 1002 589 968 b 569 913 573 926 571 919 b 616 902 585 910 601 907 b 672 880 635 897 654 889 b 722 847 690 870 707 859 b 767 807 739 835 753 822 b 801 757 780 792 792 775 b 819 698 810 738 816 718 b 813 637 821 677 819 656 b 782 583 807 616 796 598 b 663 563 751 551 702 543 b 612 598 644 572 627 584 b 573 646 596 612 583 628 b 546 701 562 663 553 682 b 530 822 534 740 528 781 b 538 887 531 844 533 865 l 534 887 b 525 889 531 888 528 888 l 525 889 b 498 891 516 890 507 891 b 385 878 460 893 422 889 b 287 825 349 868 316 850 b 277 817 284 822 280 820 b 266 807 273 814 269 810 b 262 803 264 806 263 804 b 256 797 260 801 258 799 b 252 793 254 796 253 795 b 246 787 250 791 248 789 b 212 744 233 774 222 759 b 186 696 202 729 193 713 b 168 645 178 679 172 662 b 158 537 159 610 156 573 b 396 204 166 390 259 260 b 506 175 432 190 468 180 l 506 175 b 514 169 510 174 513 172 b 514 160 516 166 515 163 b 505 154 512 156 509 154 l 505 154 b 386 173 464 155 424 161 b 279 227 348 185 312 204 b 194 312 247 251 218 280 b 139 418 171 345 152 380 b 133 655 113 495 111 579 b 186 762 145 693 162 729 b 272 846 210 794 239 823 b 379 898 305 869 341 886 b 497 917 418 909 457 916 b 545 915 513 917 529 917 b 553 941 547 924 550 932 b 606 1049 566 979 584 1015 b 642 1098 617 1066 629 1082 b 684 1142 654 1112 668 1127 b 687 1146 685 1143 686 1145 b 694 1153 690 1148 692 1150 b 698 1156 696 1154 697 1155 b 706 1163 701 1158 703 1161 b 729 1182 713 1169 721 1176 b 780 1216 744 1193 760 1204 b 888 1270 814 1237 850 1255 b 1002 1310 925 1286 963 1299 b 1121 1336 1041 1321 1081 1330 b 1244 1344 1162 1342 1203 1344 b 1368 1331 1286 1343 1328 1339 b 1399 1324 1380 1329 1390 1326 b 1409 1322 1403 1323 1406 1322 b 1414 1320 1411 1321 1413 1321 b 1429 1316 1419 1319 1424 1318 l 1430 1316 b 1444 1312 1435 1315 1440 1313 l 1448 1310 b 1459 1307 1452 1309 1455 1308 b 1477 1301 1465 1305 1471 1303 b 1486 1298 1480 1300 1483 1299 b 1596 1262 1523 1287 1560 1274 b 1705 1228 1634 1249 1669 1237 b 1759 1217 1725 1223 1743 1220 b 1787 1214 1769 1216 1778 1214 b 1814 1212 1795 1213 1803 1212 b 1840 1213 1822 1212 1831 1212 b 1864 1219 1848 1214 1856 1216 b 1883 1232 1871 1222 1877 1226 b 1889 1241 1885 1235 1887 1238 b 1893 1254 1891 1245 1892 1249 l 1896 1273 b 1900 1276 1896 1275 1898 1276 b 1904 1273 1902 1276 1904 1275 l 1908 1253 m 605 868 b 561 882 591 873 576 878 b 552 821 556 862 553 841 b 552 792 552 811 552 802 b 554 764 553 783 553 773 b 559 736 556 754 557 745 b 567 708 561 726 564 717 b 591 657 573 690 581 673 b 626 613 600 641 612 626 b 672 582 639 600 655 590 l 678 579 b 684 577 680 578 682 578 l 684 577 b 696 574 688 575 692 575 b 709 575 701 574 705 574 b 715 576 711 575 713 575 b 721 578 717 576 719 577 b 740 590 728 580 734 585 b 753 609 745 596 749 602 l 754 611 b 757 619 755 614 756 616 l 757 620 b 759 624 758 621 758 623 b 759 626 759 625 759 626 b 761 630 760 628 760 629 b 766 651 762 637 764 643 l 766 651 b 769 671 767 658 768 665 b 769 692 770 678 770 685 b 757 735 767 707 763 721 b 695 811 745 761 724 787 b 674 828 688 817 680 823 l 671 830 b 663 836 668 832 665 834 l 651 843 b 605 868 637 853 621 861 m 1709 -202 b 1727 -222 1711 -204 1726 -213 b 1711 -227 1728 -229 1720 -229 b 1646 -200 1690 -217 1668 -208 b 1575 -178 1623 -191 1599 -184 b 1427 -157 1526 -166 1477 -159 b 1277 -163 1377 -155 1327 -157 b 1128 -185 1233 -167 1186 -174 b 1028 -204 1094 -191 1060 -197 b 827 -239 962 -216 895 -229 b 673 -253 776 -246 725 -251 b 635 -254 661 -253 648 -254 b 518 -247 596 -254 557 -251 b 441 -234 492 -244 467 -240 b 366 -215 416 -229 391 -222 b 223 -150 316 -199 268 -178 b 10 77 133 -95 59 -17 b -46 224 -15 123 -33 173 b -59 301 -52 249 -56 275 b -63 379 -62 327 -63 353 b -56 458 -63 405 -60 432 b -38 534 -52 484 -46 509 b -23 572 -32 550 -28 561 b -17 584 -21 576 -19 580 b -15 589 -16 586 -16 588 l -15 590 b -12 595 -14 591 -13 593 b -5 607 -10 599 -8 603 b 17 641 1 619 9 630 l 23 649 l 29 656 b 34 662 31 658 33 660 b 36 664 35 663 36 663 l 42 671 l 46 671 b 46 671 46 671 46 671 l 45 674 l 49 671 b 52 670 50 671 51 670 l 53 670 l 59 664 b 64 659 61 663 63 661 l 66 658 l 66 657 b 67 653 67 656 67 654 l 70 650 l 67 651 b 67 650 67 650 67 650 l 67 647 l 62 641 b 60 639 61 640 60 639 b 56 634 58 637 57 636 l 56 634 l 50 627 l 47 623 l 45 620 b 31 584 40 608 35 596 b 14 509 22 560 16 534 b 32 357 9 457 15 406 b 108 223 48 310 73 265 b 161 166 124 202 142 184 b 222 117 180 148 201 132 b 362 48 265 88 312 64 b 399 37 374 44 387 40 b 438 29 414 34 426 31 b 477 24 451 27 464 25 b 516 22 492 23 504 22 b 811 111 621 21 724 52 l 813 112 b 827 122 818 115 822 118 b 842 133 833 126 838 130 b 872 158 851 140 861 148 b 927 213 892 175 910 193 b 1020 337 961 251 992 293 b 1096 471 1044 375 1068 418 b 1130 540 1106 491 1116 512 b 1144 570 1135 550 1139 560 l 1149 579 b 1138 578 1145 579 1142 579 b 1099 576 1123 577 1111 576 b 1018 581 1072 575 1045 577 b 978 592 1004 583 991 587 b 939 612 964 596 951 603 b 911 647 927 621 917 633 b 905 690 905 661 903 676 l 910 721 b 913 724 910 722 911 724 b 916 721 914 724 916 722 l 921 690 b 933 660 922 679 926 669 b 957 640 939 651 947 644 b 988 630 967 635 977 632 b 1023 626 1000 627 1011 626 b 1096 628 1047 625 1072 625 b 1132 632 1108 629 1120 630 b 1169 638 1145 634 1157 635 b 1177 639 1172 638 1175 638 b 1239 756 1198 681 1218 719 b 1326 895 1268 806 1296 852 b 1375 961 1343 919 1359 941 b 1431 1024 1393 983 1411 1004 b 1463 1053 1441 1035 1452 1044 b 1482 1067 1470 1059 1476 1063 b 1502 1078 1488 1071 1495 1075 b 1527 1087 1510 1082 1518 1085 b 1543 1087 1532 1088 1537 1088 b 1559 1082 1548 1086 1554 1084 b 1571 1070 1563 1079 1567 1075 b 1576 1058 1573 1066 1575 1062 b 1579 1034 1579 1050 1580 1042 l 1578 1026 b 1573 1021 1578 1023 1576 1021 b 1567 1024 1571 1020 1568 1022 l 1564 1032 b 1560 1040 1563 1034 1562 1037 b 1556 1046 1559 1042 1557 1044 l 1555 1047 b 1547 1052 1553 1050 1550 1051 b 1540 1050 1544 1052 1542 1052 l 1539 1050 b 1528 1041 1535 1047 1531 1044 b 1506 1014 1520 1032 1512 1023 b 1485 982 1499 1004 1493 994 b 1448 914 1474 963 1462 942 b 1413 843 1436 891 1424 867 b 1362 738 1396 809 1378 773 b 1344 701 1356 726 1350 713 b 1326 663 1338 688 1332 676 b 1342 664 1331 664 1336 664 b 1362 663 1348 664 1355 664 b 1404 657 1376 663 1390 661 b 1426 648 1411 655 1419 652 b 1437 640 1430 646 1433 643 b 1446 626 1441 636 1444 631 b 1446 610 1447 621 1448 615 b 1441 597 1445 605 1443 601 b 1434 588 1439 594 1437 591 b 1426 580 1432 585 1429 583 l 1412 568 b 1407 568 1410 567 1408 567 b 1406 573 1406 569 1405 571 l 1415 590 b 1421 606 1417 595 1419 600 b 1420 614 1421 608 1421 611 b 1413 618 1418 616 1416 617 l 1413 618 b 1398 620 1408 619 1403 619 b 1363 618 1386 620 1374 619 l 1360 618 b 1345 616 1355 617 1350 617 b 1327 613 1339 615 1333 614 b 1299 608 1318 612 1308 610 b 1275 558 1291 591 1283 575 l 1257 522 b 1253 514 1256 519 1254 516 b 1238 485 1248 504 1243 494 b 1196 413 1224 459 1210 435 b 1147 344 1182 391 1166 369 b 1093 280 1130 322 1112 300 b 970 166 1056 239 1015 201 b 831 77 927 132 880 102 b 678 17 782 51 731 31 b 515 -2 625 4 570 -3 b 475 0 503 -2 489 -1 b 434 5 461 1 448 3 b 394 13 418 8 406 10 b 354 24 380 16 367 20 b 206 93 302 40 252 63 b 191 103 201 96 196 99 l 186 106 b 172 117 182 110 177 113 b 140 143 160 126 150 135 b 111 172 129 153 119 163 b 83 203 101 182 92 192 b 59 236 75 214 66 225 b 37 271 51 248 43 259 b 3 347 23 296 12 321 b -14 429 -5 374 -11 401 b -16 477 -16 445 -17 461 b -26 379 -23 445 -26 412 b -23 305 -27 354 -25 330 b -9 232 -20 281 -15 256 b 43 95 2 185 20 138 b 129 -24 67 51 95 11 b 243 -117 163 -60 201 -91 b 308 -151 264 -130 286 -141 b 377 -177 331 -161 354 -170 b 449 -196 401 -184 426 -191 b 523 -208 474 -201 498 -205 b 672 -214 572 -213 622 -215 b 822 -200 722 -212 772 -207 b 1008 -169 884 -192 947 -180 b 1121 -149 1045 -162 1084 -155 b 1274 -129 1181 -139 1229 -133 b 1428 -127 1325 -125 1377 -124 b 1581 -153 1480 -130 1531 -139 b 1655 -178 1606 -160 1631 -168 b 1709 -202 1673 -185 1691 -193 "},"G":{"ha":856,"x_min":0,"x_max":0,"o":"m 1738 -208 b 1738 -221 1741 -212 1741 -218 b 1694 -251 1725 -234 1710 -244 b 1644 -266 1678 -257 1661 -263 b 1593 -271 1627 -269 1610 -271 b 1542 -271 1577 -272 1560 -272 b 1344 -238 1483 -267 1420 -257 b 1153 -180 1283 -222 1221 -203 b 1106 -163 1137 -174 1121 -168 b 1088 -156 1100 -160 1094 -158 b 1060 -146 1078 -152 1069 -149 b 967 -117 1029 -135 998 -125 b 871 -99 935 -109 903 -103 b 777 -100 833 -95 803 -95 b 735 -114 762 -102 748 -107 b 720 -127 730 -118 725 -122 b 715 -135 718 -130 717 -132 b 713 -142 714 -137 714 -139 l 714 -142 b 765 -146 731 -142 748 -143 b 791 -153 774 -148 783 -150 b 817 -166 800 -155 809 -160 b 827 -178 821 -169 824 -174 b 833 -194 830 -183 832 -188 b 833 -209 833 -199 834 -204 b 828 -225 832 -215 831 -220 b 806 -247 824 -234 816 -242 b 778 -254 797 -251 788 -253 b 750 -250 768 -254 759 -252 b 725 -238 741 -247 733 -243 b 704 -219 717 -233 710 -227 b 690 -194 698 -212 693 -203 b 684 -167 687 -185 685 -176 b 684 -166 684 -167 684 -166 b 665 -167 678 -166 671 -166 b 567 -175 636 -168 605 -171 b 371 -203 501 -183 434 -194 b 340 -208 361 -205 351 -207 b 295 -229 325 -216 310 -223 b 287 -233 293 -231 290 -232 l 284 -234 l 272 -239 b 248 -247 263 -242 255 -245 b 150 -269 216 -257 184 -265 b 50 -269 117 -274 83 -274 b -47 -240 16 -265 -16 -255 b -179 -90 -109 -210 -157 -156 b -194 11 -190 -57 -195 -23 b -125 198 -193 79 -168 145 b -111 214 -121 203 -116 208 b -84 286 -106 239 -97 264 b -50 329 -74 302 -63 316 b -7 362 -37 342 -23 353 b 95 391 24 379 59 389 b 197 379 129 393 164 389 b 288 331 231 369 261 353 b 323 292 301 319 313 306 b 356 194 344 263 355 229 b 355 168 356 185 356 177 b 353 155 355 163 354 159 b 353 153 353 154 353 154 l 353 153 b 341 136 352 146 348 135 b 331 146 335 136 331 141 b 330 148 330 147 330 148 b 330 148 330 148 330 148 l 330 148 b 321 188 329 162 326 175 b 300 227 316 202 309 215 b 228 282 281 252 256 270 b 138 301 200 294 169 301 b 92 298 123 301 107 300 b 69 294 84 297 76 295 b 47 287 62 292 54 290 b 25 279 40 285 32 282 b 4 269 17 276 10 272 b -36 245 -10 262 -23 254 b -66 221 -47 237 -57 229 b -74 180 -70 207 -73 193 b -72 86 -77 149 -77 117 b -18 -40 -65 40 -46 -3 b 12 -75 -9 -53 1 -64 b 88 -130 35 -97 60 -115 b 131 -149 102 -137 116 -144 b 176 -164 146 -155 161 -160 b 271 -179 207 -172 239 -177 b 296 -180 279 -179 287 -180 b 316 -167 303 -176 310 -171 b 387 -108 342 -150 365 -130 b 446 -37 408 -86 428 -62 b 496 41 464 -12 481 14 b 579 211 523 89 550 143 b 651 387 605 270 629 331 b 721 567 675 447 698 508 b 728 586 723 573 726 580 b 710 561 722 578 716 569 b 678 523 700 548 689 535 b 643 488 667 510 655 499 b 559 430 618 465 590 446 b 459 402 525 413 492 404 b 405 408 441 401 423 403 b 335 454 377 415 353 431 b 333 455 334 454 334 455 b 330 459 332 457 331 458 l 326 465 b 324 468 326 466 325 467 b 318 475 322 470 320 473 b 291 521 308 490 299 505 b 258 732 259 587 247 660 b 281 834 264 767 271 801 b 364 1021 301 900 329 962 b 420 1106 381 1051 400 1079 b 486 1185 440 1134 462 1160 l 503 1203 b 521 1221 510 1210 516 1216 b 559 1256 534 1234 547 1246 b 600 1288 572 1267 586 1278 b 646 1315 615 1298 630 1307 b 697 1336 662 1324 679 1331 b 752 1346 715 1341 733 1345 b 810 1338 772 1346 792 1344 b 861 1309 829 1332 846 1322 b 895 1266 874 1297 886 1282 b 916 1217 904 1251 911 1234 b 927 1117 925 1188 928 1155 l 927 1111 b 925 1067 927 1097 926 1082 b 922 1042 924 1058 923 1050 b 917 1017 921 1034 919 1025 b 874 925 907 985 892 954 b 806 850 855 897 832 872 b 721 799 781 829 752 812 l 720 799 b 709 804 716 797 711 800 b 712 816 706 808 708 814 b 789 870 740 831 766 849 b 847 942 812 891 831 916 b 885 1026 864 968 876 997 b 898 1072 890 1042 894 1057 b 904 1117 901 1087 903 1102 b 885 1206 903 1148 897 1178 b 833 1272 873 1235 855 1259 b 797 1286 822 1279 810 1284 b 759 1285 784 1288 771 1288 b 721 1272 746 1283 733 1278 b 702 1262 714 1269 708 1266 b 684 1251 695 1259 689 1255 b 616 1194 660 1234 637 1215 b 585 1161 605 1183 595 1172 b 570 1143 580 1156 575 1150 l 562 1135 l 555 1126 b 460 969 522 1081 490 1030 b 422 885 446 941 433 913 b 390 800 409 855 399 827 b 367 713 381 772 373 743 b 350 626 360 682 355 655 b 347 539 346 600 343 569 b 358 498 349 525 353 511 l 359 497 b 362 490 359 495 360 493 b 363 488 362 490 362 489 b 368 480 365 485 366 482 b 382 465 372 475 377 470 b 458 441 401 449 428 440 b 544 463 485 441 514 449 b 620 513 571 476 597 493 b 685 581 644 533 666 556 b 736 660 704 606 721 632 l 783 745 b 834 837 800 775 817 806 b 880 924 848 866 864 896 b 988 1092 912 982 949 1038 b 1054 1169 1009 1119 1030 1144 b 1077 1191 1061 1176 1069 1184 l 1078 1192 b 1093 1205 1083 1196 1088 1201 b 1135 1233 1106 1215 1120 1225 b 1161 1244 1144 1237 1152 1241 b 1190 1248 1170 1247 1180 1248 b 1222 1241 1201 1249 1212 1246 l 1222 1241 b 1230 1235 1225 1239 1227 1237 b 1237 1225 1233 1232 1235 1229 b 1239 1216 1238 1222 1239 1219 b 1233 1203 1238 1211 1236 1206 b 1223 1198 1230 1200 1227 1199 b 1216 1198 1221 1197 1219 1197 l 1216 1198 b 1200 1202 1210 1198 1205 1200 b 1193 1206 1197 1203 1195 1205 b 1190 1207 1192 1206 1191 1207 l 1183 1207 l 1187 1209 b 1180 1210 1185 1209 1182 1210 b 1157 1198 1172 1207 1164 1203 b 1094 1134 1136 1183 1116 1163 b 1045 1055 1076 1109 1059 1083 b 1004 970 1031 1030 1018 1003 b 968 883 992 945 980 916 b 955 850 963 872 959 861 l 951 838 l 934 794 b 902 704 924 764 913 734 l 886 659 b 870 613 881 642 875 625 b 835 522 859 583 847 553 b 669 166 777 380 725 267 b 562 -2 632 100 598 46 b 425 -150 517 -64 472 -112 b 400 -170 417 -157 409 -164 b 564 -150 453 -163 509 -155 b 664 -142 603 -146 635 -143 b 685 -142 671 -142 678 -142 b 686 -138 685 -140 685 -139 b 690 -123 687 -133 688 -128 b 698 -110 692 -119 695 -114 b 720 -90 704 -102 712 -95 b 772 -71 736 -80 753 -74 b 875 -68 801 -65 833 -65 b 974 -86 908 -72 942 -78 b 1071 -115 1007 -94 1039 -104 b 1100 -126 1081 -119 1091 -123 b 1117 -133 1106 -128 1112 -131 b 1164 -150 1133 -139 1149 -144 b 1352 -209 1235 -175 1295 -194 b 1447 -232 1383 -218 1416 -225 b 1544 -245 1479 -238 1512 -243 b 1592 -247 1561 -247 1577 -247 b 1640 -244 1609 -247 1625 -246 b 1686 -232 1656 -241 1671 -237 b 1725 -208 1700 -226 1713 -218 b 1738 -208 1729 -204 1734 -204 l 1738 -208 m -48 267 b -7 291 -35 276 -21 284 b 40 309 8 298 24 305 b 133 323 70 319 101 323 b 139 323 135 323 137 323 b 237 303 173 323 206 316 b 318 241 269 290 297 268 b 335 213 324 232 330 223 b 328 239 333 222 331 231 b 275 315 318 269 299 295 b 191 357 250 334 222 349 b 97 363 161 365 129 367 b 12 331 67 359 38 348 b -47 269 -13 316 -33 294 m 235 -210 b 237 -209 235 -210 236 -210 b 168 -198 213 -207 191 -204 b 71 -163 134 -191 102 -179 b -15 -104 40 -148 11 -128 b -51 -65 -28 -92 -40 -79 b -79 -20 -61 -51 -71 -36 b -113 80 -96 11 -107 45 b -118 161 -117 106 -119 133 b -147 100 -130 142 -140 122 b -162 10 -157 72 -162 41 b -104 -158 -163 -51 -142 -111 b -34 -216 -85 -182 -61 -202 b 53 -242 -7 -230 23 -239 b 145 -237 84 -245 115 -243 b 235 -210 176 -231 206 -222 m 714 -166 b 711 -165 713 -166 712 -165 b 715 -186 712 -172 713 -179 l 715 -186 b 718 -196 716 -190 717 -193 b 723 -205 720 -199 721 -202 b 777 -233 735 -223 756 -234 b 797 -228 784 -232 791 -231 b 809 -215 802 -225 806 -221 b 811 -197 811 -210 812 -203 b 803 -184 810 -192 807 -187 b 784 -174 797 -179 791 -176 b 762 -169 777 -172 769 -170 b 714 -166 746 -167 730 -166 l 714 -161 l 714 -166 "},"H":{"ha":1922,"x_min":0,"x_max":0,"o":"m 2586 -263 b 2577 -276 2587 -269 2583 -274 b 2563 -268 2571 -277 2565 -274 l 2563 -267 l 2563 -265 b 2552 -242 2561 -257 2558 -249 b 2532 -221 2546 -234 2539 -227 b 2478 -191 2515 -209 2497 -199 b 2356 -156 2443 -176 2404 -165 b 2229 -141 2314 -148 2272 -143 b 2101 -140 2186 -139 2143 -138 b 1973 -152 2059 -142 2016 -146 b 1847 -175 1933 -157 1891 -165 b 1722 -207 1807 -185 1766 -195 l 1660 -225 l 1598 -243 b 1473 -278 1558 -255 1516 -267 b 1344 -305 1422 -291 1382 -299 b 1240 -314 1310 -311 1275 -314 b 1211 -313 1230 -314 1221 -314 b 1143 -302 1188 -312 1165 -308 b 1109 -289 1131 -298 1120 -294 b 1077 -267 1097 -283 1086 -276 b 1063 -249 1071 -262 1066 -256 b 1057 -237 1060 -245 1059 -241 b 851 -260 989 -250 920 -258 b 681 -251 794 -261 737 -258 b 674 -254 679 -252 676 -253 b 560 -280 637 -267 599 -276 b 444 -274 521 -283 482 -281 b 333 -239 406 -266 369 -255 b 232 -184 298 -224 264 -205 b 143 -110 200 -162 170 -138 b 68 -22 115 -83 90 -53 b 9 79 46 10 26 44 b -54 302 -22 147 -44 222 b -58 419 -58 341 -60 380 b -39 535 -56 458 -49 497 b -18 590 -33 554 -26 572 b 14 641 -9 608 1 625 b 20 649 15 643 17 646 b 50 681 29 660 39 671 b 79 701 59 689 69 695 b 114 710 90 706 102 709 b 125 702 119 711 124 707 b 119 690 126 697 123 692 l 118 690 l 116 690 b 73 663 101 683 86 674 b 54 644 66 657 60 651 b 38 623 49 637 43 630 b -2 525 20 596 7 563 b -15 417 -11 490 -15 454 b -15 394 -15 410 -15 402 b -13 375 -15 388 -14 381 b 21 254 -7 333 4 293 b 82 144 37 215 57 178 b 163 47 106 109 133 77 b 363 -109 218 -9 285 -62 b 597 -204 433 -152 512 -184 b 677 -219 623 -210 650 -215 b 757 -171 705 -206 732 -190 b 908 -13 811 -132 860 -80 b 1022 176 947 40 983 100 b 1047 225 1030 190 1039 208 b 1072 275 1056 241 1064 258 b 1119 376 1088 308 1103 342 b 1164 477 1134 409 1149 443 l 1219 600 b 1300 785 1245 661 1272 723 b 1406 989 1332 854 1368 923 b 1467 1087 1427 1025 1447 1058 b 1500 1135 1475 1100 1487 1117 b 1535 1181 1513 1153 1524 1167 b 1551 1199 1541 1187 1546 1194 b 1521 1206 1541 1202 1530 1204 b 1298 1233 1447 1220 1373 1229 b 1075 1224 1224 1237 1149 1234 b 863 1162 996 1212 924 1192 b 770 1106 830 1147 799 1128 b 712 1052 749 1090 730 1072 b 713 1052 712 1052 713 1052 b 742 1041 723 1049 733 1046 b 792 1006 760 1032 777 1020 b 828 958 806 991 818 975 b 854 904 839 940 847 922 b 864 876 858 894 861 884 b 871 847 867 865 869 856 b 882 790 876 828 879 809 b 887 732 884 771 886 751 b 888 703 887 723 887 714 b 887 673 888 692 887 682 b 885 644 886 663 886 653 b 881 615 884 634 882 624 b 867 558 877 596 873 576 b 843 503 861 539 853 520 b 826 478 838 494 832 486 b 806 456 820 470 813 462 b 752 426 791 441 772 431 b 721 423 742 424 732 423 b 691 428 711 424 701 425 b 662 438 681 430 672 434 b 636 455 653 443 645 449 b 595 500 620 468 606 483 b 568 554 584 517 575 535 b 559 583 564 565 561 574 b 555 597 557 587 556 592 l 554 605 l 552 612 b 546 671 549 631 546 651 b 546 729 545 689 545 708 b 560 845 547 768 552 807 b 598 957 569 883 581 921 b 645 1035 611 984 626 1011 b 628 1033 639 1035 634 1034 b 577 1016 611 1029 593 1024 b 552 1004 568 1013 560 1008 b 530 989 545 1000 537 995 b 491 952 516 979 503 966 b 462 907 480 938 470 923 b 441 857 454 891 446 874 b 418 751 429 823 422 787 b 414 641 415 714 413 677 b 443 422 416 567 426 494 b 475 316 452 386 462 351 b 521 217 488 282 503 249 b 550 171 529 201 539 185 b 567 150 555 164 561 157 b 585 130 573 142 579 136 b 627 98 597 117 611 107 b 651 88 634 94 642 91 b 676 84 659 86 667 84 b 686 73 681 83 686 79 b 675 63 686 67 681 63 b 645 66 665 63 655 64 b 616 76 635 68 625 72 b 565 108 597 84 580 95 b 543 128 558 114 550 121 b 524 150 536 135 530 143 b 490 198 511 166 500 182 b 437 302 469 231 452 266 b 401 411 423 338 411 374 b 388 468 396 429 392 447 b 378 525 384 487 381 506 b 370 640 373 563 370 601 b 373 698 370 657 371 676 b 376 727 373 707 374 717 b 380 756 377 737 378 746 b 412 868 386 794 397 832 b 438 920 419 886 428 904 b 473 968 448 937 460 953 b 517 1007 486 982 501 995 b 542 1022 525 1012 534 1018 b 568 1035 552 1027 560 1032 b 624 1053 586 1043 605 1049 b 662 1058 637 1056 649 1058 b 748 1136 687 1088 716 1114 b 849 1193 779 1159 813 1178 b 1072 1250 915 1221 987 1239 b 1299 1256 1147 1258 1223 1260 b 1525 1229 1375 1252 1450 1243 b 1571 1220 1540 1226 1556 1223 b 1576 1224 1573 1221 1574 1223 b 1626 1259 1588 1235 1605 1250 b 1658 1268 1636 1264 1647 1267 b 1672 1268 1663 1268 1667 1269 l 1673 1268 b 1691 1266 1679 1269 1686 1268 b 1720 1246 1703 1262 1713 1255 b 1735 1215 1728 1237 1733 1226 b 1734 1195 1736 1208 1736 1202 b 1723 1177 1732 1188 1728 1182 b 1704 1169 1717 1173 1711 1170 b 1687 1167 1699 1167 1693 1167 b 1657 1173 1677 1168 1667 1170 b 1630 1181 1648 1176 1639 1178 b 1595 1190 1619 1184 1608 1186 b 1571 1155 1586 1178 1578 1167 b 1520 1058 1552 1124 1535 1091 b 1478 954 1507 1027 1493 995 b 1418 785 1457 898 1437 841 b 1404 743 1414 771 1409 757 b 1375 663 1395 717 1385 690 b 1397 661 1383 662 1390 662 b 1491 661 1428 660 1460 659 b 1584 669 1522 662 1553 665 b 1630 677 1603 672 1617 674 b 1676 688 1647 680 1663 684 b 1733 705 1695 693 1715 698 b 1748 740 1738 716 1743 728 b 1929 1088 1809 885 1865 992 b 1992 1167 1948 1116 1969 1143 b 2006 1181 1996 1172 2001 1177 b 2010 1185 2007 1182 2009 1184 b 2017 1191 2012 1187 2014 1189 l 2019 1194 b 2029 1202 2022 1196 2026 1200 l 2039 1211 l 2054 1223 l 2069 1234 l 2090 1249 b 2112 1262 2096 1253 2104 1258 b 2136 1274 2119 1267 2127 1271 b 2166 1280 2145 1278 2155 1280 b 2198 1263 2178 1280 2190 1273 b 2210 1235 2204 1255 2208 1245 b 2212 1208 2211 1226 2212 1217 b 2210 1183 2212 1200 2211 1191 b 2145 997 2203 1122 2181 1059 b 2024 844 2112 941 2071 889 b 1867 726 1977 798 1924 759 b 1855 696 1863 716 1859 706 l 1820 607 b 1784 517 1807 572 1795 543 b 1727 391 1766 475 1746 432 b 1704 341 1720 375 1712 358 l 1697 325 b 1618 165 1672 273 1647 218 b 1567 83 1604 139 1587 110 b 1571 82 1568 83 1570 82 b 1619 66 1587 78 1604 72 b 1654 50 1631 61 1643 55 b 1664 45 1657 48 1660 47 l 1665 45 b 1706 29 1679 38 1692 32 b 1725 28 1712 27 1719 27 b 1740 36 1731 29 1736 32 b 1755 36 1744 40 1751 40 b 1756 21 1759 32 1759 25 b 1730 5 1749 14 1740 8 l 1730 5 b 1701 4 1720 3 1711 3 b 1654 17 1684 7 1669 12 l 1647 20 b 1563 43 1618 30 1591 40 b 1534 46 1554 45 1544 46 b 1527 39 1532 43 1530 41 b 1476 6 1512 25 1495 14 b 1443 -1 1465 2 1454 0 b 1435 -2 1441 -1 1438 -1 b 1431 -2 1434 -2 1433 -2 l 1426 -1 b 1414 2 1422 -1 1418 0 b 1408 5 1412 3 1410 4 b 1400 14 1405 8 1402 11 b 1395 26 1398 18 1396 22 b 1395 38 1394 30 1394 34 b 1402 55 1396 44 1398 50 b 1409 62 1404 57 1407 60 b 1415 66 1411 63 1413 65 b 1417 67 1416 66 1417 66 l 1418 67 b 1419 68 1418 67 1419 67 l 1426 71 b 1430 72 1427 71 1429 72 b 1439 75 1433 73 1436 74 b 1465 83 1447 79 1456 81 b 1474 86 1468 84 1471 85 b 1477 89 1475 87 1476 88 b 1501 122 1486 99 1494 111 b 1512 142 1505 130 1509 136 b 1523 162 1516 148 1519 155 b 1542 203 1529 175 1536 189 b 1579 290 1554 229 1566 257 b 1613 379 1589 314 1601 346 b 1644 468 1624 408 1634 439 b 1676 560 1655 498 1665 530 b 1711 650 1686 587 1697 615 b 1714 658 1712 653 1713 655 b 1687 649 1705 655 1696 652 b 1493 617 1624 631 1559 620 b 1394 617 1460 615 1427 615 b 1358 619 1383 617 1372 618 b 1322 531 1347 590 1335 560 b 1275 426 1307 496 1291 461 b 1223 324 1258 392 1241 357 b 1165 224 1205 290 1185 257 b 1134 175 1155 208 1145 192 b 1101 127 1122 157 1111 141 b 1032 35 1080 96 1056 65 b 955 -53 1007 4 981 -25 b 778 -202 895 -116 837 -165 b 736 -226 764 -210 750 -218 b 850 -230 774 -229 812 -230 b 1055 -208 919 -228 988 -221 b 1057 -201 1056 -206 1056 -203 b 1065 -182 1059 -195 1061 -188 b 1087 -151 1071 -170 1078 -160 b 1114 -127 1096 -142 1104 -135 b 1171 -91 1132 -114 1151 -101 b 1231 -62 1190 -80 1210 -71 b 1262 -50 1241 -58 1251 -54 b 1293 -40 1272 -46 1283 -43 b 1326 -31 1306 -36 1316 -33 b 1360 -27 1337 -29 1349 -27 b 1379 -28 1367 -27 1373 -27 b 1400 -36 1387 -29 1394 -32 l 1401 -36 b 1410 -48 1405 -39 1408 -43 b 1413 -61 1412 -52 1413 -57 b 1412 -73 1413 -65 1413 -69 b 1410 -78 1411 -75 1411 -76 b 1408 -84 1410 -80 1409 -82 b 1396 -100 1405 -90 1401 -95 b 1383 -112 1392 -105 1388 -109 b 1355 -132 1374 -120 1365 -126 b 1296 -163 1336 -144 1317 -154 b 1236 -188 1277 -172 1257 -180 b 1110 -226 1194 -203 1153 -216 b 1102 -228 1107 -226 1105 -227 b 1107 -235 1103 -230 1105 -233 b 1128 -249 1114 -240 1121 -245 l 1129 -249 b 1155 -259 1137 -253 1146 -257 b 1214 -270 1175 -265 1194 -269 b 1339 -266 1249 -274 1289 -272 b 1464 -243 1376 -261 1416 -254 b 1590 -214 1507 -234 1550 -223 b 1659 -196 1613 -208 1636 -202 b 1841 -152 1718 -181 1780 -165 b 1970 -130 1892 -141 1932 -134 b 2100 -119 2013 -124 2057 -121 b 2230 -120 2143 -118 2187 -118 b 2360 -136 2273 -123 2317 -128 b 2424 -150 2383 -140 2404 -145 b 2486 -171 2445 -156 2466 -163 b 2545 -204 2507 -180 2527 -190 b 2570 -228 2554 -211 2563 -219 b 2585 -260 2578 -237 2583 -248 l 2585 -260 l 2586 -263 m 1385 -62 b 1384 -59 1385 -61 1384 -60 b 1375 -56 1381 -58 1378 -57 l 1375 -56 b 1365 -56 1372 -56 1369 -56 b 1362 -56 1364 -56 1363 -56 b 1332 -60 1352 -56 1342 -58 b 1302 -69 1322 -62 1312 -65 b 1273 -79 1293 -72 1283 -75 b 1244 -92 1263 -83 1254 -87 b 1189 -123 1225 -101 1207 -111 b 1140 -159 1172 -134 1155 -146 b 1119 -180 1132 -166 1126 -173 b 1110 -191 1116 -184 1113 -187 b 1107 -197 1109 -193 1108 -195 b 1226 -161 1147 -187 1187 -175 b 1285 -137 1247 -154 1266 -146 b 1340 -108 1304 -129 1322 -119 b 1365 -90 1349 -103 1357 -97 b 1375 -81 1369 -87 1372 -84 b 1382 -71 1378 -78 1381 -74 b 1383 -69 1383 -70 1383 -70 b 1384 -66 1383 -68 1384 -67 b 1384 -62 1384 -65 1384 -63 m 2183 1186 b 2181 1229 2184 1200 2184 1215 b 2174 1245 2180 1235 2178 1240 b 2166 1249 2172 1248 2169 1249 b 2149 1244 2160 1249 2154 1247 b 2132 1233 2143 1241 2137 1237 b 2115 1218 2126 1228 2121 1223 b 2112 1214 2114 1217 2113 1215 l 2111 1214 b 2108 1210 2110 1212 2109 1211 l 2100 1201 b 2051 1123 2081 1176 2065 1149 b 2006 1042 2037 1099 2023 1073 b 1927 872 1981 994 1957 941 b 1887 776 1914 840 1900 808 b 1892 779 1889 777 1890 778 b 1931 805 1905 787 1918 796 b 2005 864 1957 823 1981 843 b 2123 1010 2051 907 2091 956 b 2162 1095 2139 1037 2152 1066 b 2175 1140 2167 1110 2172 1125 b 2183 1186 2179 1155 2181 1170 m 1683 1241 b 1674 1243 1680 1242 1677 1243 b 1662 1241 1670 1242 1666 1242 b 1640 1233 1654 1240 1647 1237 b 1612 1210 1630 1226 1620 1219 b 1636 1204 1621 1208 1629 1206 b 1663 1197 1645 1202 1654 1199 l 1664 1197 b 1689 1192 1672 1194 1680 1192 b 1706 1196 1696 1192 1703 1193 b 1710 1210 1710 1199 1711 1204 b 1683 1241 1707 1224 1696 1237 m 52 98 b 167 -87 83 27 122 -36 b 248 -161 192 -115 219 -140 b 344 -216 278 -183 310 -201 b 449 -248 377 -230 413 -241 b 557 -252 485 -254 521 -255 b 618 -241 578 -250 598 -246 b 590 -235 609 -239 599 -237 b 347 -137 502 -214 420 -181 b 239 -62 309 -114 273 -89 b 140 25 204 -36 171 -7 b 56 126 109 56 81 90 b 20 185 43 145 31 165 b 52 98 29 156 40 127 m 796 940 b 768 984 789 956 779 971 b 729 1018 757 998 744 1009 b 706 1029 722 1022 714 1026 b 695 1032 702 1030 699 1031 b 693 1030 694 1032 694 1031 b 663 986 682 1016 672 1001 b 638 938 654 971 645 955 b 606 835 624 905 613 871 b 593 727 599 800 595 763 b 593 672 593 709 593 691 b 597 618 594 654 595 635 l 598 612 l 598 605 b 600 598 599 602 599 600 b 601 592 600 596 600 594 b 606 566 602 584 603 576 b 624 516 610 549 616 532 b 653 474 631 501 641 487 b 697 448 666 462 681 454 b 722 444 705 446 714 444 b 747 446 731 443 739 444 b 790 472 763 451 778 459 b 806 492 796 478 801 485 b 818 515 811 500 815 507 b 835 566 826 532 831 549 b 844 674 843 603 844 642 b 842 729 844 694 843 712 b 837 784 841 749 839 767 b 828 838 835 803 832 821 b 815 890 825 856 821 873 b 796 940 810 908 804 924 "},"I":{"ha":1049,"x_min":0,"x_max":0,"o":"m 1557 -109 b 1562 -131 1564 -114 1567 -123 b 1541 -136 1558 -138 1548 -141 l 1541 -136 b 1507 -126 1532 -131 1521 -128 b 1468 -126 1494 -125 1481 -125 b 1386 -137 1440 -128 1413 -132 b 1304 -153 1357 -142 1328 -148 l 1222 -171 b 890 -233 1117 -194 1005 -218 b 806 -242 859 -238 831 -240 b 748 -244 787 -243 767 -244 b 720 -243 739 -244 730 -244 b 552 -222 664 -242 607 -235 b 470 -200 524 -216 497 -209 l 467 -199 b 449 -193 461 -197 455 -195 l 446 -192 b 429 -185 441 -190 435 -188 b 390 -169 418 -181 406 -176 b 242 -83 338 -146 288 -117 b 113 33 194 -50 151 -11 b 20 182 75 78 44 128 l 15 193 l 11 203 b 4 223 8 209 6 216 l 3 224 b -10 267 -1 237 -5 251 b -20 310 -13 281 -17 295 b -26 355 -22 325 -24 340 b -30 399 -28 368 -29 382 b -30 444 -30 413 -30 428 b -5 619 -29 503 -20 562 b 23 704 2 648 12 676 b 121 854 46 760 79 811 b 154 885 131 865 142 875 b 189 912 165 895 177 904 b 227 936 201 921 213 928 b 266 956 239 943 253 950 b 277 960 269 957 273 958 b 280 961 278 960 279 961 b 287 964 282 962 284 963 b 292 966 289 964 290 965 b 297 967 294 966 295 967 l 307 971 b 350 982 321 975 335 979 b 436 987 378 987 407 989 b 458 984 444 986 451 986 b 469 1008 461 992 465 1000 b 525 1098 484 1040 504 1070 b 560 1138 536 1112 548 1125 b 575 1152 565 1143 570 1147 b 579 1156 576 1153 578 1154 b 593 1168 584 1160 588 1164 b 599 1173 595 1170 597 1171 b 684 1233 625 1195 654 1215 b 778 1276 714 1250 746 1264 b 796 1282 784 1278 790 1280 b 803 1284 798 1283 800 1283 l 803 1284 b 811 1287 806 1285 808 1286 b 827 1291 817 1288 822 1290 l 840 1294 b 848 1296 842 1295 845 1296 b 852 1297 849 1297 851 1297 b 856 1298 854 1298 855 1298 b 865 1300 859 1299 862 1299 l 877 1302 b 978 1313 910 1308 944 1312 l 990 1313 l 1003 1313 b 1021 1313 1009 1314 1015 1313 b 1028 1313 1023 1313 1025 1313 l 1034 1313 l 1053 1312 b 1067 1311 1057 1312 1062 1311 b 1078 1310 1070 1311 1074 1310 l 1078 1310 l 1103 1307 b 1112 1306 1106 1307 1109 1307 b 1127 1304 1117 1305 1122 1305 b 1136 1302 1130 1303 1133 1303 b 1152 1300 1141 1302 1147 1301 b 1161 1298 1155 1299 1158 1299 b 1176 1295 1166 1297 1171 1296 b 1185 1293 1179 1294 1182 1294 b 1201 1289 1190 1292 1195 1291 l 1225 1283 b 1272 1274 1242 1279 1258 1276 b 1320 1269 1288 1271 1304 1269 b 1343 1268 1328 1268 1336 1268 b 1350 1269 1345 1269 1348 1269 b 1364 1274 1355 1271 1359 1273 b 1372 1276 1367 1275 1369 1275 b 1376 1276 1373 1276 1375 1276 b 1380 1276 1377 1277 1379 1277 b 1384 1275 1381 1276 1383 1276 b 1392 1260 1390 1273 1394 1266 l 1392 1259 b 1387 1253 1391 1257 1389 1254 b 1385 1251 1386 1252 1386 1252 b 1382 1250 1384 1251 1383 1250 b 1378 1248 1381 1249 1379 1249 b 1371 1247 1376 1248 1373 1247 b 1361 1245 1368 1246 1364 1246 b 1352 1241 1358 1244 1355 1242 b 1334 1227 1346 1237 1339 1232 b 1326 1220 1331 1225 1329 1223 l 1325 1219 b 1324 1218 1324 1219 1324 1218 b 1321 1215 1323 1217 1322 1216 b 1316 1211 1319 1214 1318 1212 b 1300 1195 1311 1206 1305 1201 b 1285 1177 1296 1190 1291 1184 b 1257 1139 1276 1166 1267 1153 b 1208 1056 1241 1115 1225 1088 b 1164 970 1194 1031 1180 1003 b 1122 881 1150 940 1136 911 b 1108 850 1118 871 1113 860 b 1082 792 1100 831 1091 811 l 1063 747 l 1049 713 l 1043 702 b 876 344 980 562 927 448 b 789 167 848 285 818 226 l 733 55 b 683 -6 705 1 692 -6 b 655 14 673 -6 663 1 l 655 15 b 653 20 654 17 654 19 b 649 38 651 26 649 32 b 650 53 648 43 649 48 b 652 60 651 55 651 58 l 671 112 b 687 157 676 127 681 142 b 717 320 699 208 711 264 b 719 402 720 347 721 375 b 705 483 719 430 714 457 b 699 499 703 488 701 494 b 689 430 696 476 693 453 b 637 268 678 374 661 320 b 594 194 625 242 610 218 b 568 160 586 183 577 171 b 540 128 558 148 549 138 b 472 75 520 107 497 89 b 431 57 459 67 445 62 b 387 50 417 53 402 51 b 299 75 356 50 326 58 b 233 140 273 91 250 114 b 212 183 225 154 218 168 b 204 205 209 190 207 198 b 199 229 202 213 200 221 b 200 324 194 260 194 292 b 203 335 201 327 202 331 b 205 345 203 339 204 342 l 205 346 b 212 368 207 354 209 361 b 229 411 217 383 222 397 b 252 451 236 425 243 438 b 279 488 260 464 269 476 b 425 591 318 534 369 569 b 467 604 439 596 453 601 b 489 608 474 605 481 607 b 510 611 496 609 503 610 b 554 611 525 612 540 612 b 598 604 569 610 583 608 b 640 590 612 601 626 596 b 678 565 653 583 666 575 b 684 560 680 564 682 562 b 684 599 684 573 684 586 b 678 682 684 627 682 654 b 675 702 677 689 676 696 b 663 691 671 698 667 695 b 620 661 650 679 636 669 b 568 647 604 653 587 648 b 515 661 550 647 531 651 b 492 676 507 665 499 671 b 482 686 488 679 485 682 b 477 691 480 687 479 689 b 473 696 475 692 474 694 l 472 696 b 443 744 460 711 450 727 b 433 770 439 752 436 761 b 426 798 430 779 428 788 b 425 810 426 802 425 806 l 424 811 l 424 819 l 423 825 b 423 853 423 835 423 844 b 432 907 424 872 427 890 b 450 965 436 927 442 946 b 435 966 445 965 440 966 b 354 960 408 968 381 966 b 279 931 328 953 303 944 b 154 826 233 906 191 871 b 72 684 120 783 92 735 b 46 606 61 659 53 632 b 26 360 25 526 18 442 b 63 199 31 305 43 251 b 142 55 82 148 109 99 b 258 -62 176 11 215 -28 b 399 -149 302 -97 349 -126 b 476 -180 424 -161 450 -171 b 721 -222 555 -207 638 -221 b 804 -219 748 -222 776 -221 b 887 -209 829 -217 855 -214 b 1215 -142 1000 -192 1111 -166 l 1226 -139 b 1380 -105 1276 -127 1328 -115 b 1466 -94 1409 -100 1437 -96 b 1511 -95 1481 -93 1496 -93 b 1545 -103 1523 -96 1534 -99 l 1545 -102 l 1557 -109 m 314 96 b 387 72 335 80 361 72 b 425 77 400 72 413 73 b 462 92 438 81 450 86 b 526 141 486 105 507 122 b 554 172 535 151 544 161 b 579 205 563 183 571 194 b 620 276 595 227 608 251 b 670 434 643 326 660 379 l 670 434 b 682 527 676 465 680 496 b 663 548 676 535 670 542 b 593 584 645 565 620 577 b 553 590 580 587 566 589 b 539 590 548 590 544 590 b 533 590 537 590 535 590 b 513 589 526 590 519 590 b 435 567 486 586 460 579 b 312 464 388 545 345 509 b 247 315 280 419 258 368 b 243 234 242 288 240 261 b 251 194 245 220 247 207 b 265 157 254 181 259 169 b 286 123 271 145 278 133 b 314 96 294 113 304 104 m 1303 1246 b 1304 1247 1303 1246 1303 1247 b 1268 1252 1292 1248 1280 1250 b 1219 1263 1252 1255 1236 1259 b 1206 1267 1215 1265 1210 1266 b 1196 1269 1203 1268 1199 1269 b 1181 1273 1191 1271 1186 1272 b 1172 1275 1178 1274 1175 1274 b 1076 1289 1140 1282 1108 1286 b 979 1289 1044 1291 1011 1291 b 884 1274 947 1287 915 1282 b 564 1067 760 1244 647 1171 l 564 1066 b 507 971 541 1037 522 1005 b 521 965 512 970 516 968 b 593 916 548 953 572 937 b 646 848 614 896 632 873 b 665 809 653 835 660 822 b 670 799 667 806 668 803 b 671 795 670 798 670 797 b 673 789 672 793 673 791 b 680 768 676 782 678 775 b 686 748 682 762 684 755 b 704 781 693 759 699 770 b 718 826 711 796 715 811 b 717 871 721 841 720 856 l 717 872 b 725 882 717 877 720 882 b 735 875 729 883 734 880 b 737 823 739 858 739 840 b 722 774 734 806 729 789 b 691 722 714 755 704 738 b 697 684 694 710 696 697 b 703 599 701 656 703 628 b 702 539 704 579 703 559 b 728 490 713 524 722 508 b 746 404 738 462 744 433 b 745 317 748 375 748 346 l 745 315 b 774 390 755 340 764 365 b 931 751 816 496 866 611 l 956 804 l 956 801 l 957 803 b 977 840 963 815 970 828 b 1028 928 993 870 1010 899 l 1048 960 l 1056 970 b 1085 1012 1065 984 1075 998 b 1146 1094 1104 1040 1125 1067 b 1214 1171 1172 1125 1193 1150 b 1293 1241 1238 1197 1263 1221 b 1299 1244 1295 1242 1297 1243 b 1303 1246 1300 1245 1301 1246 m 472 845 b 471 801 470 830 470 815 b 478 755 472 785 474 770 b 497 713 482 740 488 726 b 527 682 504 700 515 690 b 568 671 539 674 554 670 b 610 681 583 671 597 675 b 649 707 624 688 637 697 b 670 728 656 713 663 720 b 661 762 667 740 664 751 b 654 782 659 770 657 776 b 652 788 653 784 653 786 b 651 792 651 789 651 790 b 647 801 649 795 648 798 b 629 838 641 813 635 826 b 579 902 615 861 599 883 b 513 947 560 920 537 936 b 499 952 508 949 503 951 b 480 896 491 934 485 915 b 472 848 477 880 474 864 l 472 845 "}}}
